<svg xmlns="http://www.w3.org/2000/svg" enable-background="new 0 0 64 64" viewBox="0 0 64 64" width="256" height="256"><linearGradient id="a" x1="-1049.933" x2="-1049.933" y1="8.197" y2="38.874" gradientTransform="matrix(-1 0 0 1 -1017.933 0)" gradientUnits="userSpaceOnUse"><stop offset=".019" stop-color="#ffffff" class="stopColorfff svgShape"></stop><stop offset="1" stop-color="#ceede0" class="stopColorceede0 svgShape"></stop></linearGradient><path fill="url(#a)" d="M10.76,9.32v28.44c0,0.62,0.5,1.12,1.12,1.12h40.24c0.62,0,1.12-0.5,1.12-1.12V9.32
				c0-0.62-0.5-1.12-1.12-1.12H11.88C11.26,8.2,10.76,8.7,10.76,9.32z"></path><linearGradient id="b" x1="-1049.951" x2="-1049.951" y1="15.402" y2="54.771" gradientTransform="matrix(-1 0 0 1 -1017.933 0)" gradientUnits="userSpaceOnUse"><stop offset=".019" stop-color="#ffffff" class="stopColorfff svgShape"></stop><stop offset="1" stop-color="#ceede0" class="stopColorceede0 svgShape"></stop></linearGradient><path fill="url(#b)" d="M13.03,37.82h37.99c0.74,0,1.33-0.6,1.33-1.33V14.2c0-0.74-0.6-1.33-1.33-1.33H13.03
					c-0.74,0-1.33,0.6-1.33,1.33v22.29C11.69,37.22,12.29,37.82,13.03,37.82z"></path><path fill="#323a7b" d="M10.76 9.32v2.57h42.48V9.32c0-.62-.5-1.12-1.12-1.12H11.88C11.26 8.2 10.76 8.7 10.76 9.32zM35.36 22.22c0 2.85 1.64 5.32 4.02 6.52l3.27-6.52-6.95-2.2C35.48 20.71 35.36 21.45 35.36 22.22z" opacity=".15" class="color323a7b svgShape"></path><path fill="#ff80e7" d="M42.66,14.93v7.29h7.29C49.95,18.2,46.69,14.93,42.66,14.93z" class="colorff80e7 svgShape"></path><linearGradient id="c" x1="-1060.591" x2="-1056.649" y1="14.929" y2="21.757" gradientTransform="matrix(-1 0 0 1 -1017.933 0)" gradientUnits="userSpaceOnUse"><stop offset="0" stop-color="#955bed" class="stopColor955bed svgShape"></stop><stop offset="1" stop-color="#204ce0" class="stopColor204ce0 svgShape"></stop></linearGradient><path fill="url(#c)" d="M35.7,20.02l6.95,2.2v-7.29C39.4,14.93,36.64,17.07,35.7,20.02z"></path><path fill="#fffa50" d="M42.66,22.22v7.3c4.03,0,7.29-3.27,7.29-7.3H42.66z" class="colorfffa50 svgShape"></path><path fill="#323a7b" d="M39.39 28.75c.98.49 2.09.77 3.27.77v-7.3L39.39 28.75zM32.07 26.9h-.86c-.18 0-.33.15-.33.33v.86c0 .18.15.33.33.33h.86c.18 0 .33-.15.33-.33v-.86C32.41 27.05 32.26 26.9 32.07 26.9z" opacity=".43" class="color323a7b svgShape"></path><path fill="#323a7b" d="M32.07,23.91h-0.86c-0.18,0-0.33,0.15-0.33,0.33v0.86c0,0.18,0.15,0.33,0.33,0.33h0.86
					c0.18,0,0.33-0.15,0.33-0.33v-0.86C32.41,24.06,32.26,23.91,32.07,23.91z" opacity=".15" class="color323a7b svgShape"></path><linearGradient id="d" x1="-1050.339" x2="-1048.815" y1="21.691" y2="21.691" gradientTransform="matrix(-1 0 0 1 -1017.933 0)" gradientUnits="userSpaceOnUse"><stop offset="0" stop-color="#955bed" class="stopColor955bed svgShape"></stop><stop offset="1" stop-color="#204ce0" class="stopColor204ce0 svgShape"></stop></linearGradient><path fill="url(#d)" d="M32.07,20.93h-0.86c-0.18,0-0.33,0.15-0.33,0.33v0.86c0,0.18,0.15,0.33,0.33,0.33h0.86
					c0.18,0,0.33-0.15,0.33-0.33v-0.86C32.41,21.08,32.26,20.93,32.07,20.93z"></path><linearGradient id="e" x1="-1050.339" x2="-1048.815" y1="18.706" y2="18.706" gradientTransform="matrix(-1 0 0 1 -1017.933 0)" gradientUnits="userSpaceOnUse"><stop offset=".019" stop-color="#fde090" class="stopColorfde090 svgShape"></stop><stop offset="1" stop-color="#fe9a81" class="stopColorfe9a81 svgShape"></stop></linearGradient><path fill="url(#e)" d="M32.07,17.94h-0.86c-0.18,0-0.33,0.15-0.33,0.33v0.86c0,0.18,0.15,0.33,0.33,0.33h0.86
					c0.18,0,0.33-0.15,0.33-0.33v-0.86C32.41,18.09,32.26,17.94,32.07,17.94z"></path><linearGradient id="f" x1="-1050.339" x2="-1048.815" y1="15.722" y2="15.722" gradientTransform="matrix(-1 0 0 1 -1017.933 0)" gradientUnits="userSpaceOnUse"><stop offset=".019" stop-color="#fdb6bc" class="stopColorfdb6bc svgShape"></stop><stop offset=".984" stop-color="#fb5cb0" class="stopColorfb5cb0 svgShape"></stop></linearGradient><path fill="url(#f)" d="M32.07,14.96h-0.86c-0.18,0-0.33,0.15-0.33,0.33v0.86c0,0.18,0.15,0.33,0.33,0.33h0.86
					c0.18,0,0.33-0.15,0.33-0.33v-0.86C32.41,15.11,32.26,14.96,32.07,14.96z"></path><g opacity=".28"><path fill="#4e7c84" d="M14.63 15.88H29.1c.1 0 .18-.08.18-.18v-.07c0-.1-.08-.18-.18-.18H14.63c-.1 0-.18.08-.18.18v.07C14.45 15.8 14.53 15.88 14.63 15.88zM14.63 18.79H29.1c.1 0 .18-.08.18-.18v-.07c0-.1-.08-.18-.18-.18H14.63c-.1 0-.18.08-.18.18v.07C14.45 18.71 14.53 18.79 14.63 18.79zM14.63 21.88H29.1c.1 0 .18-.08.18-.18v-.07c0-.1-.08-.18-.18-.18H14.63c-.1 0-.18.08-.18.18v.07C14.45 21.79 14.53 21.88 14.63 21.88zM14.63 24.79H29.1c.1 0 .18-.08.18-.18v-.07c0-.1-.08-.18-.18-.18H14.63c-.1 0-.18.08-.18.18v.07C14.45 24.71 14.53 24.79 14.63 24.79zM14.63 27.7H29.1c.1 0 .18-.08.18-.18v-.07c0-.1-.08-.18-.18-.18H14.63c-.1 0-.18.08-.18.18v.07C14.45 27.62 14.53 27.7 14.63 27.7z" class="color4e7c84 svgShape"></path></g><g><path fill="#d3d3d3" d="M0,54.84c0-0.53,14.33-0.96,32-0.96c17.67,0,32,0.43,32,0.96c0,0.53-14.33,0.96-32,0.96
			C14.33,55.8,0,55.37,0,54.84z" opacity=".72" class="colord3d3d3 svgShape"></path><rect width=".56" height="9.98" x="61.75" y="34.24" fill="#004668" transform="rotate(-180 62.029 39.234)" class="color004668 svgShape"></rect><path fill="#edc300" d="M60.97,38.8h0.3c0.63,0,1.13-0.51,1.13-1.13v-3.61c0-0.63-0.51-1.13-1.13-1.13h-0.3V38.8z" class="coloredc300 svgShape"></path><rect width=".85" height="11.56" x="57.47" y="43.38" fill="#004668" transform="rotate(-180 57.893 49.158)" class="color004668 svgShape"></rect><path fill="#fbe53c" d="M60.8,38.8h0.12c0.2,0,0.37-0.17,0.37-0.37V33.3c0-0.2-0.17-0.37-0.37-0.37H60.8
				c-0.2,0-0.37,0.17-0.37,0.37v5.13C60.43,38.64,60.6,38.8,60.8,38.8z" class="colorfbe53c svgShape"></path><path fill="#edc300" d="M53.64,44.75h7.99c0.38,0,0.69-0.31,0.69-0.69V43.7c0-0.38-0.31-0.69-0.69-0.69h-7.99
				c-0.38,0-0.69,0.31-0.69,0.69v0.36C52.95,44.45,53.26,44.75,53.64,44.75z" class="coloredc300 svgShape"></path><path fill="#fbe53c" d="M52.77,44.75h7.54c0.32,0,0.59-0.26,0.59-0.59V43.6c0-0.32-0.26-0.59-0.59-0.59h-7.54
				c-0.32,0-0.59,0.26-0.59,0.59v0.57C52.18,44.49,52.44,44.75,52.77,44.75z" class="colorfbe53c svgShape"></path><rect width="7.33" height=".7" x="54.23" y="54.24" fill="#004668" transform="rotate(-180 57.893 54.586)" class="color004668 svgShape"></rect><path fill="#ffbfbf" d="M54.36,29.91c-0.13-0.94-0.74-4.17-0.74-4.2l1.82-0.34c0.03,0.13,1.01,2.99,1.15,3.98L54.36,29.91z" class="colorffbfbf svgShape"></path><path fill="#ffbfbf" d="M55.71,26.2c-0.01,0.02,0.03,0.08,0.03,0.1c0,0-0.34,0.49-0.88,0.89c-0.06,0.04-0.12,0.08-0.19,0.12
				c-0.23,0.12-0.45,0.24-0.71,0.3c-0.16-0.87-0.35-1.64-0.35-1.65l1.91-0.58C55.54,25.41,55.57,25.76,55.71,26.2z" opacity=".54" class="colorffbfbf svgShape"></path><path fill="#ffbfbf" d="M55.23,26.6c0.5-0.65,0.82-2.2,0.79-2.56c-0.01-0.05-0.02-0.1-0.03-0.16c-0.12-0.49-0.67-1.65-1.78-1.6
				c-0.16,0.01-0.32,0.04-0.44,0.07c-0.92,0.27-1.28,1.23-1.44,1.83c-0.03,0.13-0.06,0.26-0.08,0.39c-0.11,0.7-0.12,1.63,0.04,2.09
				c0,0,0,0.01,0,0.01c0.2,0.55,1.07,0.6,1.75,0.47c0.07-0.02,0.14-0.04,0.21-0.06C54.87,26.84,55.23,26.6,55.23,26.6z" class="colorffbfbf svgShape"></path><path fill="#ffbfbf" d="M51.06,27.66c-0.01-0.17,0-0.35,0.07-0.52c0.01-0.04,0.17-0.05,0.28,0c0.01-0.04,0.02-0.09,0.04-0.13
				c0.02-0.05,0.25-0.08,0.34,0.04c0.01-0.03,0.02-0.06,0.03-0.09c0.02-0.05,0.25-0.08,0.35,0.04c0.01-0.02,0.01-0.03,0.01-0.05
				c0.02-0.06,0.44-0.07,0.38,0.2c-0.02,0.08-0.04,0.17-0.06,0.27c0.09-0.04,0.17-0.08,0.22-0.14c0.42-0.5,0.72-0.33,0.42,0.08
				c-0.3,0.4-0.53,1.18-0.86,1.5c-0.47,0.45-0.71,1.13-0.71,1.13l-0.99-0.13c0,0,0.29-0.71,0.26-1.01
				C50.8,28.37,50.96,27.89,51.06,27.66z" class="colorffbfbf svgShape"></path><path fill="#010000" d="M50.68 53.02l-.92-.67-.24.66c0 0-1.38.63-1.97.69-.61.06-.66.68-.59.84.06.16.72.23 1.59.11.87-.13 1.44-.46 1.44-.46v.12c0 0 .52-.01.81-.22C50.79 54.09 50.84 53.14 50.68 53.02zM46.27 53.02l-.92-.67-.24.66c0 0-1.38.63-1.97.69-.61.06-.66.68-.59.84.06.16.72.23 1.59.11.87-.13 1.44-.46 1.44-.46v.12c0 0 .52-.01.81-.22C46.39 54.09 46.44 53.14 46.27 53.02z" class="color010000 svgShape"></path><path fill="#003e59" d="M58.98,38.08c0,0,0.04,0.47,0.04,2.13c0,1.25-1.3,1.95-2.58,2.06c-1.91,0.17-6.55,1.08-6.76,1.55
				c-0.09,0.2-0.3,1.88-0.95,3.72c-0.85,2.41-2.46,5.49-2.46,5.49s-0.43,0.19-1.16,0l1.99-11c0,0,0.15-0.81,1.25-1.33
				c1.33-0.62,7.92-2,8.15-2.9C56.74,36.89,58.98,38.08,58.98,38.08z" class="color003e59 svgShape"></path><path fill="#ffbfbf" d="M45.6,34.96c0,0-0.62,0.07-0.9-0.01c-0.28-0.09-0.84-0.17-1.07-0.11c-0.23,0.06-1.29,0.67-1.12,0.8
				c0.17,0.13,0.35-0.07,0.35-0.07s-0.26,0.13-0.08,0.19c0.17,0.06,0.32-0.08,0.32-0.08s-0.26,0.06-0.12,0.17
				c0.14,0.11,0.58-0.18,0.74-0.21c0,0-0.33,0.12-0.29,0.27c0.03,0.15,0.32-0.13,0.5-0.08c0.18,0.04,0.53,0.05,0.99-0.01
				c0.46-0.06,1.1-0.29,1.1-0.29L45.6,34.96z" class="colorffbfbf svgShape"></path><path fill="#003e59" d="M60.77,39.37c0,0,0.15-0.1,0.15,1.56c0,1.25-1.3,1.95-2.58,2.06c-1.91,0.17-6.55,0.36-6.76,0.83
				c-0.09,0.2,0.25,2.24,0.14,3.65c-0.21,2.55-0.99,5.56-0.99,5.56s-0.51,0.13-1.24-0.06L49,42.01c0,0,0.15-0.81,1.25-1.33
				c1.33-0.62,7.92-1.28,8.15-2.18C58.63,37.61,60.77,39.37,60.77,39.37z" class="color003e59 svgShape"></path><path fill="#84c0ea" d="M55.12,28.44c0,0,0.83,2.65,1,4.48c0.17,1.83,0.06,5.63-0.15,6.05l0.46,0.04c0,0,0.09-2.54,0-6.03
				c-0.09-3.49-0.78-4.52-0.78-4.52l-0.3-0.12L55.12,28.44z" class="color84c0ea svgShape"></path><path fill="#9d41b3" d="M54.87,28.11c0.39-0.36,1.08-0.1,1.44,0.29c0.33,0.36,0.5,0.97-0.16,1.93c-1.31,1.91-3.21,4.58-4.49,4.74
				c-1.27,0.16-6.1,0.66-6.1,0.66l-0.24-0.8l5.73-1.39C51.04,33.54,53.4,29.45,54.87,28.11z" class="color9d41b3 svgShape"></path><path fill="#b64ac9" d="M54.61,38.75c0,0-0.6-3.3-0.77-5.29c-0.11-1.35-0.21-3.24,0.16-4.6c0.11-0.39,0.33-0.52,0.53-0.73
				c0.13-0.13,0.27-0.27,0.44-0.3c0.27-0.04,0.44-0.22,0.68-0.24c1.27-0.11,2.05,0.92,2.8,3.91c1.23,4.97,2.26,7.2,2.43,7.98
				C60.86,39.47,56.84,39.69,54.61,38.75z" class="colorb64ac9 svgShape"></path><path fill="#bf52d8" d="M50.47,29.47c0,0-0.57,6.88-0.18,6.88c0.57,0,1.14,0.34,2.15-0.73c1.26-1.34,4.01-4.97,4.01-4.97
				c0.16-0.22,0.55-1.3-0.42-1.99c-0.48-0.34-1.36-0.14-1.67,0.34l-2.6,4.59l0.14-4.18L50.47,29.47z" class="colorbf52d8 svgShape"></path><rect width="5.38" height=".34" x="41.62" y="36.03" fill="#93a8b3" class="color93a8b3 svgShape"></rect><path fill="#d8e8ee" d="M43.85,36.37h-6.84l-0.65-4.24c0-0.33,0.27-0.61,0.61-0.61h5.63c0.33,0,0.61,0.27,0.61,0.61L43.85,36.37z
					" class="colord8e8ee svgShape"></path><path fill="#93a8b3" d="M40.29,33.94c0-0.19-0.16-0.35-0.35-0.35c-0.19,0-0.35,0.16-0.35,0.35c0,0.19,0.16,0.35,0.35,0.35
					C40.14,34.3,40.29,34.14,40.29,33.94z" class="color93a8b3 svgShape"></path><path fill="#4e6869" d="M50.91 52.52c0 0-.93.04-1.51-.12v.57c0 0 .9.31 1.41.08L50.91 52.52zM46.56 52.61c0 0-.82.05-1.4-.15l-.14.6c0 0 .6.25 1.3.04L46.56 52.61z" class="color4e6869 svgShape"></path><path fill="#ffbfbf" d="M55.87,27.58c0,0-0.77,0.25-1.2,0.76c-0.28,0.32-0.77,0.98-0.77,0.98s0.09-0.92,0.7-1.44
				C55.19,27.34,55.87,27.58,55.87,27.58z" class="colorffbfbf svgShape"></path><path fill="#001b32" d="M54.98,22.39c-0.18-0.18-0.54-0.58-1.09-0.28c-0.54,0.3-0.81,0.07-1.2,0.54
				c-0.46,0.56-0.48,1.21,0.44,1.33c0.65,0.09,0.87,0.67,1.48,0.85c1.06,0.3,0.27,2.13,0.62,1.77c0.35-0.35,0.64-0.43,0.79-1.43
				c0.08-0.5,0.28-1.13,0.01-1.67c-0.32-0.63-0.17-0.49-0.41-0.76C55.39,22.49,55.12,22.53,54.98,22.39z" class="color001b32 svgShape"></path><path fill="#ffbfbf" d="M55.06,25.19c0,0,0.17-0.32,0.39-0.18c0.21,0.13-0.18,1.15-0.33,0.99C54.97,25.83,55.06,25.19,55.06,25.19
				z" class="colorffbfbf svgShape"></path><g fill="none"><polygon fill="#7e4b2e" points="51.19 54.68 52.08 54.68 47.51 36.83 46.62 37.04" class="color7e4b2e svgShape"></polygon><polygon fill="#6d4127" points="9.01 54.68 8.45 54.68 13.02 36.83 13.58 37.04" class="color6d4127 svgShape"></polygon><polygon fill="#5a341f" points="40.79 54.68 41.68 54.68 37.11 36.83 36.22 37.04" class="color5a341f svgShape"></polygon><polygon fill="#6d4127" points="41.19 54.68 41.82 54.68 37.25 36.83 36.62 37.04" class="color6d4127 svgShape"></polygon><polygon fill="#5a341f" points="8.61 54.68 7.99 54.68 12.56 36.83 13.19 37.04 13.13 37.28 23.14 37.28 23.25 36.83 23.88 37.04 19.31 54.68 18.68 54.68 22.52 39.88 12.49 39.88" class="color5a341f svgShape"></polygon><polygon fill="#5a341f" points="12.47 37.19 13.15 37.19 13.13 37.28 23.14 37.28 23.17 37.19 23.85 37.19 23.69 37.81 12.32 37.81" opacity=".35" class="color5a341f svgShape"></polygon><rect width="22.2" height=".63" x="9.6" y="36.83" fill="#5a341f" transform="rotate(-180 20.704 37.139)" class="color5a341f svgShape"></rect><rect width="22.2" height=".64" x="9.6" y="36.37" fill="#6d4127" transform="rotate(-180 20.704 36.691)" class="color6d4127 svgShape"></rect><polygon fill="#985d3a" points="19.71 54.68 19.12 54.68 23.69 36.83 23.96 36.93 23.99 36.83 47.12 36.83 47.16 36.99 47.64 36.83 52.21 54.68 51.59 54.68 47.71 39.88 23.58 39.88" class="color985d3a svgShape"></polygon><polygon fill="#7e4b2e" points="47.88 37.81 23.45 37.81 23.6 37.19 47.73 37.19" opacity=".35" class="color7e4b2e svgShape"></polygon><rect width="32.92" height=".63" x="19.29" y="36.83" fill="#7e4b2e" class="color7e4b2e svgShape"></rect><rect width="32.92" height=".64" x="19.29" y="36.37" fill="#985d3a" class="color985d3a svgShape"></rect></g><g fill="none"><rect width=".56" height="9.98" x="3.09" y="34.24" fill="#004668" class="color004668 svgShape"></rect><path fill="#eb4b6e" d="M4.43,38.8h-0.3C3.51,38.8,3,38.29,3,37.67v-3.61c0-0.63,0.51-1.13,1.13-1.13h0.3V38.8z" class="coloreb4b6e svgShape"></path><rect width=".85" height="11.56" x="7.08" y="43.38" fill="#004668" class="color004668 svgShape"></rect><path fill="#ff6582" d="M4.63,38.8H4.45c-0.19,0-0.34-0.15-0.34-0.34v-5.19c0-0.19,0.15-0.34,0.34-0.34h0.18
				c0.19,0,0.34,0.15,0.34,0.34v5.19C4.97,38.65,4.82,38.8,4.63,38.8z" class="colorff6582 svgShape"></path><path fill="#eb4b6e" d="M11.76,44.75H3.77c-0.38,0-0.69-0.31-0.69-0.69V43.7c0-0.38,0.31-0.69,0.69-0.69h7.99
				c0.38,0,0.69,0.31,0.69,0.69v0.36C12.45,44.45,12.14,44.75,11.76,44.75z" class="coloreb4b6e svgShape"></path><path fill="#ff6582" d="M12.53,44.75H5.2c-0.38,0-0.69-0.31-0.69-0.69V43.7c0-0.38,0.31-0.69,0.69-0.69h7.33
				c0.38,0,0.69,0.31,0.69,0.69v0.36C13.22,44.45,12.91,44.75,12.53,44.75z" class="colorff6582 svgShape"></path><rect width="7.33" height=".7" x="3.84" y="54.24" fill="#004668" class="color004668 svgShape"></rect></g><g fill="none"><path fill="#ffbfbf" d="M9.86,29.31c0.13-0.94,0.74-4.17,0.74-4.2l-1.82-0.34c-0.03,0.13-1.01,2.99-1.15,3.98L9.86,29.31z" class="colorffbfbf svgShape"></path><path fill="#ffbfbf" d="M8.51,25.6c0.01,0.02-0.03,0.08-0.03,0.1c0,0,0.34,0.49,0.88,0.89c0.06,0.04,0.12,0.08,0.19,0.12
				c0.23,0.12,0.45,0.24,0.71,0.3c0.16-0.87,0.35-1.64,0.35-1.65l-1.91-0.58C8.68,24.81,8.65,25.16,8.51,25.6z" opacity=".54" class="colorffbfbf svgShape"></path><path fill="#ffbfbf" d="M8.55,25.36c-0.3-0.76-0.19-2.34-0.06-2.68c0.02-0.05,0.04-0.1,0.07-0.14c0.25-0.44,1.09-1.41,2.15-1.06
				c0.16,0.06,0.29,0.12,0.41,0.19c0.81,0.51,0.9,1.53,0.89,2.15c-0.01,0.13-0.02,0.26-0.03,0.4c-0.08,0.7-0.33,1.6-0.61,2
				c0,0-0.01,0.01-0.01,0.01c-0.34,0.47-1.19,0.29-1.81-0.02c-0.06-0.04-0.13-0.08-0.19-0.12C8.82,25.69,8.55,25.36,8.55,25.36z" class="colorffbfbf svgShape"></path><path fill="#d8e8ee" d="M19.09,36.37h8.4l0.8-5.21c0-0.41-0.33-0.74-0.74-0.74h-6.91c-0.41,0-0.74,0.33-0.74,0.74L19.09,36.37z" class="colord8e8ee svgShape"></path><path fill="#485056" d="M19.37,36.26h7.89l0.75-4.9c0.03-0.46-0.31-0.7-0.7-0.7h-6.49c-0.39,0-0.63,0.28-0.7,0.7L19.37,36.26z" class="color485056 svgShape"></path><polygon fill="#93a8b3" points="15.22 35.95 27.55 35.95 27.49 36.37 15.22 36.37" class="color93a8b3 svgShape"></polygon><path fill="#010000" d="M17.24 53.02l.92-.67.24.66c0 0 1.38.63 1.97.69.61.06.66.68.59.84-.06.16-.72.23-1.59.11-.87-.13-1.44-.46-1.44-.46v.12c0 0-.52-.01-.81-.22C17.12 54.09 17.07 53.14 17.24 53.02zM21.68 49.65l.56-.99.5.5c0 0 1.52 0 2.08-.2.58-.2.88.35.89.51.01.17-.56.51-1.4.76-.84.25-1.5.18-1.5.18l.05.11c0 0-.47.2-.83.13C22.03 50.67 21.58 49.83 21.68 49.65z" class="color010000 svgShape"></path><path fill="#004668" d="M4.53,38.8c0,0-0.04,0.47-0.04,2.13c0,1.25,1.3,1.95,2.58,2.06c1.91,0.17,6.55,0.36,6.76,0.83
				c0.09,0.2,0.3,1.88,0.95,3.72c0.85,2.41,2.38,5.35,2.38,5.35s0.51,0.33,1.23,0.14l-1.99-11c0,0-0.15-0.81-1.25-1.33
				c-1.33-0.62-7.92-1.28-8.15-2.18C6.77,37.61,4.53,38.8,4.53,38.8z" class="color004668 svgShape"></path><path fill="#005b7c" d="M7.97,39.2l2.82-0.45c0,0,4.93-0.72,5.5-0.29c0.57,0.43,6.37,10.58,6.37,10.58l-1.02,0.64
				c0,0-4.57-3.97-6.2-6.87c0,0-1.07-2.2-4.2-2.99L7.97,39.2z" class="color005b7c svgShape"></path><path fill="#ffbfbf" d="M7.98,29.19l4.7,5.36l0.04,0.05c0.23,0.31,0.65,0.4,0.98,0.22l6.76-3.22c0.16-0.09,0.22-0.28,0.13-0.44
				c-0.08-0.14-0.25-0.21-0.4-0.15l-7.17,2.28l1.01,0.27l-4.7-5.36c-0.28-0.37-0.8-0.45-1.17-0.17C7.78,28.3,7.71,28.82,7.98,29.19z
				" class="colorffbfbf svgShape"></path><path fill="#ffbfbf" d="M19.46,31.47c0,0-0.18,0.01-0.01-0.09c0.04-0.14,0.14-0.24,0.14-0.24l0.12-0.16c0,0,1.15-1.31,1.35-1.15
				c0.16,0.13-0.65,0.9-0.09,0.79c0,0,0.85-0.42,1.28-0.65c0.43-0.23,0.35,0.97-1.45,1.63c-0.13,0.05-0.52,0.15-0.86,0.19
				c-0.18,0.02-0.37,0.09-0.55,0.17C19.21,32.04,19.46,31.47,19.46,31.47z" class="colorffbfbf svgShape"></path><path fill="#89abd0" d="M9.45,27.75c-0.39-0.36-1.08-0.1-1.44,0.29c-0.33,0.36-0.5,0.97,0.16,1.93c1.31,1.91,4.34,5.48,5.57,5.1
				c1.23-0.37,5.91-2.93,5.91-2.93l-0.34-0.87l-5.58,1.37C13.74,32.63,10.92,29.09,9.45,27.75z" class="color89abd0 svgShape"></path><polygon fill="#7a9ec8" points="19.32 31.26 19.66 32.14 19.09 32.45 18.67 31.42" class="color7a9ec8 svgShape"></polygon><path fill="#84c0ea" d="M9.2,28.08c0,0,0.25,3.01,0.08,4.84c-0.17,1.83-0.06,5.63,0.15,6.05l-0.46,0.04c0,0-0.09-2.54,0-6.03
				c0.09-3.49-0.3-4.89-0.3-4.89l0.3-0.12L9.2,28.08z" class="color84c0ea svgShape"></path><path fill="#97b5dd" d="M9.73,27.33l0.59,0.41c0,0-0.04,0.29-0.26,0.49C9.78,28.5,9.4,28.68,9.4,28.68l-0.42-0.71
				C8.98,27.97,9.63,27.74,9.73,27.33z" class="color97b5dd svgShape"></path><path fill="#d5e2ee" d="M10.79,38.75c0,0-0.48-3.3-0.31-5.29c0.17-1.99,0.59-5.92-0.76-6.13c-1.76-0.28-2.28-0.52-3.6,2.88
				c-1.02,2.65-1.66,8.6-1.82,9.37C4.31,39.58,8.56,39.69,10.79,38.75z" class="colord5e2ee svgShape"></path><path fill="#97b5dd" d="M18.5,35.78c0,0-7.05,0.25-7.28-0.08l-0.06-0.08l-4.01-5.33c-0.16-0.22-0.55-1.3,0.42-1.99
				c0.48-0.34,1.36-0.14,1.67,0.34l3.55,5.01l6.03,1.2L18.5,35.78z" class="color97b5dd svgShape"></path><path fill="#ffbfbf" d="M18.76,35.02c0,0,0.69,0.04,0.99-0.07c0.3-0.11,0.91-0.24,1.17-0.19c0.26,0.05,1.46,0.65,1.28,0.8
				c-0.18,0.15-0.39-0.05-0.39-0.05s0.29,0.13,0.1,0.2c-0.19,0.08-0.36-0.06-0.36-0.06s0.29,0.05,0.15,0.17
				c-0.15,0.13-0.65-0.16-0.82-0.18c0,0,0.37,0.11,0.34,0.28c-0.03,0.17-0.36-0.12-0.56-0.06c-0.19,0.06-0.58,0.09-1.09,0.05
				c-0.51-0.04-1.23-0.24-1.23-0.24L18.76,35.02z" class="colorffbfbf svgShape"></path><path fill="#97b5dd" d="M10.34,27.26L10.36,28c0,0-1.57-0.04-2.69-0.64l0.42-0.56C8.09,26.79,9.17,27.46,10.34,27.26z" class="color97b5dd svgShape"></path><polygon fill="#7a9ec8" points="18.82 34.85 18.5 35.78 17.86 35.78 18.18 34.72" class="color7a9ec8 svgShape"></polygon><path fill="#013049" d="M11.17,22.8c0,0,0.16,0.05,0.63,0.27s0.7-0.59,0.45-0.91c-0.26-0.32-0.5-0.18-0.66-0.42
				c-0.16-0.24-0.36-0.57-0.98-0.46c-0.62,0.11-1.2,0.16-1.42,0.19c-0.22,0.02-1.27,0.2-1.29,1.61c0,0,0.03,0.61,0.29,1.52
				c0.26,0.91,0.31,0.99,0.55,0.75c0,0,0.15-0.38-0.06-0.87c-0.22-0.49-0.16-0.95,0.2-0.81c0.36,0.14,0.31,0.67,0.56,0.45
				c0.24-0.22,0-0.55,0.1-1.01C9.64,22.64,10.6,22.64,11.17,22.8z" class="color013049 svgShape"></path></g></g></svg>