<svg xmlns="http://www.w3.org/2000/svg" xmlns:xlink="http://www.w3.org/1999/xlink" enable-background="new 0 0 64 64" viewBox="0 0 64 64" width="256" height="256"><rect width="9.43" height="27.24" x="5.71" y=".4" fill="#00ceee" class="color00ceee svgShape"></rect><rect width="9.43" height="27.24" x="15.93" y=".4" fill="#00ceee" class="color00ceee svgShape"></rect><rect width="9.43" height="27.24" x="26.15" y=".4" fill="#00ceee" class="color00ceee svgShape"></rect><rect width="6.42" height="12.94" x="6.91" y="14.3" fill="#00b5d0" class="color00b5d0 svgShape"></rect><rect width="8.51" height="17.72" x="12.38" y="9.52" fill="#00b5d0" class="color00b5d0 svgShape"></rect><rect width="7.42" height="9.25" x="24.14" y="17.99" fill="#00b5d0" class="color00b5d0 svgShape"></rect><rect width="2.89" height="6.47" x="32.76" y="20.77" fill="#00b5d0" class="color00b5d0 svgShape"></rect><polygon fill="#ffffff" points="15.14 1 15.14 6.76 5.71 16.19 5.71 10.43" opacity=".55" class="colorfff svgShape"></polygon><polygon fill="#ffffff" points="15.14 13.14 15.14 16.77 5.71 26.2 5.71 22.57" opacity=".55" class="colorfff svgShape"></polygon><polygon fill="#ffffff" points="25.36 1 25.36 6.76 15.93 16.19 15.93 10.43" opacity=".55" class="colorfff svgShape"></polygon><polygon fill="#ffffff" points="25.36 13.14 25.36 16.77 15.93 26.2 15.93 22.57" opacity=".55" class="colorfff svgShape"></polygon><polygon fill="#ffffff" points="35.58 1 35.58 6.76 26.15 16.19 26.15 10.43" opacity=".55" class="colorfff svgShape"></polygon><polygon fill="#ffffff" points="35.58 13.14 35.58 16.77 26.15 26.2 26.15 22.57" opacity=".55" class="colorfff svgShape"></polygon><rect width=".8" height="28.04" x="35.65" fill="#d1d6ce" class="colord1d6ce svgShape"></rect><rect width=".8" height="28.04" x="25.65" fill="#d1d6ce" class="colord1d6ce svgShape"></rect><rect width=".5" height="27" x="35.15" y=".24" fill="#a2a7a0" transform="rotate(-180 35.402 13.74)" class="colora2a7a0 svgShape"></rect><rect width=".51" height="27" x="25.14" y=".8" fill="#a2a7a0" transform="rotate(-180 25.396 14.302)" class="colora2a7a0 svgShape"></rect><rect width=".5" height="27" x="15.14" y=".8" fill="#a2a7a0" transform="rotate(-180 15.39 14.302)" class="colora2a7a0 svgShape"></rect><rect width=".8" height="28.04" x="15.64" fill="#d1d6ce" class="colord1d6ce svgShape"></rect><path fill="#d1d6ce" d="M36.46,28.04H5.31V0h31.15V28.04z M6.11,27.24h29.54V0.8H6.11V27.24z" class="colord1d6ce svgShape"></path><path fill="#21222b" d="M43.62,56.4v2.18c0,0.1-0.07,0.15-0.1,0.16c-0.06,0.03-0.14,0.02-0.2-0.03l-0.89-0.77
			c-0.04-0.03-0.06-0.08-0.06-0.14v-0.35c0.23-0.26,0.26-0.6,0.22-0.96C42.92,56.46,43.26,56.43,43.62,56.4z" class="color21222b svgShape"></path><path fill="#3d3f4f" d="M51.49,41.29v16.52c0,0.16,0.07,0.31,0.19,0.41l0.9,0.77c0.1,0.08,0.23,0.13,0.35,0.13
						c0.08,0,0.15-0.02,0.23-0.05c0.19-0.09,0.31-0.28,0.31-0.49V41.29H51.49z M53.11,58.58c0,0.11-0.08,0.15-0.11,0.16
						c-0.02,0.02-0.12,0.04-0.19-0.03l-0.9-0.77c-0.04-0.03-0.06-0.08-0.06-0.14V41.65h1.26V58.58z" class="color3d3f4f svgShape"></path><path fill="#21222b" d="M53.11,57.03v1.55c0,0.11-0.08,0.15-0.11,0.16c-0.02,0.02-0.12,0.04-0.19-0.03l-0.9-0.77
						c-0.04-0.03-0.06-0.08-0.06-0.14v-1.06C52.31,56.84,52.73,56.93,53.11,57.03z" class="color21222b svgShape"></path><path fill="#21222b" d="M53.11,43.7v13.34c-0.39-0.1-0.81-0.2-1.26-0.28V43.7H53.11z" class="color21222b svgShape"></path><path fill="#3d3f4f" d="M42,41.29v16.52c0,0.07,0.01,0.14,0.04,0.2v0c0.03,0.08,0.08,0.15,0.15,0.21L43.08,59
						c0.1,0.08,0.23,0.13,0.35,0.13c0.08,0,0.16-0.02,0.23-0.05c0.19-0.09,0.31-0.28,0.31-0.49v-2.21
						c-0.12,0.01-0.24,0.02-0.36,0.03v2.18c0,0.1-0.07,0.15-0.1,0.16c-0.06,0.03-0.14,0.02-0.2-0.03l-0.89-0.77
						c-0.04-0.03-0.06-0.08-0.06-0.14V41.65h1.26v2.62c0.01,0,0.02-0.01,0.03-0.01c0.11-0.04,0.22-0.08,0.33-0.12v-2.85H42z
						 M42.31,43.7c-0.07,0.19-0.12,0.39-0.14,0.6c-0.02,0.18-0.01,0.36,0.01,0.54c0.03,0.3,0.11,0.61,0.18,0.91v-2.17
						C42.34,43.61,42.33,43.65,42.31,43.7z" class="color3d3f4f svgShape"></path><path d="M43.98,44.14v12.23c-0.12,0.01-0.24,0.02-0.36,0.03c-0.35,0.03-0.7,0.06-1.04,0.1c-0.04-0.34-0.14-0.7-0.2-1.03
						c-0.01-0.03-0.01-0.06-0.02-0.09v-1.41c0.05-0.54,0.12-1.09,0.09-1.63c-0.01-0.24-0.05-0.47-0.09-0.7v-3.93
						c0.08-0.39,0.14-0.78,0.12-1.18c-0.01-0.27-0.06-0.53-0.12-0.79v-0.98c0.42-0.18,0.85-0.34,1.26-0.49
						c0.01,0,0.02-0.01,0.03-0.01C43.76,44.22,43.87,44.18,43.98,44.14z" fill="#000000" class="color000 svgShape"></path><path fill="#933b00" d="M54.98,35.99v7.34c0,0.2-0.17,0.37-0.37,0.37h-13.7c-0.2,0-0.37-0.17-0.37-0.37v-7.34
						c0-0.15,0.12-0.28,0.28-0.28h6.85c0,0,0,0,0,0h7.04C54.86,35.71,54.98,35.83,54.98,35.99z" class="color933b00 svgShape"></path><path fill="#722e00" d="M44.29,40.69h6.93c1.3,0,2.35-1.05,2.35-2.35v-0.87c0-0.97-0.79-1.76-1.76-1.76h-8.1
						c-0.97,0-1.76,0.79-1.76,1.76v0.87C41.95,39.64,43,40.69,44.29,40.69z" class="color722e00 svgShape"></path><g><path fill="#d67000" d="M44.66,13.91c-0.33-0.17-0.63-0.44-0.75-0.79c-0.06-0.17-0.07-0.35-0.06-0.53c0.05-0.6,0.45-1.16,1-1.42
						c0.54-0.27,1.21-0.25,1.76,0c0.23,0.11,0.45,0.26,0.67,0.39c0.37,0.21,0.76,0.37,1.17,0.46c0.46,0.11,0.98,0.15,1.31,0.5
						c0.22,0.23,0.3,0.56,0.29,0.88c-0.02,0.5-0.23,1.03-0.37,1.5c-0.16,0.56-0.34,1.12-0.56,1.66c-0.15,0.37-0.36,0.79-0.75,0.89
						c-0.33,0.08-0.63-0.1-0.79-0.38c-0.25-0.45-0.32-0.97-0.53-1.44c-0.21-0.46-0.55-0.85-0.96-1.13
						C45.64,14.2,45.13,14.15,44.66,13.91z" class="colord67000 svgShape"></path><path fill="#bc5e00" d="M43.89,12.92c0.13,0.07,0.26,0.14,0.38,0.23c0.11,0.08,0.2,0.18,0.31,0.26
						c0.17,0.12,0.37,0.15,0.57,0.12c0.17-0.02,0.28-0.07,0.46,0c0.12,0.05,0.22,0.11,0.35,0.11c0.17,0.01,0.35-0.04,0.52-0.08
						c0.18-0.04,0.37-0.07,0.55-0.09c0.3-0.04,0.71-0.12,0.94,0.13c0.17,0.2,0.31,0.3,0.58,0.3c0.2,0,0.35,0.04,0.52,0.15
						c0.09,0.05,0.17,0.11,0.27,0.13c0.33,0.05,0.53-0.31,0.69-0.61c-0.05,0.44-0.23,0.9-0.34,1.32c-0.16,0.56-0.34,1.12-0.56,1.66
						c-0.15,0.37-0.36,0.79-0.75,0.89c-0.33,0.08-0.63-0.1-0.79-0.38c-0.25-0.45-0.32-0.97-0.53-1.44
						c-0.21-0.46-0.55-0.85-0.96-1.13c-0.45-0.3-0.95-0.34-1.43-0.59c-0.33-0.17-0.63-0.44-0.75-0.79
						c-0.02-0.07-0.04-0.14-0.05-0.21C43.88,12.91,43.88,12.92,43.89,12.92z" class="colorbc5e00 svgShape"></path><path fill="#9e6161" d="M48.36,36.73c-0.03,0.04-0.06,0.09-0.09,0.13c-0.03,0.03-0.05,0.06-0.08,0.1
						c-0.14,0.17-0.28,0.35-0.43,0.51c-0.98,1.12-2.09,2.12-3.13,3.18c-0.01,0.01-0.02,0.02-0.04,0.04
						c-0.21,0.21-0.42,0.43-0.62,0.65c-0.06,0.07-0.12,0.13-0.18,0.2c0,0,0,0,0,0c-0.06,0.07-0.12,0.13-0.18,0.2
						c-0.01,0.01-0.01,0.01-0.02,0.02c-0.07,0.07-0.13,0.15-0.19,0.23c0,0-0.01,0.01-0.01,0.01c-0.06,0.08-0.13,0.15-0.19,0.23
						c-0.06,0.08-0.13,0.16-0.19,0.24c-0.26,0.34-0.5,0.7-0.66,1.09c-0.02,0.04-0.03,0.08-0.05,0.12c-0.07,0.19-0.12,0.39-0.14,0.6
						c-0.02,0.18-0.01,0.36,0.01,0.54c0.03,0.3,0.11,0.61,0.18,0.91c0.06,0.26,0.11,0.53,0.12,0.79c0.02,0.4-0.04,0.79-0.12,1.18
						c-0.13,0.61-0.31,1.21-0.32,1.83c-0.02,0.71,0.19,1.41,0.32,2.11c0.04,0.23,0.08,0.47,0.09,0.7c0.03,0.54-0.04,1.09-0.09,1.63
						c-0.04,0.47-0.07,0.94,0,1.41c0.01,0.03,0.01,0.06,0.02,0.09c0.06,0.33,0.16,0.69,0.2,1.03c0.04,0.36,0.01,0.71-0.22,0.96
						c-0.02,0.02-0.03,0.03-0.05,0.05c-0.07,0.07-0.16,0.12-0.25,0.16c0,0,0,0,0,0c-0.02,0.01-0.04,0.02-0.06,0.02
						c-0.16,0.06-0.33,0.09-0.5,0.1c-0.01,0-0.03,0-0.04,0c-0.05,0-0.1,0.01-0.15,0.01h-0.06c-0.05,0-0.1,0-0.15,0
						c-0.02,0-0.05,0-0.07,0c-0.05,0-0.1-0.01-0.14-0.02c-0.03,0-0.06-0.01-0.09-0.01c-0.03-0.01-0.06-0.01-0.09-0.02
						c-0.05-0.01-0.11-0.02-0.16-0.04c-0.03-0.01-0.07-0.02-0.1-0.03c-0.37-0.12-0.7-0.33-0.89-0.65c-0.05-0.08-0.09-0.16-0.12-0.26
						c-0.13-0.39-0.05-0.83-0.13-1.23c-0.13-0.69-0.69-1.22-0.95-1.88c-0.22-0.55-0.22-1.16-0.26-1.76
						c-0.05-0.71-0.18-1.42-0.33-2.12c-0.01-0.05-0.02-0.1-0.03-0.15c-0.02-0.1-0.04-0.2-0.07-0.3c-0.04-0.2-0.09-0.39-0.14-0.58
						c-0.04-0.15-0.07-0.31-0.11-0.46c-0.11-0.46-0.21-0.92-0.29-1.39c-0.01-0.07-0.03-0.14-0.04-0.22
						c-0.01-0.07-0.02-0.13-0.03-0.2c-0.01-0.08-0.02-0.16-0.03-0.23c-0.01-0.05-0.01-0.11-0.02-0.16c0-0.03-0.01-0.06-0.01-0.08
						c0-0.02-0.01-0.04-0.01-0.07c0-0.04-0.01-0.08-0.01-0.12c-0.01-0.07-0.01-0.14-0.02-0.21c-0.01-0.09-0.01-0.17-0.02-0.26
						c0-0.06-0.01-0.13-0.01-0.19c0-0.07,0-0.15,0-0.22c0-0.18,0.01-0.35,0.02-0.53c0-0.08,0.01-0.15,0.02-0.23
						c0.01-0.07,0.01-0.14,0.02-0.2c0.14-1.14,0.53-2.22,1.07-3.23c0.66-1.24,1.54-2.38,2.46-3.44c0.01-0.01,0.01-0.01,0.02-0.02
						c0.1-0.11,0.2-0.23,0.31-0.34c0.21-0.23,0.43-0.44,0.68-0.63c0.13-0.1,0.26-0.18,0.4-0.26c0,0,0,0,0.01,0
						c0.34-0.18,0.72-0.29,1.1-0.36c0.26-0.05,0.52-0.07,0.78-0.1c0.94-0.08,1.88-0.1,2.82-0.05c0.19,0.01,0.52,0,0.86,0.02
						c0.25,0.02,0.51,0.05,0.71,0.13c0.07,0.03,0.13,0.06,0.18,0.09c0.06,0.04,0.11,0.1,0.15,0.16c0,0,0,0.01,0,0.01
						C48.65,36.22,48.52,36.5,48.36,36.73z" class="color9e6161 svgShape"></path><path fill="#704747" d="M44.64,40.65c-0.01,0.01-0.03,0.03-0.04,0.04c-0.21,0.22-0.42,0.44-0.62,0.66
						c-0.06,0.07-0.12,0.13-0.18,0.2c0,0,0,0,0,0c-0.06,0.07-0.12,0.14-0.18,0.2c-0.01,0.01-0.01,0.01-0.02,0.02
						c-0.06,0.08-0.13,0.15-0.19,0.23c0,0-0.01,0.01-0.01,0.01c-0.06,0.08-0.13,0.15-0.19,0.23c-0.06,0.08-0.13,0.16-0.19,0.24
						c-0.26,0.34-0.5,0.7-0.66,1.09c-0.02,0.04-0.03,0.08-0.05,0.12c-0.07,0.19-0.12,0.39-0.14,0.6c-0.02,0.18-0.01,0.36,0.01,0.54
						c0.03,0.3,0.11,0.61,0.18,0.91c0.06,0.26,0.11,0.53,0.12,0.79c0,0.07,0,0.14,0,0.21c-0.03,0.05-0.07,0.11-0.11,0.15
						c0,0-0.01,0.01-0.01,0.01c-0.11,0.12-0.23,0.22-0.36,0.31c-0.1,0.07-0.2,0.13-0.3,0.19c-0.44,0.25-0.95,0.44-1.29,0.83
						c-0.18,0.2-0.32,0.43-0.51,0.62c-0.26,0.26-0.58,0.36-0.93,0.4c-0.26,0.03-0.52,0.05-0.76,0.17c-0.17,0.09-0.32,0.22-0.43,0.37
						c-0.01-0.05-0.02-0.1-0.03-0.15c-0.02-0.1-0.04-0.2-0.07-0.3c-0.04-0.2-0.09-0.39-0.14-0.58c-0.04-0.15-0.07-0.31-0.11-0.46
						c-0.11-0.46-0.21-0.92-0.29-1.39c-0.01-0.07-0.03-0.14-0.04-0.22c-0.01-0.07-0.02-0.13-0.03-0.2
						c-0.01-0.08-0.02-0.16-0.03-0.23c-0.01-0.05-0.01-0.11-0.02-0.16c0-0.03-0.01-0.06-0.01-0.08c0-0.02-0.01-0.04-0.01-0.07
						c0-0.04-0.01-0.08-0.01-0.12c-0.01-0.07-0.01-0.14-0.02-0.21c-0.01-0.09-0.01-0.17-0.02-0.26c0-0.06-0.01-0.13-0.01-0.19
						c0-0.07,0-0.15,0-0.22c0-0.18,0.01-0.35,0.02-0.53c0-0.08,0.01-0.15,0.02-0.23c0.01-0.07,0.01-0.14,0.02-0.2
						c0.02-0.14,0.04-0.29,0.07-0.43c0.07-0.02,0.13-0.04,0.2-0.07c0.73-0.31,1.44-0.67,2.17-0.98c0.36-0.15,0.73-0.3,1.09-0.45
						c0.4-0.16,0.8-0.31,1.2-0.46c0.09-0.03,0.18-0.06,0.26-0.1c0.21-0.07,0.41-0.15,0.62-0.21c0.63-0.21,1.25-0.41,1.89-0.6
						C44.55,40.68,44.59,40.66,44.64,40.65C44.63,40.65,44.63,40.65,44.64,40.65z" class="color704747 svgShape"></path><path fill="#b56d6d" d="M52.81,38.47c0,0.05-0.01,0.11-0.02,0.16c0,0.01,0,0.02-0.01,0.02l0,0c-0.01,0.04-0.02,0.08-0.03,0.12
						c-0.01,0.02-0.01,0.05-0.02,0.07c-0.01,0.02-0.02,0.05-0.03,0.07c-0.01,0.04-0.03,0.07-0.05,0.11
						c-0.04,0.1-0.09,0.19-0.15,0.28c-0.03,0.04-0.05,0.09-0.08,0.13c-0.06,0.09-0.12,0.17-0.18,0.26
						c-0.27,0.35-0.61,0.68-0.99,0.99c-0.75,0.62-1.62,1.13-2.25,1.46c-1.2,0.64-2.48,1.1-3.77,1.55c-0.42,0.15-0.85,0.3-1.27,0.45
						c-0.11,0.04-0.22,0.08-0.33,0.12c-0.01,0-0.02,0.01-0.03,0.01c-0.41,0.15-0.83,0.31-1.26,0.49c-0.06,0.02-0.12,0.05-0.18,0.07
						c-0.06,0.03-0.12,0.05-0.18,0.08c-1.38,0.6-2.73,1.38-3.61,2.55c-0.03,0.04-0.06,0.07-0.08,0.11
						c-0.03,0.04-0.06,0.08-0.08,0.12c-0.09,0.14-0.18,0.27-0.27,0.41c-0.05,0.08-0.11,0.17-0.16,0.25
						c-0.09,0.13-0.17,0.27-0.26,0.41c-0.02,0.04-0.05,0.08-0.07,0.12c-0.06,0.1-0.13,0.2-0.19,0.3c-0.08,0.13-0.15,0.25-0.23,0.38
						c-0.07,0.12-0.14,0.24-0.21,0.37c0,0.01-0.01,0.01-0.01,0.02c-0.07,0.12-0.14,0.25-0.21,0.37c-0.06,0.12-0.13,0.23-0.19,0.35
						c-0.1,0.2-0.21,0.41-0.31,0.61c-0.03,0.05-0.05,0.11-0.08,0.16c-0.03,0.05-0.05,0.11-0.08,0.16c-0.02,0.05-0.05,0.11-0.07,0.16
						c-0.02,0.05-0.05,0.11-0.07,0.17c-0.05,0.11-0.09,0.22-0.14,0.33c-0.05,0.11-0.09,0.22-0.13,0.34
						c-0.02,0.06-0.04,0.11-0.06,0.17c-0.1,0.27-0.19,0.54-0.27,0.82c-0.02,0.06-0.03,0.12-0.05,0.18
						c-0.02,0.07-0.04,0.14-0.06,0.21c-0.15,0.59-0.27,1.2-0.6,1.71c-0.01,0.02-0.02,0.03-0.03,0.05c-0.01,0.02-0.03,0.04-0.04,0.06
						c-0.02,0.02-0.04,0.04-0.06,0.06c-0.03,0.03-0.06,0.07-0.1,0.1c-0.01,0.01-0.03,0.03-0.05,0.04c-0.02,0.01-0.03,0.03-0.05,0.04
						c-0.03,0.03-0.07,0.05-0.1,0.07c0,0,0,0,0,0c-0.03,0.02-0.06,0.04-0.09,0.05c-0.05,0.03-0.11,0.06-0.17,0.09
						c-0.03,0.01-0.05,0.02-0.08,0.04v0c-0.01,0-0.02,0.01-0.03,0.01c-0.16,0.07-0.33,0.12-0.5,0.15c-0.03,0.01-0.06,0.01-0.09,0.01
						c0,0,0,0-0.01,0c-0.02,0-0.04,0-0.06,0.01c-0.04,0-0.08,0.01-0.12,0.01c-0.04,0-0.08,0-0.13,0c0,0,0,0,0,0
						c-0.02,0-0.04,0-0.07,0c-0.02,0-0.04,0-0.07-0.01c-0.02,0-0.05-0.01-0.07-0.01c-0.02,0-0.04-0.01-0.06-0.01c0,0,0,0,0,0
						c0,0-0.01,0-0.01,0c0,0-0.01,0-0.01,0c-0.01,0-0.03-0.01-0.04-0.01c0,0-0.01,0-0.01,0c-0.02,0-0.04-0.01-0.05-0.01
						c-0.1-0.03-0.19-0.07-0.27-0.12c-0.01,0-0.01-0.01-0.02-0.01c-0.02-0.01-0.04-0.02-0.05-0.04c-0.03-0.02-0.07-0.05-0.1-0.08
						c-0.02-0.02-0.03-0.03-0.05-0.05c-0.01,0-0.01-0.01-0.01-0.01c-0.89-0.94-0.43-3.21,0.01-4.25c0.16-0.37,0.35-0.73,0.47-1.11
						c0.19-0.65,0.14-1.35,0.21-2.02c0.12-1.09,0.59-2.07,1.08-3.03c0.4-0.79,0.6-1.53,1.18-2.24c0.9-1.1,2.09-1.86,3.21-2.71
						c0.16-0.12,0.32-0.24,0.47-0.37c0.65-0.53,1.31-1.03,1.99-1.52c0.46-0.34,0.93-0.67,1.41-0.99c0.28-0.19,0.56-0.38,0.85-0.57
						c0.17-0.12,0.35-0.23,0.52-0.34c0.06-0.04,0.12-0.07,0.17-0.11c0.15-0.09,0.3-0.18,0.46-0.27c0.03-0.02,0.06-0.03,0.09-0.05
						c0.04-0.02,0.07-0.04,0.11-0.06c0.22-0.12,0.44-0.23,0.66-0.32c0.04-0.02,0.07-0.03,0.11-0.05c0.03-0.01,0.06-0.03,0.09-0.04
						c0.04-0.02,0.09-0.03,0.13-0.05c0.01,0,0.02-0.01,0.02-0.01c0.04-0.02,0.09-0.03,0.13-0.05c0.06-0.02,0.12-0.04,0.18-0.06
						l0.06-0.02c0.03-0.01,0.07-0.02,0.1-0.03c0.07-0.02,0.15-0.04,0.23-0.06c0.06-0.01,0.12-0.03,0.17-0.04
						c0.06-0.01,0.12-0.03,0.18-0.04h0c0.19-0.03,0.39-0.06,0.58-0.07c0.05,0,0.1-0.01,0.14-0.01c0.05,0,0.1,0,0.14,0
						c0.05,0,0.11,0,0.16,0c0.03,0,0.05,0,0.08,0c0.04,0,0.08,0,0.12,0.01c0.04,0,0.08,0.01,0.12,0.01c0,0,0,0,0,0
						c0.01,0,0.02,0,0.03,0c0.05,0.01,0.1,0.01,0.15,0.02c0.06,0.01,0.11,0.02,0.17,0.03c0.01,0,0.01,0,0.02,0
						c0.14,0.02,0.28,0.06,0.42,0.09c0.14,0.04,0.29,0.08,0.44,0.14c0,0,0.01,0,0.01,0c0.04,0.02,0.1,0.03,0.15,0.05
						c0.02,0.01,0.04,0.01,0.06,0.02c0.14,0.05,0.31,0.11,0.5,0.18c0.02,0.01,0.05,0.02,0.07,0.03c0.03,0.01,0.06,0.02,0.09,0.03
						c0.15,0.06,0.3,0.12,0.46,0.18c0.05,0.02,0.11,0.04,0.17,0.07c0.02,0.01,0.04,0.02,0.05,0.02c0.19,0.08,0.39,0.17,0.59,0.26
						c0.07,0.03,0.13,0.06,0.2,0.1c0.05,0.02,0.1,0.05,0.15,0.08c0,0,0.01,0,0.01,0.01c0.04,0.02,0.09,0.05,0.13,0.07
						c0.05,0.03,0.09,0.05,0.14,0.08c0.26,0.15,0.49,0.31,0.69,0.47c0.02,0.01,0.03,0.03,0.05,0.04c0.03,0.03,0.07,0.06,0.1,0.09
						c0.03,0.03,0.05,0.05,0.07,0.08c0.01,0.01,0.03,0.03,0.04,0.04c0.01,0.01,0.02,0.03,0.04,0.04c0.04,0.05,0.07,0.1,0.1,0.15
						c0.01,0.02,0.02,0.04,0.03,0.05c0.03,0.05,0.05,0.1,0.07,0.16c0,0.01,0.01,0.03,0.01,0.04c0,0.01,0,0.02,0.01,0.03
						c0,0.02,0.01,0.04,0.01,0.05c0,0.02,0.01,0.04,0.01,0.06C52.81,38.43,52.81,38.45,52.81,38.47z" class="colorb56d6d svgShape"></path><path fill="#9e6161" d="M32.98 54.37c.13-.34.16-.72.27-1.07.11-.37.31-.68.59-.95.32-.3.67-.53.94-.87.23-.29.43-.61.63-.92.5-.78 1.11-1.45 1.81-2.07.39-.35.79-.68 1.18-1.03-.06.08-.12.16-.17.24-1.3 1.95-2.52 4.01-3.11 6.3-.15.59-.27 1.2-.6 1.71-.48.73-1.89 1.14-2.58.44C32.11 55.5 32.75 54.98 32.98 54.37zM50.82 38.5c-.6-.35-1.33-.37-1.98-.58-.35-.12-.67-.28-1.01-.42-.32-.13-.63-.24-.96-.34-.63-.19-1.28-.29-1.93-.3-.48-.01-.97.02-1.45-.01 1.67-1.02 3.34-1.62 5.34-.91.95.34 4.26 1.41 3.97 2.69-.08.37-.28.73-.54 1.07C51.77 39.3 51.36 38.81 50.82 38.5z" class="color9e6161 svgShape"></path><path fill="#ef8f8f" d="M48.48,19.68c-0.47,0.28-1.19,0.38-1.57,0.38c-0.23,0-0.41-0.03-0.58-0.09
						c-0.41-0.15-0.66-0.42-0.74-0.51c-0.06-0.07-0.1-0.12-0.13-0.17c0.13-0.58,0.29-1.06,0.42-1.42c0.23-0.63,0.27-1.01,0.55-1.2
						c0.4-0.27,0.78-0.57,1.12-0.92c0.16-0.16,0.5-0.65,0.61-0.16c0.25,1.05,0.49,2.09,0.74,3.14c0.03,0.14,0.06,0.28,0.03,0.42
						C48.87,19.38,48.71,19.55,48.48,19.68z" class="coloref8f8f svgShape"></path><path fill="#dd6b6b" d="M47.99,16.55c-0.09,0.19-0.22,0.36-0.33,0.54c-0.11,0.19-0.19,0.39-0.3,0.57
						c-0.15,0.24-0.36,0.41-0.61,0.55c-0.18,0.1-0.37,0.19-0.52,0.32c-0.24,0.21-0.48,0.4-0.73,0.57c0.12-0.49,0.25-0.91,0.37-1.23
						c0.23-0.63,0.27-1.01,0.55-1.2c0.4-0.27,0.78-0.57,1.12-0.92c0.14-0.14,0.43-0.54,0.57-0.28
						C48.14,15.84,48.15,16.21,47.99,16.55z" class="colordd6b6b svgShape"></path><path fill="#75b9d5" d="M44.6,20.34c0.18-0.01,0.36-0.01,0.54-0.02c0.21-0.11,0.49-0.22,0.83-0.3c0.43-0.1,0.81-0.12,1.09-0.1
						c0.14,0.01,0.28,0.11,0.42,0.13c0.18,0.03,0.39-0.01,0.58-0.01c0.39-0.01,0.83-0.08,1.28,0.01c0.17,0.04,0.31,0.09,0.39,0.12
						c0.56,0.12,1.12,0.25,1.69,0.38c0.35,0.08,0.69,0.16,1.04,0.24c-0.06,0.27-0.09,0.49-0.12,0.61c-0.79,4.62,0.22,8.68,1.5,13.78
						v0c0.1,1.19,0.14,2.53-0.67,3.39c-0.05,0.05-0.11,0.11-0.18,0.12c-0.12,0.03-0.24-0.07-0.33-0.15c-1.3-1.17-3.1-1.57-4.82-1.93
						c-0.52-0.11-1.05-0.22-1.59-0.22c-0.59,0-1.17,0.12-1.75,0.16c-0.93,0.07-1.86-0.06-2.78-0.18c-0.08-0.01-0.17-0.02-0.23-0.08
						c-0.07-0.07-0.08-0.19-0.07-0.3c0.05-1.24,0.16-2.48,0.13-3.73c-0.04-1.62-0.31-3.24-0.18-4.86c0.14-1.62,0.64-2.2,0.84-4.39
						c0.07-0.8,0.08-1.45,0.08-1.88c0.34-0.07,0.73-0.17,1.14-0.32C43.88,20.68,44.27,20.51,44.6,20.34z" class="color75b9d5 svgShape"></path><path fill="#41a9c9" d="M41.55 32.27c-.04-1.62-.31-3.24-.18-4.86.14-1.62.64-2.2.84-4.39v0c.14.14.27.31.36.43.25.34.36.67.4 1.09.05.53-.02 1.05.01 1.58.02.53.12 1.05.26 1.56.15.55.28 1.31.79 1.66.22.16.49.22.76.24.49.05.97.1 1.44.22.91.23 1.79.58 2.71.79.36.09.73.15 1.11.19.24.02.52.04.75-.05.61-.24.25-1.1.16-1.54-.09-.45-.16-.92-.14-1.38.01-.24.05-.47.04-.71-.01-.2-.04-.41-.08-.61-.09-.48-.19-.96-.11-1.45.07-.42.26-.81.49-1.17.24-.36.52-.69.8-1.01.08-.09.15-.18.23-.27-.45 4.14.49 7.94 1.66 12.6v0c.1 1.19.14 2.53-.67 3.39-.05.05-.11.11-.18.12-.12.03-.24-.07-.33-.15-1.3-1.17-3.1-1.57-4.82-1.93-.52-.11-1.05-.22-1.59-.22-.59 0-1.17.12-1.75.16-.93.07-1.86-.06-2.78-.18-.08-.01-.17-.02-.23-.08-.07-.07-.08-.19-.07-.3C41.47 34.76 41.58 33.52 41.55 32.27zM50.1 20.47c-.12.1-.23.21-.32.34-.11.15-.2.33-.35.44-.12.08-.26.12-.39.19-.09.05-.16.12-.22.2-.21.26-.44.48-.81.4-.13-.03-.25-.13-.39-.14-.08-.01-.14.03-.21.06-.17.07-.35.05-.52.05-.15 0-.31-.01-.46-.04-.1-.02-.18-.07-.28-.06-.14.02-.26.06-.4.02-.24-.07-.35-.3-.48-.49-.12-.17-.26-.28-.45-.37-.25-.13-.43-.32-.56-.56.12-.06.25-.11.36-.17.18-.01.36-.01.54-.02.21-.11.49-.22.83-.3.43-.1.81-.12 1.09-.1.14.01.28.11.42.13.18.03.39-.01.58-.01.39-.01.83-.08 1.28.01.17.04.31.09.39.12.19.04.39.09.58.13C50.24 20.36 50.17 20.41 50.1 20.47z" class="color41a9c9 svgShape"></path><path fill="#3d3f4f" d="M47.06,19.93l0.48,1.13c-0.12,0.22-0.25,0.38-0.35,0.48c-0.01,0.01-0.08,0.12-0.21,0.19
							c-0.06,0.03-0.1,0.05-0.15,0.04c-0.04,0-0.08-0.02-0.12-0.05c-0.11-0.09-0.11-0.11-0.18-0.21c-0.09-0.14-0.14-0.22-0.31-0.5
							C46.51,20.64,46.79,20.29,47.06,19.93z" class="color3d3f4f svgShape"></path><path fill="#3d3f4f" d="M46.1,32.37c0.16,0.02,0.27-0.53,1.19-3.47c0.47-1.51,0.58-1.8,0.62-2.4c0.07-1.01-0.12-1.85-0.32-2.72
							c-0.19-0.85-0.42-1.55-0.61-2.05c-0.09,0-0.18-0.01-0.26-0.01c-0.2,0.92-0.39,1.66-0.53,2.16c-0.34,1.24-0.5,1.62-0.58,2.36
							c-0.08,0.7-0.01,1.11,0.09,2.1C46.01,31.27,45.88,32.34,46.1,32.37z" class="color3d3f4f svgShape"></path><defs fill="none"><path id="a" d="M46.1,32.37c0.16,0.02,0.27-0.53,1.19-3.47c0.47-1.51,0.58-1.8,0.62-2.4
						c0.07-1.01-0.12-1.85-0.32-2.72c-0.19-0.85-0.42-1.55-0.61-2.05c-0.09,0-0.18-0.01-0.26-0.01c-0.2,0.92-0.39,1.66-0.53,2.16
						c-0.34,1.24-0.5,1.62-0.58,2.36c-0.08,0.7-0.01,1.11,0.09,2.1C46.01,31.27,45.88,32.34,46.1,32.37z"></path></defs><clipPath id="b" fill="none"><use overflow="visible" xlink:href="#a"></use></clipPath><g clip-path="url(#b)" fill="none"><polygon fill="#d67000" points="47.85 27.68 48.01 27.59 46 23.8 45.84 23.89" class="colord67000 svgShape"></polygon><rect width=".18" height="4.29" x="47.03" y="22.82" fill="#d67000" transform="rotate(-27.969 47.12 24.968)" class="colord67000 svgShape"></rect><polygon fill="#d67000" points="48.23 26.09 48.39 26 46.38 22.21 46.22 22.3" class="colord67000 svgShape"></polygon><rect width=".18" height="4.29" x="47.38" y="21.18" fill="#d67000" transform="rotate(-27.957 47.46 23.32)" class="colord67000 svgShape"></rect><rect width=".18" height="4.29" x="46.57" y="24.22" fill="#d67000" transform="rotate(-28.003 46.654 26.365)" class="colord67000 svgShape"></rect><rect width=".18" height="4.29" x="46.36" y="24.97" fill="#d67000" transform="rotate(-27.859 46.446 27.11)" class="colord67000 svgShape"></rect><polygon fill="#d67000" points="47.19 29.81 47.34 29.73 45.33 25.94 45.17 26.02" class="colord67000 svgShape"></polygon><polygon fill="#d67000" points="46.87 30.36 47.03 30.27 45.02 26.48 44.86 26.57" class="colord67000 svgShape"></polygon><rect width=".18" height="4.29" x="45.75" y="27.25" fill="#d67000" transform="rotate(-28.042 45.841 29.396)" class="colord67000 svgShape"></rect><rect width=".18" height="4.29" x="45.5" y="27.9" fill="#d67000" transform="rotate(-28.055 45.596 30.05)" class="colord67000 svgShape"></rect><rect width=".18" height="4.29" x="45.27" y="28.58" fill="#d67000" transform="rotate(-27.92 45.358 30.725)" class="colord67000 svgShape"></rect></g><defs fill="none"><path id="c" d="M47.06,19.93l0.48,1.13c-0.12,0.22-0.25,0.38-0.35,0.48c-0.01,0.01-0.08,0.12-0.21,0.19
						c-0.06,0.03-0.1,0.05-0.15,0.04c-0.04,0-0.08-0.02-0.12-0.05c-0.11-0.09-0.11-0.11-0.18-0.21c-0.09-0.14-0.14-0.22-0.31-0.5
						C46.51,20.64,46.79,20.29,47.06,19.93z"></path></defs><clipPath id="d" fill="none"><use overflow="visible" xlink:href="#c"></use></clipPath><g clip-path="url(#d)" fill="none"><rect width=".18" height="4.29" x="47.38" y="19.51" fill="#d67000" transform="rotate(-27.981 47.465 21.653)" class="colord67000 svgShape"></rect><polygon fill="#d67000" points="46.91 21.89 47.06 21.8 45 17.9 44.84 17.98" class="colord67000 svgShape"></polygon></g><path d="M46.09,27.75c0.17-0.14,0.29-0.29,0.39-0.49c0.12-0.23,0.22-0.41,0.44-0.55c0.23-0.15,0.41-0.31,0.53-0.51
							c0,0,0,0,0,0c0.07-0.12,0.13-0.26,0.16-0.42c0.08-0.49,0.02-1.02-0.01-1.51c-0.01-0.2-0.03-0.4-0.04-0.6
							c0.01,0.04,0.02,0.08,0.03,0.12c0.2,0.87,0.38,1.71,0.32,2.72c-0.04,0.6-0.15,0.89-0.62,2.4c-0.92,2.94-1.04,3.49-1.19,3.47
							c-0.22-0.03-0.09-1.1-0.39-4.04c-0.01-0.06-0.01-0.12-0.02-0.18C45.8,28,45.94,27.88,46.09,27.75z" opacity=".25" fill="none"></path><path fill="#9ccde1" d="M42.89,24.97c-0.17,0.68-0.48,1.32-0.65,2c-0.23,0.93-0.21,1.89-0.19,2.85
						c0.01,0.26,0.01,0.53,0.11,0.78c0.12,0.31,0.38,0.55,0.64,0.77c0.48,0.4,1.06,0.62,1.62,0.91c0.59,0.31,1.18,0.63,1.75,0.97
						c0.25,0.14,0.36,0.24,0.37,0.53c0,0.28-0.07,0.57-0.16,0.83c-0.09,0.25-0.21,0.51-0.43,0.67c-0.14,0.11-0.32,0.16-0.5,0.19
						c-0.33,0.04-0.67-0.01-1-0.07c-1.54-0.27-3.22-0.4-4.64-1.11c-0.42-0.21-0.81-0.48-1.12-0.84c-0.52-0.6-0.74-1.41-0.82-2.2
						c-0.14-1.4,0-2.71,0.35-4.11c0.49-1.97,1.11-4.36,3.03-5.66c0.67-0.46,0.97-0.42,1.13-0.36
						C43.24,21.46,43.18,23.82,42.89,24.97z" class="color9ccde1 svgShape"></path><path fill="#63c3e0" d="M38.23,27.14c0.08-0.32,0.17-0.66,0.26-1c0.11,0.93,0.17,1.87,0.34,2.8c0.16,0.89,0.45,1.77,0.88,2.57
						c0.2,0.37,0.44,0.72,0.76,1c0.34,0.29,0.75,0.46,1.19,0.54c0.45,0.08,0.92,0.08,1.37,0.14c0.54,0.07,1.01,0.25,1.46,0.53
						c0.37,0.23,0.75,0.52,1.19,0.57c0.29,0.03,0.55-0.06,0.81-0.17c-0.03,0.17-0.08,0.33-0.13,0.49c-0.09,0.25-0.21,0.51-0.43,0.67
						c-0.14,0.11-0.32,0.16-0.5,0.19c-0.33,0.04-0.67-0.01-1-0.07c-1.54-0.27-3.22-0.4-4.64-1.11c-0.42-0.21-0.81-0.48-1.12-0.84
						c-0.52-0.6-0.74-1.41-0.82-2.2C37.73,29.85,37.88,28.55,38.23,27.14z" class="color63c3e0 svgShape"></path><path fill="#e54141" d="M39.85,25.66v3.17c0,0.91,0.74,1.65,1.65,1.65c0.82,0,1.5-0.56,1.7-1.31c0.48-0.04,0.91-0.25,1.22-0.61
						c0.29-0.34,0.43-0.77,0.37-1.14c-0.11-0.65-0.76-1.16-1.52-1.21v-0.54H39.85z M43.26,28.71
						C43.26,28.71,43.26,28.71,43.26,28.71l0-2.08c0.58,0.06,1.02,0.45,1.09,0.85c0.04,0.25-0.06,0.54-0.26,0.78
						C43.87,28.51,43.58,28.67,43.26,28.71z" class="colore54141 svgShape"></path><path fill="#ce3838" d="M40.4,30.05c0.29,0.26,0.67,0.42,1.09,0.42c0.82,0,1.5-0.56,1.7-1.31c0.48-0.04,0.91-0.25,1.22-0.61
						c0.29-0.34,0.43-0.77,0.37-1.14c-0.11-0.65-0.76-1.16-1.52-1.21v-0.54h-1.1c-0.34,0.58,0.15,1.49,0.05,2.14
						c-0.03,0.19-0.12,0.36-0.23,0.52c-0.16,0.23-0.31,0.42-0.4,0.68c-0.13,0.39-0.22,0.77-0.64,0.92
						C40.77,29.99,40.59,30.02,40.4,30.05z M43.26,28.71C43.26,28.71,43.26,28.71,43.26,28.71l0-2.08c0.58,0.06,1.02,0.45,1.09,0.85
						c0.04,0.25-0.06,0.54-0.26,0.78C43.87,28.51,43.58,28.67,43.26,28.71z" class="colorce3838 svgShape"></path><path fill="#fc9f9f" d="M47.92 13.37c-.13-.2-.38-.3-.62-.36-.55-.13-1.13-.12-1.68.02-.2.05-.41.14-.51.31-.06.1-.07.22-.08.34-.1 1.05.06 2.13.46 3.11.12.29.3.61.61.68.21.05.43-.03.62-.13.65-.32 1.21-.92 1.31-1.64.3.13.68 0 .86-.28.17-.28.12-.67-.11-.91-.14-.14-.31-.19-.37-.21-.21-.06-.38-.02-.46 0 .02-.1.05-.25.04-.43C48.01 13.71 48.02 13.52 47.92 13.37zM46.1 27.53c-.14-.24-.32-.52-.67-.68-.36-.17-.72-.12-.95-.07.06.06.13.16.19.28.07.13.1.26.11.34.01.08.01.14.01.14l0 0c0 0-.09-.02-.26-.06-.08-.06-.09-.1-.19-.22-.09-.11-.22-.26-.44-.41-.27-.01-.51.08-.61.24-.07.11-.08.25-.08.25-.01.1.01.19.03.23-.03.01-.19.1-.23.3-.06.25.13.43.14.44-.15 0-.29.18-.31.39-.02.22.07.45.21.52-.12-.05-.23.13-.23.31 0 .18.08.33.17.45.22.27.5.38.77.49.95.36 1.75.5 2.62.76.09.03.17.05.22.07.28.24.56.49.84.73.02-.01.06-.04.09-.07.34-.31.29-.79.35-1.13.05-.28.21-.67.7-1.1-.42-.18-.84-.37-1.27-.55C46.69 28.46 46.32 27.92 46.1 27.53zM49.72 34.04c1.48.51 2.75 1.55 2.65 1.87-.09.28-1-.48-1.51-.72.5.49 1.65 1.14 1.51 1.46-.17.4-1.42-.82-2.13-1.24.46.51 1.69 1.39 1.47 1.63-.28.32-1.3-.83-1.91-1.2.31.4 1.3 1.41 1.05 1.42-.23.24-1.39-1.1-1.79-1.2-.29-.07-1.18-.16-1.5-.44-.27-.23-.46-.42-.46-.42-.08-.08-.09-.09-.13-.12-.18-.15-.49-.22-.69-.23.07-.18.17-.44.23-.74.03-.15.06-.3.02-.47-.01-.07-.03-.12-.05-.15.35.02.83.05 1.4.13C48.44 33.72 49.06 33.81 49.72 34.04zM41.51 59.95c-.36-.04-.96-.13-.96-.18-.03-.69-.06-1.38-.09-2.07.12.04.27.08.44.1.38.05.81.03 1.17-.11-.04.72-.1 1.44-.17 2.16 0 .03-.01.07-.03.09-.03.03-.07.03-.11.04C41.72 59.97 41.62 59.96 41.51 59.95zM32.74 58.31c-.28-.06-.55-.21-.72-.39-.06-.06-.11-.13-.15-.19.09-.47.19-.94.28-1.41.1.05.23.12.4.15.39.09.83 0 1.19-.17-.14.64-.32 1.28-.51 1.91-.01.03-.02.06-.04.08-.02.02-.05.03-.08.03C33 58.34 32.87 58.33 32.74 58.31z" class="colorfc9f9f svgShape"></path><path fill="#e28888" d="M46.66 13.33c-.14-.03-.29-.08-.44-.06-.11.01-.22.06-.32.1-.28.12-.56.15-.85.18.01-.07.03-.13.06-.19.1-.18.31-.26.51-.31.54-.15 1.13-.15 1.68-.02.24.06.49.15.62.36.05.07.07.16.08.25C47.65 13.23 47.14 13.43 46.66 13.33zM43.43 30.08c.58.01 1.16-.16 1.73-.01.25.06.49.17.74.23.23.06.46.06.69.05.34-.01.64 0 .95.15.12.06.24.13.35.2-.01.03-.02.07-.02.1-.06.35-.02.82-.35 1.13-.04.03-.07.06-.09.07-.28-.24-.56-.49-.84-.73-.05-.01-.12-.04-.22-.07-.87-.26-1.67-.39-2.62-.76-.24-.09-.48-.2-.68-.4C43.2 30.07 43.31 30.08 43.43 30.08zM46.41 34.48c.03-.09.05-.17.07-.25.13.15.33.36.64.55.44.27.57.17 1 .47.4.28.65.62.7.7.02.03.04.06.06.09-.38-.07-1.05-.17-1.33-.41-.27-.23-.46-.42-.46-.42-.05-.05-.08-.08-.1-.1 0 0-.01-.01-.03-.02-.11-.09-.3-.15-.3-.15-.15-.05-.28-.07-.39-.08C46.32 34.75 46.37 34.62 46.41 34.48zM41.65 59.22c-.11-.16-.18-.34-.31-.48-.17-.19-.4-.32-.58-.49-.1-.09-.2-.19-.3-.29 0-.09-.01-.18-.01-.27.12.04.27.08.44.1.38.05.81.03 1.17-.11-.03.6-.08 1.2-.14 1.79C41.82 59.4 41.72 59.33 41.65 59.22zM33.2 58.02c-.11-.13-.2-.25-.26-.42-.04-.11-.06-.22-.11-.33-.15-.34-.5-.51-.7-.81l.03-.15c.1.05.23.12.4.15.39.09.83 0 1.19-.17-.14.61-.3 1.22-.48 1.82C33.24 58.08 33.23 58.05 33.2 58.02z" class="colore28888 svgShape"></path><path fill="#dd6b6b" d="M44.11 28.57l.08-.11c-.15-.13-.31-.27-.46-.42-.17-.17-.34-.33-.49-.49-.03.02-.06.04-.08.06.13.16.28.33.46.51C43.79 28.29 43.95 28.44 44.11 28.57zM43.72 29.11l.1-.09c-.11-.12-.22-.23-.33-.35-.11-.12-.22-.24-.33-.37-.02 0-.05 0-.08.02-.03.01-.05.03-.06.04.13.13.25.27.38.4C43.5 28.87 43.61 28.99 43.72 29.11zM43.56 29.92l.1-.09-.61-.62c-.01 0-.04-.01-.08.01-.03.01-.05.04-.06.05C43.12 29.48 43.34 29.7 43.56 29.92z" class="colordd6b6b svgShape"></path><path fill="#9ccde1" d="M51.23 25.04c.14 2.3.51 4.17.82 5.41-.08.01-.24.02-.43.02-1.53-.03-2.2-.96-3.16-.66-.33.1-.53.29-.59.36-.56.55-.57 1.45-.46 1.93.32 1.38 2.29 1.97 4.07 2.49 1.78.53 2.98.89 4.04.27.91-.54 1.36-1.61 1.6-2.64.77-3.27 0-6.87-2.04-9.55-.6-.78-2.23-2.42-3.3-1.67C51.08 21.47 51.1 22.9 51.23 25.04zM49.45 20.66C49.45 20.66 49.45 20.66 49.45 20.66c-.38.3-.74.6-1.11.9-.1.08-.22.17-.34.12-.06-.02-.11-.08-.15-.13-.36-.48-.55-1.07-.79-1.62-.01-.02.85-.34.94-.39.33-.18.63-.55.89-.83.32.34.57.74.76 1.17.06.14.11.29.07.44C49.68 20.46 49.57 20.56 49.45 20.66z" class="color9ccde1 svgShape"></path><path fill="#9ccde1" d="M47.06,19.93c-0.09,0-0.5,0.68-0.58,0.78c-0.18,0.22-0.32,0.46-0.46,0.71
							c-0.02,0.03-0.03,0.06-0.06,0.07c-0.03,0.01-0.06,0.01-0.09,0.01c-0.17-0.03-0.31-0.15-0.44-0.26
							c-0.19-0.17-0.38-0.33-0.57-0.5c-0.14-0.12-0.29-0.28-0.26-0.46c0.02-0.11,0.1-0.19,0.16-0.28c0.18-0.24,0.28-0.54,0.53-0.71
							c0.05-0.04,0.11-0.07,0.17-0.07c0.07,0,0.13,0.03,0.19,0.05c0.28,0.13,0.52,0.35,0.8,0.46
							C46.66,19.79,46.86,19.87,47.06,19.93z" class="color9ccde1 svgShape"></path><path fill="#63c3e0" d="M47.55 30.62c.26.11.48.29.68.48.22.21.44.39.72.52.28.13.58.23.86.37.28.14.53.34.81.48.44.23.92.37 1.41.37.55 0 1.03-.17 1.52-.41.27-.14.54-.27.84-.32.27-.04.54-.04.81-.09.42-.07.73-.3.97-.64.47-.66.53-1.54.58-2.32.05-.76.03-1.57.28-2.3.45 1.78.5 3.66.07 5.45-.24 1.03-.69 2.1-1.6 2.64-1.06.62-2.26.26-4.04-.27-1.78-.53-3.75-1.11-4.07-2.49C47.32 31.72 47.31 31.12 47.55 30.62zM48.48 21.12c.1-.28.26-.56.27-.87.02-.35-.07-.7-.03-1.06.01-.13.04-.26.08-.39.03-.04.07-.08.1-.11.32.34.57.74.76 1.17.06.14.11.29.07.44-.04.14-.16.24-.27.33 0 0-.01 0-.01.01-.37.3-.73.6-1.1.89-.02.01-.03.03-.05.04C48.37 21.45 48.42 21.29 48.48 21.12z" class="color63c3e0 svgShape"></path><path fill="#3d3f4f" d="M41.77 60.91c-.02.1-.05.17-.11.21-.1.08-.24.04-.48.02-.16-.01-.31 0-.47 0-.31 0-.63 0-.94 0-.29 0-.57 0-.86 0-.23 0-.44.01-.66-.03-.01 0-.03 0-.03-.01-.03-.03 0-.08.03-.11 0 0 .01-.01.01-.01.39-.37.84-.66 1.3-.94.23-.14.44-.27.69-.42.11-.06.21-.12.27-.15.15.03.31.05.49.06.34.02.65 0 .9-.04-.01.17-.01.32-.02.46C41.9 60.12 41.88 60.49 41.77 60.91zM32.65 59.39c-.06.08-.1.14-.17.16-.13.04-.24-.04-.46-.14-.14-.06-.29-.11-.44-.16-.29-.11-.59-.21-.88-.32-.27-.1-.54-.19-.8-.29-.21-.08-.42-.14-.61-.25-.01-.01-.02-.01-.03-.02-.02-.04.02-.07.06-.09.01 0 .01 0 .01-.01.4-.18 1.54-.44 1.54-.44.26-.07.42-.11.74-.18.13-.03.23-.05.3-.06.15.09.31.18.51.27.32.14.61.22.86.28-.06.16-.12.3-.17.42C33.04 58.69 32.89 59.04 32.65 59.39z" class="color3d3f4f svgShape"></path><path fill="#353744" d="M40.85 60.61c.22-.28.19-.66.52-.87.15-.09.31-.15.46-.23.03 0 .06 0 .09-.01-.01.17-.01.32-.02.46-.01.15-.03.53-.13.94-.02.1-.05.17-.11.21-.1.08-.24.04-.48.02-.16-.01-.31 0-.47 0-.17 0-.33 0-.5 0C40.42 60.97 40.68 60.83 40.85 60.61zM31.98 58.75c.24-.1.39-.29.57-.47.11-.11.23-.2.38-.24.12.04.24.07.34.09-.06.16-.12.3-.17.42-.06.14-.2.48-.45.84-.06.08-.1.14-.17.16-.13.04-.24-.04-.46-.14-.14-.06-.29-.11-.44-.16l-.41-.15C31.41 58.92 31.69 58.86 31.98 58.75z" class="color353744 svgShape"></path><path fill="#353745" d="M38.22 61.24c1.15 0 2.3 0 3.46 0 .01-.02.01-.04.02-.06.01-.05.03-.09.03-.13-1.17 0-2.34 0-3.51 0-.01.02-.01.05-.01.08C38.2 61.18 38.21 61.21 38.22 61.24zM29.2 58.49c1.08.39 2.16.79 3.25 1.18.01-.02.03-.03.04-.05.03-.04.05-.07.08-.11-1.1-.4-2.2-.8-3.3-1.2-.01.02-.03.04-.04.07C29.2 58.42 29.2 58.46 29.2 58.49z" class="color353745 svgShape"></path><path fill="#dd6b6b" d="M46.08,15.12c0.02,0.07,0.03,0.14,0.08,0.19c0.03,0.04,0.08,0.07,0.11,0.11c0.05,0.08,0,0.19-0.08,0.24
						c-0.08,0.05-0.17,0.07-0.27,0.08c-0.04,0-0.08,0.01-0.12,0.01c-0.04,0-0.09,0-0.11-0.03c-0.01-0.02-0.01-0.05-0.01-0.07
						c0.04-0.37,0.07-0.73,0.12-1.1c0.02-0.2,0.09-0.13,0.14,0.02C46.01,14.74,46.04,14.94,46.08,15.12z" class="colordd6b6b svgShape"></path><path fill="#ffffff" d="M45.95,16.18c0.25-0.02,0.78-0.12,0.85-0.13c0.01,0,0.03,0,0.05,0.01c0.04,0.02,0.03,0.08,0.02,0.12
						c-0.07,0.17-0.2,0.31-0.37,0.39c-0.17,0.08-0.36,0.09-0.54,0.04c-0.05-0.02-0.11-0.04-0.15-0.07
						c-0.11-0.09-0.21-0.24-0.17-0.32C45.67,16.16,45.76,16.2,45.95,16.18z" class="colorfff svgShape"></path><path fill="#ef8f8f" d="M47.99,14.74c0.03,0.22,0.06,0.44,0.08,0.66c0.01,0.01,0.22,0.1,0.42-0.02
						c0.14-0.09,0.22-0.26,0.18-0.43c-0.06-0.22-0.29-0.28-0.31-0.29C48.17,14.61,48.01,14.72,47.99,14.74z" class="coloref8f8f svgShape"></path><path fill="#21222b" d="M46.44 14.72c0 .08.07.15.15.15.08 0 .15-.07.15-.15s-.07-.15-.15-.15C46.51 14.57 46.44 14.64 46.44 14.72zM45.23 14.82c0 .07.06.12.12.12.07 0 .12-.06.12-.12 0-.07-.06-.12-.12-.12C45.28 14.69 45.23 14.75 45.23 14.82z" class="color21222b svgShape"></path><path fill="#ffffff" d="M46.08 14.66c0 .4.32.72.72.72.4 0 .72-.32.72-.72 0-.4-.32-.72-.72-.72C46.4 13.93 46.08 14.26 46.08 14.66zM44.24 14.8c0 .4.32.72.72.72.4 0 .72-.32.72-.72s-.32-.72-.72-.72C44.56 14.07 44.24 14.4 44.24 14.8z" opacity=".39" class="colorfff svgShape"></path><path fill="#d67000" d="M46.79 13.66c.15-.01.3.02.43.1.02.01.03.02.04.04 0 .02-.01.04-.03.06-.02.01-.04.01-.06.02-.27.03-.53.07-.8.1-.04.01-.1.01-.12-.03C46.1 13.76 46.71 13.67 46.79 13.66zM45.39 13.93c.04.01.07.03.1.05.02.03.03.07.01.1-.02.03-.07.04-.11.04-.14.01-.29 0-.43-.03-.12-.03.01-.13.07-.15C45.14 13.91 45.28 13.9 45.39 13.93z" class="colord67000 svgShape"></path><g fill="none"><path fill="#21222b" d="M44.16,14.8c0,0.44,0.36,0.8,0.8,0.8c0.44,0,0.8-0.36,0.8-0.8c0-0.03-0.01-0.06-0.01-0.09
						c0.08-0.03,0.17-0.04,0.25-0.02c0.01,0.43,0.36,0.77,0.8,0.77c0.44,0,0.8-0.36,0.8-0.8c0-0.04-0.01-0.08-0.01-0.11
						c0.07-0.04,0.13-0.08,0.19-0.13c0.05-0.04,0.08-0.06,0.16-0.11c0.02-0.01,0.06-0.02,0.1-0.01c0.01,0,0.02,0.01,0.03,0.02
						c0.03,0,0.06-0.01,0.09-0.01c0.02,0,0.05,0,0.07,0c-0.01-0.02-0.02-0.06-0.06-0.09c-0.01-0.01-0.04-0.04-0.09-0.05
						c-0.08-0.03-0.17-0.01-0.22,0.02c-0.09,0.05-0.12,0.08-0.17,0.12c-0.05,0.04-0.1,0.07-0.15,0.1c-0.11-0.31-0.4-0.54-0.75-0.54
						c-0.4,0-0.73,0.29-0.79,0.68c-0.1-0.02-0.2-0.01-0.3,0.02c-0.1-0.32-0.4-0.56-0.76-0.56C44.52,14,44.16,14.36,44.16,14.8z
						 M46.15,14.65c0-0.36,0.29-0.65,0.65-0.65c0.36,0,0.65,0.29,0.65,0.65c0,0.36-0.29,0.65-0.65,0.65
						C46.44,15.31,46.15,15.01,46.15,14.65z M44.31,14.8c0-0.36,0.29-0.65,0.65-0.65c0.36,0,0.65,0.29,0.65,0.65
						c0,0.36-0.29,0.65-0.65,0.65C44.6,15.45,44.31,15.16,44.31,14.8z" class="color21222b svgShape"></path></g></g><g><rect width="5.8" height=".68" x="36.34" y="33.32" fill="#8e8b9e" transform="rotate(-180 39.238 33.663)" class="color8e8b9e svgShape"></rect><path fill="#aca9b0" d="M28.21,34.01h9.82c-0.17-2.5-0.34-5-0.51-7.49c-0.03-0.38-0.34-0.67-0.72-0.67c-2.76,0-5.52,0-8.28-0.01
						c-0.41,0-0.74,0.35-0.72,0.76C27.93,29.06,28.07,31.53,28.21,34.01z" class="coloraca9b0 svgShape"></path><path fill="#ffffff" d="M33.15,29.73c0.08-0.26-0.07-0.54-0.33-0.61c-0.26-0.08-0.54,0.07-0.62,0.33
						c-0.08,0.26,0.07,0.54,0.33,0.61C32.8,30.14,33.07,29.99,33.15,29.73z" class="colorfff svgShape"></path></g><path fill="#21222b" d="M11.74,36.96h45.51c0.8,0,1.44-0.64,1.44-1.44l0,0c0-0.8-0.64-1.44-1.44-1.44H11.74
					c-0.8,0-1.44,0.64-1.44,1.44l0,0C10.3,36.31,10.95,36.96,11.74,36.96z" class="color21222b svgShape"></path><rect width="1.17" height="28.4" x="53.81" y="34.4" fill="#21222b" transform="rotate(-180 54.396 48.598)" class="color21222b svgShape"></rect><rect width="1.17" height="28.4" x="14.29" y="35.6" fill="#21222b" transform="rotate(-180 14.87 49.801)" class="color21222b svgShape"></rect><g><rect width=".35" height="2.02" x="38.71" fill="#902b12" class="color902b12 svgShape"></rect><path fill="#d29744" d="M40.03,2.6c-0.65-0.08-1.71-0.13-3,0.13l1.31-0.94c0.23-0.06,0.47-0.07,0.66-0.06L40.03,2.6z" class="colord29744 svgShape"></path><path fill="#f8b250" d="M40.7 2.72c-.01 0-.03-.01-.05-.01C40.67 2.71 40.68 2.71 40.7 2.72zM41.29 11.49l-4.92-3.28.66-5.48c1.28-.27 2.34-.22 3-.13l.71 7.35L41.29 11.49z" class="colorf8b250 svgShape"></path><path fill="#d29744" d="M42.18,12.09c-0.01,0.09-0.03,0.17-0.08,0.24c-0.38,0.53-1.98,0.04-3.56-1.09
			c-1.58-1.14-2.55-2.49-2.17-3.03c0.38-0.53,1.98-0.04,3.56,1.09c0.29,0.21,0.56,0.42,0.8,0.64c0.73,0.64,1.23,1.29,1.39,1.78
			C42.17,11.86,42.19,11.98,42.18,12.09z" class="colord29744 svgShape"></path><path fill="#adacae" d="M41.9,12.19c-0.07,0.1-0.26,0.11-0.37,0.11c-0.67,0-1.79-0.5-2.85-1.26c-0.61-0.44-1.14-0.92-1.53-1.38
			l0.27-1.36c0.66,0.16,1.52,0.6,2.36,1.2c0.74,0.54,1.37,1.13,1.77,1.68C41.95,11.73,41.99,12.07,41.9,12.19z" class="coloradacae svgShape"></path><path fill="#f3c4a1" d="M39.68,9.42c-0.13,0.2-0.36,0.34-0.62,0.34c-0.41,0-0.74-0.33-0.74-0.74c0-0.13,0.03-0.25,0.09-0.35
			C38.81,8.87,39.25,9.12,39.68,9.42z" class="colorf3c4a1 svgShape"></path><path fill="#a97b37" d="M40.73,2.73c-0.03-0.01-0.28-0.08-0.71-0.13L39,1.73c0.25,0.01,0.43,0.06,0.43,0.06L40.73,2.73z" class="colora97b37 svgShape"></path><path fill="#d29744" d="M42.13,11.73c-0.16-0.49-0.67-1.14-1.39-1.78L40.03,2.6c0.03,0,0.05,0.01,0.08,0.01
			c0.08,0.01,0.15,0.02,0.21,0.03c0.02,0,0.04,0.01,0.06,0.01c0.09,0.02,0.16,0.03,0.21,0.04c0.02,0,0.04,0.01,0.06,0.01
			c0,0,0,0,0,0c0.02,0.01,0.04,0.01,0.05,0.01c0,0,0.01,0,0.01,0c0,0,0.01,0,0.01,0c0.01,0,0.01,0,0.02,0l0,0L42.13,11.73z" class="colord29744 svgShape"></path><path fill="#939394" d="M37.43,8.31l-0.27,1.36c-0.09-0.1-0.17-0.21-0.24-0.31c-0.39-0.55-0.43-0.88-0.35-1
			c0.07-0.1,0.26-0.11,0.37-0.11C37.08,8.24,37.25,8.26,37.43,8.31z" class="color939394 svgShape"></path></g></svg>