<svg xmlns="http://www.w3.org/2000/svg" enable-background="new 0 0 64 64" viewBox="0 0 64 64" width="256" height="256"><path fill="#f9d6c0" d="M17.76,7.08L16.21,5.7c0,0-0.05-0.37-0.22-0.81c-0.17-0.44-0.94-1.48-1.65-1.38
		c-0.71,0.1-1.63,1.58-1.4,2.37c0.22,0.79,0.94,1.5,1.53,1.38c0.59-0.12,1.95,1.87,1.95,1.87L17.76,7.08z" class="colorf9d6c0 svgShape"></path><path fill="#eab766" d="M33.96,14.08c-0.19-0.07-10.45-2.63-17.2-7.99C15.64,7.4,15.5,9.05,15.5,9.05s7.48,7.88,16.98,9.84
		C34.95,19.94,36.46,14.94,33.96,14.08z" class="coloreab766 svgShape"></path><path fill="#597086" d="M45.92,36.18h15.75c0.23,0,0.41,0.19,0.41,0.41v0.02c0,0.23-0.19,0.41-0.41,0.41H45.92
		c-0.23,0-0.41-0.19-0.41-0.41v-0.02C45.51,36.36,45.7,36.18,45.92,36.18z" class="color597086 svgShape"></path><path fill="#ecccb7" d="M23.19,40.44c-0.04,0-0.08-0.01-0.11-0.01c0.35,4.84,0.55,8.35,0.33,8.45c-0.62,0.29,1.18,2.14,2.22,1.09
				c0.06-2.85,0.25-6.14,0.5-9.52C25.14,40.68,24.16,40.67,23.19,40.44z" class="colorecccb7 svgShape"></path><path fill="#2d2035" d="M23.45,48.75c0,0-2.53,1.26-2.42,1.94c0.09,0.5,2.72,0.21,4.04,0.03c0.42-0.06,0.71-0.43,0.67-0.85
				l-0.11-1.1L23.45,48.75z" class="color2d2035 svgShape"></path><path fill="#597086" d="M42.56,28.57c0,0,1.43,4.61-1.45,6.64c-3.22,2.26-13.51,1.28-13.51,1.28s-0.74,8.6-1.46,9.7
			c-1.19,0.16-2.97-0.21-2.97-0.21s-1.39-7.72-0.16-11.71c0.24-0.77,1.48-2.44,2.73-3.18C30.92,28.03,42.56,28.57,42.56,28.57z" class="color597086 svgShape"></path><path fill="#2d2035" d="M20.76,27.03l-1.73,1.99c-0.21,0.24-0.58,0.27-0.82,0.06l-0.03-0.02c-0.24-0.21-0.27-0.58-0.06-0.82
		l1.73-1.99c0.21-0.24,0.58-0.27,0.82-0.06l0.03,0.02C20.94,26.42,20.97,26.79,20.76,27.03z" class="color2d2035 svgShape"></path><path fill="#ecccb7" d="M34.57,8.59l2.91,3.21c0,0-2.91,2.56-5.06,3.18c-0.11-0.23-0.87-5.04-1.28-5.89
		C30.74,8.23,34.57,8.59,34.57,8.59z" class="colorecccb7 svgShape"></path><path fill="#f6c06b" d="M16.44,28.52c0,1.19-0.28,2.16-0.63,2.16c-0.35,0-0.63-0.97-0.63-2.16c0-1.19,0.28-2.16,0.63-2.16
			C16.16,26.36,16.44,27.33,16.44,28.52z" class="colorf6c06b svgShape"></path><path fill="#3d2f45" d="M57.71,55.76c0,3.93-3.19,7.12-7.12,7.12s-7.12-3.19-7.12-7.12s3.19-7.12,7.12-7.12
					S57.71,51.83,57.71,55.76z" class="color3d2f45 svgShape"></path><path fill="#637c95" d="M55.15,55.76c0,2.52-2.04,4.56-4.56,4.56c-2.52,0-4.56-2.04-4.56-4.56c0-2.52,2.04-4.56,4.56-4.56
					C53.11,51.2,55.15,53.24,55.15,55.76z" class="color637c95 svgShape"></path><circle cx="50.59" cy="55.76" r=".87" fill="#2d2035" class="color2d2035 svgShape"></circle><path fill="#f6c06b" d="M54.85,51.79c0,2.55-3.05,4.61-6.82,4.61c-3.77,0-6.82-2.07-6.82-4.61c0-2.55,3.05-4.61,6.82-4.61
			C51.8,47.17,54.85,49.24,54.85,51.79z" class="colorf6c06b svgShape"></path><path fill="#2d2035" d="M40.38,55.9h-5.44c-0.74,0-1.34-0.6-1.34-1.34v-0.08c0-0.74,0.6-1.34,1.34-1.34h5.44
			c0.74,0,1.34,0.6,1.34,1.34v0.08C41.72,55.29,41.11,55.9,40.38,55.9z" class="color2d2035 svgShape"></path><path fill="#3d2f45" d="M14.24,55.76c0,3.93-3.19,7.12-7.12,7.12C3.19,62.88,0,59.7,0,55.76s3.19-7.12,7.12-7.12
				C11.05,48.65,14.24,51.83,14.24,55.76z" class="color3d2f45 svgShape"></path><path fill="#637c95" d="M11.68,55.76c0,2.52-2.04,4.56-4.56,4.56s-4.56-2.04-4.56-4.56c0-2.52,2.04-4.56,4.56-4.56
				S11.68,53.24,11.68,55.76z" class="color637c95 svgShape"></path><path fill="#f6c06b" d="M15.43 43.8L8.32 55.83c-.3.51-.97.68-1.48.38l-.05-.03c-.51-.3-.68-.97-.38-1.48l7.11-12.03c.3-.51.97-.68 1.48-.38l.05.03C15.56 42.62 15.73 43.29 15.43 43.8zM51.69 41.16c0 0 3.96-.8 4.96.3 1 1.1 1.96 2.96-1.2 3.26C54.85 44.57 51.69 41.16 51.69 41.16z" class="colorf6c06b svgShape"></path><path fill="#2d2035" d="M59.74,53.95H41.02c-0.68,0-1.24-0.56-1.24-1.24v-0.07c0-0.68,0.56-1.24,1.24-1.24h18.72
			c0.68,0,1.24,0.56,1.24,1.24v0.07C60.98,53.39,60.43,53.95,59.74,53.95z" class="color2d2035 svgShape"></path><path fill="#f59162" d="M19.3,30.68l-5.06,8.82c0,0-3.46,0.65-2.86,4.11c2.01-0.15,4.11,1.86,5.16,4.61
			c1.05,2.76,1.86,6.17,4.76,6.72c2.91,0.55,17.9,0.2,17.9,0.2s2.06-0.2,2.21-2.26c2.61,0,18.7,0,18.7,0s0.75-2.46-0.55-4.11
			c-1.3-1.65-4.11-8.72-10.88-9.93c-4.06-1.25-18.05,0.95-18.05,0.95s9.93,5.77,3.81,10.88c0.15-0.05-1.3,0.75-1.3,0.75l-10.28,0.1
			c0,0-5.47-0.3-4.86-10.68c0.35-6.52,4.81-11.23,4.81-11.23s-2.91-3.26-4.06-2.56c-1.15-0.8-2.96-0.7-2.96-0.7v4.36L19.3,30.68z" class="colorf59162 svgShape"></path><path fill="#e5875c" d="M1.29,47.89c1.4-1.6,5.95-6.04,11.05-3.1c1.66,0.95,2.91,2.48,3.59,4.26c0.55,1.44,1.21,3.13,1.84,4.16
			c0.26,0.42-0.04,0.97-0.53,0.98c-1.37,0.02-3.46-0.2-3.46-0.2s-1.7-3.8-4.91-4.71c-2.77-0.79-5.65-0.01-7.09-0.13
			C1.17,49.09,0.89,48.36,1.29,47.89z" class="colore5875c svgShape"></path><path fill="#2d2035" d="M22.81 31.03l-3.75-1.25c-.34-.11-.53-.49-.42-.83l.01-.04c.11-.34.49-.53.83-.42l3.75 1.25c.34.11.53.49.42.83l-.01.04C23.52 30.95 23.15 31.14 22.81 31.03zM18.41 27.77c-1.9-3.16-2.56-5.16-1.96-5.94.39-.5 1.14-.29 1.17-.28l-.06.19c-.01 0-.65-.19-.95.21-.38.49-.34 1.87 1.97 5.71L18.41 27.77z" class="color2d2035 svgShape"></path><path fill="#3d2f45" d="M30.28,39.9c0,0-1.6-5.42,2.66-4.31c4.26,1.1,14.84-2.01,17.05-0.65c2.21,1.35,1.81,4.96,1.81,4.96H30.28z" class="color3d2f45 svgShape"></path><path fill="#e5875c" d="M38.11,51.64c0,0-3.58-8.08,5.21-9.61c0.79-0.14,1.59-0.16,2.38-0.09c6.03,0.52,9.95,3.05,12.36,9.05
			C58.06,51.03,38.11,51.64,38.11,51.64z" class="colore5875c svgShape"></path><path fill="#637c95" d="M33.25,51.5H21.7c-0.14,0-0.26-0.12-0.26-0.26v-0.02c0-0.14,0.12-0.26,0.26-0.26h11.55
			c0.14,0,0.26,0.12,0.26,0.26v0.02C33.51,51.38,33.39,51.5,33.25,51.5z" class="color637c95 svgShape"></path><polygon fill="#f6c06b" points="37.85 48.49 37.95 49.13 47.92 49.13" class="colorf6c06b svgShape"></polygon><polygon fill="#f6c06b" points="38.19 49.63 38.32 50.26 44.21 50.1" class="colorf6c06b svgShape"></polygon><path fill="#f6c06b" d="M38.62 55.21H20.85c-.17 0-.31-.14-.31-.31v-.02c0-.17.14-.31.31-.31h17.77c.17 0 .31.14.31.31v.02C38.92 55.07 38.79 55.21 38.62 55.21zM55 48.93v2.51l4.01-.05C59.01 51.38 58.51 48.53 55 48.93z" class="colorf6c06b svgShape"></path><path fill="#2d2035" d="M18.7,27.71c0,0.13-0.11,0.24-0.24,0.24s-0.24-0.11-0.24-0.24c0-0.13,0.11-0.24,0.24-0.24
			S18.7,27.57,18.7,27.71z" class="color2d2035 svgShape"></path><path fill="#f6c06b" d="M18.54,21.6c0.18,1.07,0.04,1.98-0.3,2.03c-0.34,0.06-0.76-0.76-0.94-1.83c-0.18-1.07-0.04-1.98,0.3-2.03
			C17.94,19.72,18.36,20.53,18.54,21.6z" class="colorf6c06b svgShape"></path><path fill="#f9d6c0" d="M25.43,40.82c-0.04,0-0.08,0-0.11-0.01c0.53,4.83,0.87,8.32,0.64,8.44c-0.61,0.31,1.26,2.09,2.26,1
				c-0.05-2.85,0.01-6.14,0.14-9.53C27.38,40.98,26.41,41.01,25.43,40.82z" class="colorf9d6c0 svgShape"></path><path fill="#3d2f45" d="M26,49.11c0,0-2.48,1.36-2.34,2.03c0.11,0.5,2.72,0.11,4.04-0.12c0.41-0.07,0.7-0.46,0.64-0.87l-0.15-1.1
				L26,49.11z" class="color3d2f45 svgShape"></path><path fill="#637c95" d="M44.34,28.24c0,0,1.6,4.56-1.2,6.69C40,37.3,29.69,36.71,29.69,36.71s-0.42,8.63-1.09,9.75
			c-1.18,0.2-2.98-0.1-2.98-0.1s-1.68-7.66-0.6-11.7c0.21-0.78,1.39-2.49,2.61-3.28C32.68,28.13,44.34,28.24,44.34,28.24z" class="color637c95 svgShape"></path><path fill="#f6c06b" d="M36.28,9.92c0,0-3.11,3.25-4.48,3.82c-0.26,0.15-0.23,5.34,1.02,9.32c1.46,4.66-0.48,6.28-0.48,6.28
		s4.78,3.39,12.36,1.21C46.16,27.88,43.19,13.98,36.28,9.92z" class="colorf6c06b svgShape"></path><path fill="#f9d6c0" d="M23.63 27.6c0 0-1.02-.2-1.44-.04-2.54.98-1.71 3.14-1.39 3.14 1.01.02.58-.83 1.76-.92.4-.03.83-.1 1.2-.24 1.06-.4 3.2-1.12 3.2-1.12l-.38-1.37C26.58 27.05 23.81 27.57 23.63 27.6zM30.37 3.9c0 0-2.11 5.16.41 7.8 1.85 1.94 5.79-1.82 5.6-5.14C36.18 3.25 31.86 1.92 30.37 3.9z" class="colorf9d6c0 svgShape"></path><path fill="#2d2035" d="M30.2,4.44c0,0,1.6-0.73,3.52,0.22c0.56,0.15,0.4,1.13,0.4,1.13s1.38,0.28,0.64,2.06
			c-0.41,0.71,0.37,0.32,0.37,0.32s0.23-1.22,0.55-0.99c0.46,0.33,0.43,0.67-0.15,2.32c0.04,0.53,1.88-1.4,2.09-3.87
			c0.07-1.37-0.76-2.77-2.8-3.23c-2.04-0.47-3.99-0.39-4.47-0.09C29.41,2.9,30.2,4.44,30.2,4.44z" class="color2d2035 svgShape"></path><path fill="#2d2035" d="M34.96,2.77c0.09-0.26,0.23-1.86,0.97-1.63c0.74,0.23,1.69,0.76,1.7,1.5c0.01,0.74-1.02,0.83-1.22,0.87
			C36.23,3.56,34.96,2.77,34.96,2.77z" class="color2d2035 svgShape"></path><path fill="#f8cf82" d="M39.1,15.34c0.39,0.59,0.56,1.29,0.52,1.99c-0.07,1.53-0.98,4.33-3.37,7.85
		c-3.01,4.41-11.15,4.79-11.15,4.79l-0.8-2.76c0,0,6.1-1.57,7.69-3.94c1.45-2.16,2.36-6.47,3.46-7.98
		C36.42,13.95,38.1,13.82,39.1,15.34z" class="colorf8cf82 svgShape"></path><path fill="#2d2035" d="M36.28,9.92l-4.59,3.93l-0.08,0.57l5.48-3.94C37.09,10.48,36.57,9.93,36.28,9.92z" class="color2d2035 svgShape"></path><g><polygon fill="#d89c60" points="46.64 25.73 46.31 39.73 62.14 39.73 62.14 25.36" class="colord89c60 svgShape"></polygon><polygon fill="#e5a871" points="48.48 24.2 46.64 25.73 62.14 25.36 64 24.01" class="colore5a871 svgShape"></polygon><polygon fill="#d0955d" points="62.14 39.73 64 38.49 64 24.01 62.14 25.36" class="colord0955d svgShape"></polygon><rect width="5.16" height="5.16" x="52.06" y="29.97" fill="#ffefe1" class="colorffefe1 svgShape"></rect><rect width="3.11" height=".23" x="53.08" y="31.14" fill="#a6a7ab" class="colora6a7ab svgShape"></rect><rect width="3.11" height=".23" x="53.08" y="32" fill="#a6a7ab" class="colora6a7ab svgShape"></rect><rect width="3.11" height=".23" x="53.08" y="32.87" fill="#a6a7ab" class="colora6a7ab svgShape"></rect><rect width="3.11" height=".23" x="53.08" y="33.74" fill="#a6a7ab" class="colora6a7ab svgShape"></rect></g></svg>