<svg xmlns="http://www.w3.org/2000/svg" enable-background="new 0 0 64 64" viewBox="0 0 64 64" width="256" height="256"><ellipse cx="31.15" cy="32.13" fill="#e1f0fa" rx="32.33" ry="25.33" transform="rotate(-25.581 31.154 32.126)" class="colore1f0fa svgShape"></ellipse><path fill="#ffffff" d="M20.52,53.07c-0.59-0.01-1.17-0.04-1.72-0.08l0.03-0.34c0.55,0.04,1.13,0.07,1.7,0.08
			L20.52,53.07z M22.24,53.05l-0.01-0.34c0.56-0.02,1.13-0.06,1.7-0.11l0.03,0.34C23.39,52.99,22.81,53.03,22.24,53.05z M17.08,52.8
			c-0.58-0.09-1.15-0.19-1.7-0.32l0.08-0.33c0.54,0.12,1.1,0.23,1.67,0.32L17.08,52.8z M25.68,52.74l-0.05-0.33
			c0.56-0.08,1.12-0.17,1.69-0.27l0.06,0.33C26.81,52.57,26.24,52.66,25.68,52.74z M29.07,52.12l-0.07-0.33
			c0.55-0.12,1.11-0.26,1.66-0.41l0.09,0.33C30.19,51.86,29.62,52,29.07,52.12z M13.71,52.01c-0.56-0.19-1.1-0.4-1.61-0.64
			l0.14-0.31c0.5,0.23,1.03,0.44,1.58,0.62L13.71,52.01z M32.4,51.24l-0.1-0.32c0.54-0.16,1.08-0.34,1.63-0.53l0.11,0.32
			C33.49,50.89,32.94,51.07,32.4,51.24z M10.57,50.55c-0.09-0.06-0.18-0.12-0.27-0.18l0.19-0.28c0.09,0.06,0.18,0.12,0.27,0.17
			L10.57,50.55z M35.65,50.11l-0.12-0.31c0.53-0.2,1.06-0.42,1.58-0.64l0.13,0.31C36.72,49.68,36.18,49.9,35.65,50.11z M38.82,48.76
			l-0.14-0.31c0.29-0.14,0.59-0.28,0.88-0.42c0.22-0.11,0.44-0.22,0.66-0.33l0.15,0.3c-0.22,0.11-0.44,0.22-0.67,0.33
			C39.41,48.48,39.12,48.62,38.82,48.76z M41.89,47.2l-0.16-0.3c0.5-0.28,1-0.56,1.49-0.85l0.17,0.29
			C42.9,46.64,42.4,46.92,41.89,47.2z M44.85,45.44l-0.18-0.28c0.48-0.31,0.96-0.63,1.42-0.95l0.19,0.28
			C45.82,44.81,45.33,45.13,44.85,45.44z M47.68,43.48l-0.2-0.27c0.45-0.34,0.91-0.69,1.35-1.05l0.21,0.26
			C48.6,42.78,48.14,43.13,47.68,43.48z M5.94,43.38C5.9,43,5.88,42.6,5.88,42.21c0-0.19,0-0.38,0.01-0.57l0.34,0.02
			c-0.01,0.18-0.01,0.37-0.01,0.55c0,0.38,0.02,0.76,0.06,1.14L5.94,43.38z M50.36,41.3l-0.22-0.25c0.43-0.38,0.85-0.77,1.26-1.16
			l0.23,0.24C51.22,40.53,50.79,40.92,50.36,41.3z M6.43,39.98L6.1,39.92c0.1-0.55,0.25-1.12,0.43-1.68l0.32,0.1
			C6.67,38.89,6.53,39.44,6.43,39.98z M52.84,38.91l-0.24-0.23c0.4-0.42,0.78-0.84,1.14-1.27l0.26,0.22
			C53.63,38.06,53.24,38.49,52.84,38.91z M7.44,36.75l-0.31-0.13c0.22-0.51,0.47-1.04,0.75-1.56l0.3,0.16
			C7.9,35.72,7.66,36.24,7.44,36.75z M55.08,36.29l-0.27-0.21c0.35-0.46,0.69-0.92,1-1.39l0.28,0.19
			C55.77,35.35,55.43,35.82,55.08,36.29z M9.03,33.74l-0.29-0.18c0.3-0.48,0.62-0.96,0.97-1.43l0.27,0.2
			C9.65,32.79,9.32,33.27,9.03,33.74z M57,33.42l-0.29-0.17c0.29-0.5,0.56-1.01,0.79-1.51l0.3,0.15C57.57,32.4,57.3,32.91,57,33.42z
			 M11.02,30.97l-0.26-0.21c0.36-0.44,0.74-0.88,1.12-1.31l0.25,0.23C11.75,30.1,11.37,30.54,11.02,30.97z M58.48,30.3l-0.32-0.12
			c0.2-0.54,0.37-1.09,0.5-1.62L59,28.64C58.86,29.19,58.69,29.74,58.48,30.3z M13.31,28.44l-0.24-0.24c0.4-0.4,0.82-0.8,1.24-1.19
			l0.23,0.25C14.12,27.64,13.7,28.04,13.31,28.44z M59.31,26.93l-0.34-0.04c0.05-0.45,0.08-0.9,0.08-1.34c0-0.12,0-0.23-0.01-0.35
			l0.34-0.01c0,0.12,0.01,0.24,0.01,0.36C59.4,26,59.37,26.47,59.31,26.93z M15.83,26.12l-0.22-0.26c0.43-0.37,0.89-0.73,1.34-1.09
			l0.21,0.27C16.7,25.4,16.26,25.76,15.83,26.12z M18.52,24.02l-0.2-0.27c0.46-0.33,0.94-0.66,1.42-0.98l0.19,0.28
			C19.45,23.36,18.98,23.69,18.52,24.02z M58.86,23.53c-0.11-0.55-0.28-1.09-0.49-1.61l0.31-0.13c0.22,0.53,0.39,1.1,0.51,1.67
			L58.86,23.53z M21.37,22.12l-0.18-0.29c0.49-0.3,0.98-0.59,1.48-0.88l0.17,0.29C22.35,21.53,21.85,21.83,21.37,22.12z
			 M57.58,20.44c-0.3-0.46-0.66-0.91-1.05-1.31l0.24-0.23c0.41,0.42,0.77,0.88,1.09,1.36L57.58,20.44z M24.34,20.43l-0.16-0.3
			c0.45-0.24,0.92-0.47,1.38-0.7l0.15-0.07l0.15,0.3l-0.15,0.07C25.25,19.96,24.79,20.19,24.34,20.43z M27.42,18.94l-0.14-0.31
			c0.52-0.23,1.06-0.46,1.59-0.67l0.13,0.31C28.47,18.48,27.94,18.7,27.42,18.94z M55.26,18.01c-0.44-0.33-0.92-0.63-1.42-0.91
			l0.16-0.3c0.52,0.28,1.01,0.6,1.47,0.94L55.26,18.01z M30.59,17.65l-0.12-0.32c0.54-0.2,1.09-0.39,1.63-0.56l0.1,0.32
			C31.67,17.27,31.13,17.46,30.59,17.65z M33.84,16.59l-0.09-0.32c0.56-0.16,1.12-0.31,1.67-0.44l0.08,0.33
			C34.95,16.29,34.4,16.44,33.84,16.59z M52.3,16.39c-0.51-0.2-1.05-0.39-1.61-0.54l0.09-0.32c0.57,0.16,1.12,0.35,1.64,0.55
			L52.3,16.39z M37.16,15.78l-0.07-0.33c0.57-0.11,1.14-0.22,1.7-0.31l0.05,0.33C38.29,15.57,37.72,15.67,37.16,15.78z M49.04,15.45
			c-0.54-0.1-1.11-0.19-1.68-0.26l0.04-0.34c0.58,0.07,1.16,0.15,1.71,0.26L49.04,15.45z M40.54,15.25l-0.04-0.34
			c0.58-0.07,1.15-0.12,1.72-0.15l0.02,0.34C41.68,15.13,41.11,15.18,40.54,15.25z M45.65,15.06c-0.55-0.03-1.13-0.04-1.71-0.03
			l0-0.34c0.58-0.01,1.17,0,1.73,0.03L45.65,15.06z" class="colorfff svgShape"></path><linearGradient id="a" x1="35.101" x2="35.101" y1="4.741" y2="35.758" gradientUnits="userSpaceOnUse"><stop offset=".019" stop-color="#ffffff" class="stopColorfff svgShape"></stop><stop offset=".686" stop-color="#ceede0" class="stopColorceede0 svgShape"></stop></linearGradient><path fill="url(#a)" d="M56.58,5.87v28.75c0,0.62-0.51,1.13-1.13,1.13H14.76c-0.62,0-1.13-0.51-1.13-1.13V5.87
				c0-0.63,0.51-1.13,1.13-1.13h40.69C56.07,4.74,56.58,5.25,56.58,5.87z"></path><linearGradient id="b" x1="35.082" x2="35.082" y1="12.026" y2="51.831" gradientUnits="userSpaceOnUse"><stop offset=".019" stop-color="#ffffff" class="stopColorfff svgShape"></stop><stop offset="1" stop-color="#ceede0" class="stopColorceede0 svgShape"></stop></linearGradient><path fill="url(#b)" d="M54.28,34.69H15.88c-0.75,0-1.35-0.6-1.35-1.35V10.81c0-0.75,0.6-1.35,1.35-1.35h38.41
					c0.74,0,1.35,0.6,1.35,1.35v22.54C55.63,34.09,55.03,34.69,54.28,34.69z"></path><path fill="#323a7b" d="M56.58,5.87v2.6H13.62v-2.6c0-0.63,0.51-1.13,1.13-1.13h40.69C56.07,4.74,56.58,5.25,56.58,5.87z" opacity=".15" class="color323a7b svgShape"></path><linearGradient id="c" x1="16.383" x2="17.514" y1="6.619" y2="6.619" gradientUnits="userSpaceOnUse"><stop offset=".019" stop-color="#fdb6bc" class="stopColorfdb6bc svgShape"></stop><stop offset=".984" stop-color="#fb5cb0" class="stopColorfb5cb0 svgShape"></stop></linearGradient><path fill="url(#c)" d="M17.51,6.62c0,0.31-0.25,0.57-0.57,0.57c-0.31,0-0.57-0.25-0.57-0.57c0-0.31,0.25-0.57,0.57-0.57
						C17.26,6.05,17.51,6.31,17.51,6.62z"></path><linearGradient id="d" x1="18.53" x2="19.661" y1="6.619" y2="6.619" gradientUnits="userSpaceOnUse"><stop offset=".019" stop-color="#fde090" class="stopColorfde090 svgShape"></stop><stop offset="1" stop-color="#fe9a81" class="stopColorfe9a81 svgShape"></stop></linearGradient><path fill="url(#d)" d="M19.66,6.62c0,0.31-0.25,0.57-0.57,0.57c-0.31,0-0.57-0.25-0.57-0.57c0-0.31,0.25-0.57,0.57-0.57
						C19.41,6.05,19.66,6.31,19.66,6.62z"></path><linearGradient id="e" x1="20.677" x2="21.808" y1="6.619" y2="6.619" gradientUnits="userSpaceOnUse"><stop offset="0" stop-color="#74f195" class="stopColor74f195 svgShape"></stop><stop offset="1" stop-color="#03cce0" class="stopColor03cce0 svgShape"></stop></linearGradient><path fill="url(#e)" d="M21.81,6.62c0,0.31-0.25,0.57-0.57,0.57c-0.31,0-0.57-0.25-0.57-0.57c0-0.31,0.25-0.57,0.57-0.57
						C21.56,6.05,21.81,6.31,21.81,6.62z"></path><path fill="#323a7b" d="M31.7,18.92c0,2.88-1.66,5.38-4.07,6.59l-3.31-6.59l7.03-2.23C31.58,17.4,31.7,18.15,31.7,18.92z" opacity=".15" class="color323a7b svgShape"></path><linearGradient id="f" x1="19.467" x2="23.155" y1="13.21" y2="19.598" gradientUnits="userSpaceOnUse"><stop offset=".019" stop-color="#fdb6bc" class="stopColorfdb6bc svgShape"></stop><stop offset=".984" stop-color="#fb5cb0" class="stopColorfb5cb0 svgShape"></stop></linearGradient><path fill="url(#f)" d="M24.32,11.55v7.37h-7.38C16.95,14.85,20.25,11.55,24.32,11.55z"></path><linearGradient id="g" x1="24.324" x2="28.311" y1="11.548" y2="18.452" gradientUnits="userSpaceOnUse"><stop offset="0" stop-color="#955bed" class="stopColor955bed svgShape"></stop><stop offset="1" stop-color="#204ce0" class="stopColor204ce0 svgShape"></stop></linearGradient><path fill="url(#g)" d="M31.36,16.69l-7.03,2.23v-7.37C27.62,11.55,30.41,13.71,31.36,16.69z"></path><linearGradient id="h" x1="18.52" x2="23.241" y1="25.909" y2="18.552" gradientUnits="userSpaceOnUse"><stop offset=".019" stop-color="#fde090" class="stopColorfde090 svgShape"></stop><stop offset="1" stop-color="#fe9a81" class="stopColorfe9a81 svgShape"></stop></linearGradient><path fill="url(#h)" d="M24.32,18.92v7.38c-4.07,0-7.38-3.3-7.38-7.38H24.32z"></path><path fill="#323a7b" d="M27.63 25.52c-.99.5-2.12.78-3.31.78v-7.38L27.63 25.52zM35.03 23.65h.87c.19 0 .34.15.34.34v.87c0 .18-.15.34-.34.34h-.87c-.18 0-.34-.15-.34-.34v-.87C34.69 23.8 34.84 23.65 35.03 23.65z" opacity=".43" class="color323a7b svgShape"></path><path fill="#323a7b" d="M35.03,20.63h0.87c0.19,0,0.34,0.15,0.34,0.34v0.87c0,0.18-0.15,0.34-0.34,0.34h-0.87
					c-0.18,0-0.34-0.15-0.34-0.34v-0.87C34.69,20.78,34.84,20.63,35.03,20.63z" opacity=".15" class="color323a7b svgShape"></path><linearGradient id="i" x1="34.69" x2="36.23" y1="18.384" y2="18.384" gradientUnits="userSpaceOnUse"><stop offset="0" stop-color="#955bed" class="stopColor955bed svgShape"></stop><stop offset="1" stop-color="#204ce0" class="stopColor204ce0 svgShape"></stop></linearGradient><path fill="url(#i)" d="M35.03,17.61h0.87c0.19,0,0.34,0.15,0.34,0.34v0.87c0,0.18-0.15,0.34-0.34,0.34h-0.87
					c-0.18,0-0.34-0.15-0.34-0.34v-0.87C34.69,17.76,34.84,17.61,35.03,17.61z"></path><linearGradient id="j" x1="34.69" x2="36.23" y1="15.367" y2="15.367" gradientUnits="userSpaceOnUse"><stop offset=".019" stop-color="#fde090" class="stopColorfde090 svgShape"></stop><stop offset="1" stop-color="#fe9a81" class="stopColorfe9a81 svgShape"></stop></linearGradient><path fill="url(#j)" d="M35.03,14.6h0.87c0.19,0,0.34,0.15,0.34,0.34v0.87c0,0.18-0.15,0.34-0.34,0.34h-0.87
					c-0.18,0-0.34-0.15-0.34-0.34v-0.87C34.69,14.75,34.84,14.6,35.03,14.6z"></path><linearGradient id="k" x1="34.69" x2="36.23" y1="12.35" y2="12.35" gradientUnits="userSpaceOnUse"><stop offset=".019" stop-color="#fdb6bc" class="stopColorfdb6bc svgShape"></stop><stop offset=".984" stop-color="#fb5cb0" class="stopColorfb5cb0 svgShape"></stop></linearGradient><path fill="url(#k)" d="M35.03,11.58h0.87c0.19,0,0.34,0.15,0.34,0.34v0.87c0,0.18-0.15,0.34-0.34,0.34h-0.87
					c-0.18,0-0.34-0.15-0.34-0.34v-0.87C34.69,11.73,34.84,11.58,35.03,11.58z"></path><path fill="#4e7c84" d="M52.66 12.51H38.04c-.1 0-.18-.08-.18-.18v-.07c0-.1.08-.18.18-.18h14.62c.1 0 .18.08.18.18v.07C52.84 12.43 52.76 12.51 52.66 12.51zM52.66 15.45H38.04c-.1 0-.18-.08-.18-.18V15.2c0-.1.08-.18.18-.18h14.62c.1 0 .18.08.18.18v.07C52.84 15.37 52.76 15.45 52.66 15.45zM52.66 18.57H38.04c-.1 0-.18-.08-.18-.18v-.07c0-.1.08-.18.18-.18h14.62c.1 0 .18.08.18.18v.07C52.84 18.49 52.76 18.57 52.66 18.57zM52.66 21.51H38.04c-.1 0-.18-.08-.18-.18v-.07c0-.1.08-.18.18-.18h14.62c.1 0 .18.08.18.18v.07C52.84 21.43 52.76 21.51 52.66 21.51zM52.66 24.46H38.04c-.1 0-.18-.08-.18-.18v-.07c0-.1.08-.18.18-.18h14.62c.1 0 .18.08.18.18v.07C52.84 24.38 52.76 24.46 52.66 24.46z" opacity=".28" class="color4e7c84 svgShape"></path><linearGradient id="l" x1="16.697" x2="44.252" y1="30.504" y2="30.504" gradientUnits="userSpaceOnUse"><stop offset=".019" stop-color="#fde090" class="stopColorfde090 svgShape"></stop><stop offset="1" stop-color="#fe9a81" class="stopColorfe9a81 svgShape"></stop></linearGradient><path fill="url(#l)" d="M17.17,33.51c0.25-0.54,0.51-1.15,1.03-1.48c0.67-0.43,1.25-0.05,1.79,0.38c0.73,0.58,1.71,1.07,2.46,0.23
				c0.68-0.76,0.99-2.52,2.25-2.55c1.16-0.02,1.78,1.44,2.58,2.06c0.33,0.25,0.72,0.45,1.15,0.46c0.54,0,0.86-0.32,1.14-0.74
				c0.35-0.51,0.68-1.04,1.02-1.56c0.34-0.53,0.7-1.13,1.37-1.26c1.25-0.23,2.18,0.89,2.9,1.73c0.67,0.78,1.46,1.66,2.55,1.76
				c0.63,0.06,1.1-0.24,1.59-0.6c0.59-0.44,1.17-0.88,1.75-1.33c1.16-0.91,2.3-1.85,3.42-2.82c0.25-0.22-0.12-0.59-0.37-0.37
				c-1.03,0.9-2.09,1.77-3.16,2.61c-0.5,0.39-1,0.78-1.51,1.16c-0.59,0.44-1.15,0.99-1.94,0.78c-1.15-0.31-1.83-1.5-2.61-2.3
				c-0.68-0.7-1.6-1.3-2.62-1.15c-1.15,0.17-1.7,1.35-2.27,2.22c-0.29,0.44-0.64,1.33-1.24,1.33c-0.65,0-1.15-0.61-1.53-1.06
				c-0.6-0.71-1.36-1.59-2.4-1.44c-1.1,0.16-1.57,1.25-2.04,2.11c-0.16,0.29-0.34,0.64-0.65,0.8c-0.38,0.2-0.8,0-1.12-0.21
				c-0.48-0.31-0.87-0.75-1.43-0.92c-1.29-0.38-2.09,0.89-2.55,1.88C16.58,33.55,17.03,33.82,17.17,33.51L17.17,33.51z"></path><linearGradient id="m" x1="18.124" x2="19.371" y1="31.425" y2="31.425" gradientUnits="userSpaceOnUse"><stop offset="0" stop-color="#74f195" class="stopColor74f195 svgShape"></stop><stop offset="1" stop-color="#03cce0" class="stopColor03cce0 svgShape"></stop></linearGradient><path fill="url(#m)" d="M19.37,31.43c0,0.34-0.28,0.62-0.62,0.62c-0.34,0-0.62-0.28-0.62-0.62s0.28-0.62,0.62-0.62
					C19.09,30.8,19.37,31.08,19.37,31.43z"></path><linearGradient id="n" x1="31.356" x2="32.603" y1="28.828" y2="28.828" gradientUnits="userSpaceOnUse"><stop offset="0" stop-color="#74f195" class="stopColor74f195 svgShape"></stop><stop offset="1" stop-color="#03cce0" class="stopColor03cce0 svgShape"></stop></linearGradient><path fill="url(#n)" d="M32.6,28.83c0,0.34-0.28,0.62-0.62,0.62s-0.62-0.28-0.62-0.62s0.28-0.62,0.62-0.62
					S32.6,28.48,32.6,28.83z"></path><linearGradient id="o" x1="36.9" x2="38.147" y1="32.274" y2="32.274" gradientUnits="userSpaceOnUse"><stop offset=".019" stop-color="#fd868d" class="stopColorfd868d svgShape"></stop><stop offset=".811" stop-color="#fb438b" class="stopColorfb438b svgShape"></stop></linearGradient><path fill="url(#o)" d="M38.15,32.27c0,0.34-0.28,0.62-0.62,0.62c-0.34,0-0.62-0.28-0.62-0.62
					c0-0.34,0.28-0.62,0.62-0.62C37.87,31.65,38.15,31.93,38.15,32.27z"></path><g><linearGradient id="p" x1="27.84" x2="29.087" y1="32.274" y2="32.274" gradientUnits="userSpaceOnUse" fill="none"><stop offset=".019" stop-color="#fd868d" class="stopColorfd868d svgShape"></stop><stop offset=".811" stop-color="#fb438b" class="stopColorfb438b svgShape"></stop></linearGradient><circle cx="28.46" cy="32.27" r=".62" fill="url(#p)"></circle></g><g><linearGradient id="q" x1="21.126" x2="22.373" y1="32.673" y2="32.673" gradientUnits="userSpaceOnUse" fill="none"><stop offset=".019" stop-color="#fd868d" class="stopColorfd868d svgShape"></stop><stop offset=".811" stop-color="#fb438b" class="stopColorfb438b svgShape"></stop></linearGradient><path fill="url(#q)" d="M22.37,32.67c0,0.34-0.28,0.62-0.62,0.62s-0.62-0.28-0.62-0.62s0.28-0.62,0.62-0.62
					S22.37,32.33,22.37,32.67z"></path></g><g><linearGradient id="r" x1="23.868" x2="25.116" y1="29.88" y2="29.88" gradientUnits="userSpaceOnUse" fill="none"><stop offset="0" stop-color="#74f195" class="stopColor74f195 svgShape"></stop><stop offset="1" stop-color="#03cce0" class="stopColor03cce0 svgShape"></stop></linearGradient><path fill="url(#r)" d="M25.12,29.88c0,0.34-0.28,0.62-0.62,0.62c-0.34,0-0.62-0.28-0.62-0.62s0.28-0.62,0.62-0.62
					C24.84,29.26,25.12,29.54,25.12,29.88z"></path></g><g><linearGradient id="s" x1="43.321" x2="44.569" y1="27.592" y2="27.592" gradientUnits="userSpaceOnUse" fill="none"><stop offset="0" stop-color="#74f195" class="stopColor74f195 svgShape"></stop><stop offset="1" stop-color="#03cce0" class="stopColor03cce0 svgShape"></stop></linearGradient><path fill="url(#s)" d="M44.57,27.59c0,0.34-0.28,0.62-0.62,0.62c-0.34,0-0.62-0.28-0.62-0.62c0-0.34,0.28-0.62,0.62-0.62
					C44.29,26.97,44.57,27.25,44.57,27.59z"></path></g><g><path fill="#f79885" d="M13.36,21.88c-0.31-0.25-1.11-1.07-1.15-1.96c-0.04-0.89,1.91-1.49,2.46-1.29
				c0.99,0.36,1.61,3.38,1.21,3.69C15.76,22.41,14.72,22.97,13.36,21.88z" class="colorf79885 svgShape"></path><path fill="#f0786a" d="M15.87,22.33c-0.05,0.04-0.33,0.19-0.76,0.21L15,21.85
				C15.48,22.41,15.87,22.33,15.87,22.33z" class="colorf0786a svgShape"></path><path fill="#f79885" d="M13.3,21.71c0.07,0.94-0.43,2.77-0.43,2.77c0.25,1.03,1.22,0.24,1.97,0.22
				c0,0,0.41-1.73,0.26-2.73C14.8,19.97,13.18,20.01,13.3,21.71z" class="colorf79885 svgShape"></path><path fill="#51192b" d="M14.79,19.67c0,0,0.83-1.01,0.13-1.72c-0.7-0.71-1.21,0.29-1.21,0.29
				s-1.22-0.43-1.71,0.01c-0.49,0.45,0.14,0.84,0.14,0.84s-0.9,0.48-0.63,1.08c0.27,0.6,0.72,0.65,1.15,1.17
				c0.44,0.52,0.3,1.02,1.32,0.59C15.48,21.3,14.79,19.67,14.79,19.67z" class="color51192b svgShape"></path><path fill="#ffb157" d="M10.43,24.42c0.33,0.49,1.27,1.93-0.47,4.95l-2.18-1.38
			C9.43,25.13,10.11,24.54,10.43,24.42z" class="colorffb157 svgShape"></path><path fill="#f79885" d="M9.95,29.37c-2.18,3.23-4.04,9.86-4.04,9.86c-1.76-0.83-0.17-7.76,1.86-11.24L9.95,29.37z
			" class="colorf79885 svgShape"></path><path fill="#22365b" d="M18.1,57.52h-0.55l-0.06,1.74h2.46l-0.11-0.34C19.83,58.92,18.54,58.66,18.1,57.52z" class="color22365b svgShape"></path><path fill="#008eb0" d="M18.77,34.48c0,0,0.22,18.31-0.26,23.34h-1.47c0,0-0.86-1.56-1.84-5.6
			c-0.64-2.64-1.08-10.04-1.24-17.45L18.77,34.48z" class="color008eb0 svgShape"></path><path fill="#22365b" d="M10.03,57.52H9.5l-0.16,1.74h1.86l-0.11-0.34C11.09,58.92,10.41,58.82,10.03,57.52z" class="color22365b svgShape"></path><path fill="#008eb0" d="M7.82,52.68c0.25,3.41,1.19,5.14,1.19,5.14h1.47c0.24-3.37,4.86-23.35,4.86-23.35
			l-5.36,0.31H9.97C8.69,41.23,7.66,50.48,7.82,52.68z" class="color008eb0 svgShape"></path><path fill="#f3e190" d="M18.82,35.75c-3.17,2.06-9.23,0.23-9.23,0.23c0.58-4.55,0.84-11.56,0.84-11.56
			c5.58-1.03,7.43-0.85,7.43-0.85C19.81,27.13,18.82,35.75,18.82,35.75z" class="colorf3e190 svgShape"></path><path fill="#ffb157" d="M16.59,24c-0.04-0.59,1.48-0.65,3.88-1.93l1.23,2.28C19.4,25.46,17.47,26.21,16.59,24z" class="colorffb157 svgShape"></path><path fill="#f79885" d="M20.47,22.07c1-0.53,2.75-1.61,2.75-1.61s0.24-3.29-0.05-6.28c1.88,0,3.07,6.87,1.27,8.41
			c-1.03,0.88-1.59,1.21-2.75,1.77L20.47,22.07z" class="colorf79885 svgShape"></path><path fill="#f79885" d="M23.61,15.05c0,0-1.48-1.49-1.45-1.58c0.04-0.09,0.61,0.27,0.61,0.27s-0.47-1.3-0.24-1.35
			c0.14-0.02,0.35,0.69,0.35,0.69s-0.04-0.76,0.15-0.75c0.19,0.01,0.69,0.23,0.88,0.58C24.11,13.27,23.61,15.05,23.61,15.05z" class="colorf79885 svgShape"></path><g fill="none"><path fill="#f0786a" d="M6.32,39.95c-0.09,0.3-0.34,1.02-0.7,1.02c-0.16,0-0.65-0.5-0.56-0.86
				c0.09-0.35,0.38-0.86,0.38-0.86L6.32,39.95z" class="colorf0786a svgShape"></path><path fill="#265173" d="M2.45,39.28l-0.79,1.89c-0.2,0.47,0.03,1.01,0.5,1.21l3.29,1.37
					c0.47,0.2,1.01-0.03,1.21-0.5l0.79-1.89c0.2-0.47-0.03-1.01-0.5-1.21l-3.29-1.36C3.19,38.58,2.65,38.81,2.45,39.28z" class="color265173 svgShape"></path><rect width="3.67" height="4.91" x="2.72" y="38.8" fill="#ffffff" transform="rotate(-67.438 4.558 41.26)" class="colorfff svgShape"></rect><path fill="#f79885" d="M5.46,37.95c0.29-0.24,0.96,0.89,0.86,2c0,0-0.55,0.82-0.7,0.74
				c-0.15-0.08,0.22-0.87,0.22-0.87s-1-0.34-0.36-1.2C5.48,38.62,5.28,38.11,5.46,37.95z" class="colorf79885 svgShape"></path></g></g><g><path fill="#f79885" d="M62.56,31.7c0,0-0.02,1.75,0.05,1.79c0.08,0.03,0.21-0.52,0.21-0.52s0.47,1.06,0.64,0.94
			c0.1-0.07-0.19-0.62-0.19-0.62s0.41,0.48,0.52,0.36c0.11-0.12,0.28-0.54,0.19-0.86C63.89,32.48,62.56,31.7,62.56,31.7z" class="colorf79885 svgShape"></path><path fill="#c93b38" d="M54.77,19.52c1.59-0.63,9.67,8.1,8.36,12.41l-1.25,0.32
			C59.37,24.44,54.72,20.91,54.77,19.52z" class="colorc93b38 svgShape"></path><path fill="#f3e190" d="M61.32,53.02H60.7c-1.03-4.34-3.06-12.4-4.02-16.21l0,0c-0.6-2.38-1.08-4.35-1.32-5.52
			l0.83-0.02h0.14l4.19-0.08C61.98,39.66,62.83,50.73,61.32,53.02z" class="colorf3e190 svgShape"></path><polygon fill="#ffb157" points="57.15 38.73 56.35 35.43 56.87 32.4" class="colorffb157 svgShape"></polygon><path fill="#9c2622" d="M60.55,52.91c0-0.03,0.01-0.06,0.01-0.08h0.93c0.14,0.5,0,1.16,0,1.16h-0.23
			c-0.02-0.24-0.11-0.35-0.11-0.35s-0.07,0.11-0.08,0.35h-1.26C60.03,53.77,60.48,53.41,60.55,52.91z" class="color9c2622 svgShape"></path><path fill="#f3e190" d="M56.77,31.18c0.14,2.74-1,19.37-3.16,21.84h-0.57c-0.87-7.9-1.43-18.7-1.01-21.79
			l4.14,0.03L56.77,31.18z" class="colorf3e190 svgShape"></path><path fill="#f79885" d="M52.58,20.11c0.41,0.53,1.1,0.14,1.37-0.39c0,0-0.92-1.39-1.41-2.38
			c-0.38-0.76-0.91,0.43-0.56,1.43C52.14,19.21,52.58,20.11,52.58,20.11z" class="colorf79885 svgShape"></path><path fill="#f79885" d="M52.72,17.22c0,0-0.17-1.45-0.77-1.93c-0.6-0.48-2.04,0.25-2.1,0.8
			c-0.06,0.51,0.47,2.48,1.76,3.14c0.14,0.07,0.4-0.01,0.52-0.11C52.92,18.44,52.72,17.22,52.72,17.22z" class="colorf79885 svgShape"></path><path fill="#eb5654" d="M60.57,31.16c-1.72,1.43-5.58,1.68-8.86,1.2c0-0.03,0.02-1,0.04-2.42
			c0.02-2.19,0.04-5.46-0.03-8.01c-0.02-0.5-0.03-0.97-0.06-1.39c1.82-1.52,3.6-1.03,3.6-1.03C59.27,24.24,60.57,31.16,60.57,31.16z
			" class="coloreb5654 svgShape"></path><path fill="#c93b38" d="M51.74,29.94c0.02-2.19,0.04-5.46-0.03-8.01c0.05-0.07,0.1-0.13,0.16-0.18
			C52.74,22.21,53.02,26.42,51.74,29.94z" class="colorc93b38 svgShape"></path><path fill="#22365b" d="M50.15,15.5c-0.54-0.14-1.21,0.53-0.68,1.11c0.6,0.65,0.85-0.32,1.49,0.74
			c0,0-0.05-0.37,0.11-0.32c0.23,0.07,0.23,0.51,0.11,0.69c0.67,0.97,0.67,1.81,0.48,2.24c1.23,0.38,2.53-0.02,2.78-0.94
			C54.9,17.39,52.06,13,50.15,15.5z" class="color22365b svgShape"></path><path fill="#9c2622" d="M52.81,52.91c0.01-0.03,0.01-0.06,0.02-0.08h1.02c0.11,0.48-0.04,1.16-0.04,1.16h-0.15
			c-0.06-0.79-0.34-0.33-0.37,0h-1.8C52,53.85,52.68,53.33,52.81,52.91z" class="color9c2622 svgShape"></path><path fill="#f79885" d="M45.83,32.69c0,0-1.74,0.24-1.76,0.32c-0.02,0.08,0.54,0.13,0.54,0.13
			s-0.97,0.63-0.84,0.78c0.08,0.09,0.59-0.28,0.59-0.28s-0.41,0.48-0.28,0.57c0.13,0.09,0.57,0.19,0.88,0.06
			C45.26,34.12,45.83,32.69,45.83,32.69z" class="colorf79885 svgShape"></path><path fill="#eb5654" d="M51.65,20.54c1.52,0.79,1.26,12.82-5.83,13.08l-0.71-0.8
			C50.86,27.75,50.57,21.41,51.65,20.54z" class="coloreb5654 svgShape"></path></g></svg>