<svg xmlns="http://www.w3.org/2000/svg" enable-background="new 0 0 66 66" viewBox="0 0 66 66" width="256" height="256"><path fill="#c4c2c0" d="M8.1,64.9l-5-2.9c-0.4-0.2-0.6-0.7-0.6-1.3l5,2.9C7.5,64.2,7.8,64.7,8.1,64.9z" class="colorc4c2c0 svgShape"></path><polygon fill="#e2e3e5" points="33.5 13.8 29.9 11.7 37.5 7.3 41.1 9.4" class="colore2e3e5 svgShape"></polygon><path fill="#e2e3e5" d="M32.1,13.9l-3.6-2.1c0.4,0.2,0.9,0.2,1.4-0.1l3.6,2.1C33,14.1,32.5,14.2,32.1,13.9z" class="colore2e3e5 svgShape"></path><path fill="#cfd0d1" d="M32.1,13.9l-3.6-2.1c-0.4-0.2-0.6-0.7-0.6-1.3l3.6,2.1C31.5,13.3,31.7,13.7,32.1,13.9z" class="colorcfd0d1 svgShape"></path><polygon fill="#e2e3e5" points="31.5 3.9 27.9 1.8 37.5 7.3 41.1 9.4" class="colore2e3e5 svgShape"></polygon><polygon fill="#cfd0d1" points="31.5 12.7 27.9 10.5 27.9 1.8 31.5 3.9" class="colorcfd0d1 svgShape"></polygon><path fill="#d6d4d2" d="M31.5,3.9l9.6,5.5l-7.6,4.4c-1.1,0.6-2,0.1-2-1.1L31.5,3.9z" class="colord6d4d2 svgShape"></path><polygon fill="#d6d4d2" points="7.5 63.6 2.5 60.7 2.4 17.2 7.4 20.1" class="colord6d4d2 svgShape"></polygon><polygon fill="#c4c2c0" points="7.5 63.6 2.5 60.7 2.4 32.9 7.5 35.8" class="colorc4c2c0 svgShape"></polygon><polygon fill="#d6d4d2" points="7.5 63.6 2.5 60.7 2.4 46.1 7.5 49" class="colord6d4d2 svgShape"></polygon><polygon fill="#c4c2c0" points="9.4 16.7 4.4 13.8 26.5 1 31.5 3.9" class="colorc4c2c0 svgShape"></polygon><polygon fill="#d6d4d2" points="9.4 16.7 4.4 13.8 18.6 5.5 23.6 8.5" class="colord6d4d2 svgShape"></polygon><path fill="#c4c2c0" d="M7.4,20.1l-5-2.9c0-1.3,0.9-2.8,2-3.5l5,2.9C8.3,17.3,7.4,18.8,7.4,20.1z" class="colorc4c2c0 svgShape"></path><path fill="#e9e8e6" d="M41.2,44.1c0,1.3-0.9,2.8-2,3.5L9.5,64.7c-1.1,0.6-2,0.1-2-1.1L7.4,20.1c0-1.3,0.9-2.8,2-3.5L31.5,3.9
								l0,8.7c0,1.3,0.9,1.8,2,1.1l7.6-4.4L41.2,44.1z" class="colore9e8e6 svgShape"></path><g><polygon fill="#cc4848" points="31.9 46.2 30.8 45.6 30.8 42.6 31.9 43.2" class="colorcc4848 svgShape"></polygon><polygon fill="#8d9799" points="31.9 43.2 30.8 42.6 30.8 41.5 31.9 42.1" class="color8d9799 svgShape"></polygon><polygon fill="#cc4848" points="31.9 42.1 30.8 41.5 30.8 38.5 31.9 39.1" class="colorcc4848 svgShape"></polygon><polygon fill="#f25a5a" points="31.9 39.1 30.8 38.5 36.9 35 38 35.6" class="colorf25a5a svgShape"></polygon><polygon fill="#dd4a4a" points="38 35.6 38.1 42.6 31.9 46.2 31.9 43.2 31.9 42.1 31.9 39.1" class="colordd4a4a svgShape"></polygon><polygon fill="#8d9799" points="17.8 51.4 16.7 50.7 16.7 49.6 17.8 50.2" class="color8d9799 svgShape"></polygon><polygon fill="#7e8a8c" points="17.8 50.2 16.7 49.6 30.8 41.5 31.9 42.1" class="color7e8a8c svgShape"></polygon><polygon fill="#a0a8aa" points="31.9 42.1 31.9 43.2 17.8 51.4 17.8 50.2" class="colora0a8aa svgShape"></polygon></g><g><polygon fill="#0a7891" points="24.9 43.7 23.8 43.1 24.3 42.2 25.4 42.9" class="color0a7891 svgShape"></polygon><polygon fill="#0a7891" points="30.3 34.2 29.2 33.6 29.7 32.7 30.8 33.4" class="color0a7891 svgShape"></polygon><polygon fill="#086579" points="24.4 43.4 23.3 42.8 23.8 43.1 24.9 43.7" class="color086579 svgShape"></polygon><polygon fill="#8d9799" points="24.4 46.5 23.3 45.8 23.3 42.8 24.4 43.4" class="color8d9799 svgShape"></polygon><polygon fill="#a0a8aa" points="25.4 42.9 25.4 45.9 24.4 46.5 24.4 43.4 24.9 43.7" class="colora0a8aa svgShape"></polygon><polygon fill="#086479" points="24.8 30 23.7 29.3 29.7 32.7 30.8 33.4" class="color086479 svgShape"></polygon><polygon fill="#7e8a8c" points="30.3 33.1 29.2 32.5 30.8 31.6 31.8 32.2" class="color7e8a8c svgShape"></polygon><polygon fill="#a0a8aa" points="32.8 27.6 32.8 32.8 30.3 34.2 30.8 33.4 30.3 33.1 31.8 32.2 31.8 28.2" class="colora0a8aa svgShape"></polygon><polygon fill="#7e8a8c" points="31.8 28.2 30.7 27.6 31.7 27 32.8 27.6" class="color7e8a8c svgShape"></polygon><polygon fill="#8d9799" points="31.8 32.2 30.8 31.6 30.7 27.6 31.8 28.2" class="color8d9799 svgShape"></polygon><polygon fill="#3db542" points="31.8 28.2 30.7 27.6 30.7 20.5 31.8 21.2" class="color3db542 svgShape"></polygon><polygon fill="#6dcb60" points="37.9 17.6 38 24.7 32.8 27.6 31.8 28.2 31.8 21.2" class="color6dcb60 svgShape"></polygon><polygon fill="#81d672" points="31.8 21.2 30.7 20.5 36.9 17 37.9 17.6" class="color81d672 svgShape"></polygon><polygon fill="#086479" points="18.9 40.3 17.8 39.6 18.3 39.9 19.4 40.6" class="color086479 svgShape"></polygon><polygon fill="#0a7891" points="18.9 40.3 17.8 39.6 18.3 38.8 19.4 39.4" class="color0a7891 svgShape"></polygon><polygon fill="#efc348" points="24.8 30 30.8 33.4 30.3 34.2 24.9 43.7 19.4 40.6 18.9 40.3 19.4 39.4" class="colorefc348 svgShape"></polygon><polygon fill="#ffd651" points="19.4 39.4 18.3 38.8 23.7 29.3 24.8 30" class="colorffd651 svgShape"></polygon><polygon fill="#7e8a8c" points="18 40.2 16.9 39.6 18.3 38.8 19.4 39.4" class="color7e8a8c svgShape"></polygon><polygon fill="#7e8a8c" points="24.3 24.8 23.2 24.2 24.2 23.6 25.3 24.3" class="color7e8a8c svgShape"></polygon><polygon fill="#8d9799" points="24.3 30.8 23.2 30.2 23.2 24.2 24.3 24.8" class="color8d9799 svgShape"></polygon><polygon fill="#a0a8aa" points="25.3 24.3 25.3 30.2 24.8 30 24.3 30.8 24.3 24.8" class="colora0a8aa svgShape"></polygon><polygon fill="#8d9799" points="17 41.9 15.9 41.3 15.9 36.1 17 36.8" class="color8d9799 svgShape"></polygon><polygon fill="#a0a8aa" points="18 36.2 18 40.2 19.4 39.4 18.9 40.3 19.4 40.6 17 41.9 17 36.8" class="colora0a8aa svgShape"></polygon><polygon fill="#7e8a8c" points="17 36.8 15.9 36.1 16.9 35.6 18 36.2" class="color7e8a8c svgShape"></polygon></g><g><polygon fill="#cc4848" points="19.1 27.9 18 27.2 18 21 19.1 21.6" class="colorcc4848 svgShape"></polygon><polygon fill="#f25a5a" points="19.1 21.6 18 21 29.6 14.3 30.7 14.9" class="colorf25a5a svgShape"></polygon><polygon fill="#dd4a4a" points="30.7 14.9 30.7 21.2 25.3 24.3 24.3 24.8 19.1 27.9 19.1 21.6" class="colordd4a4a svgShape"></polygon></g><g><polygon fill="#3db542" points="11.9 39.7 10.8 39.1 10.7 32.1 11.8 32.7" class="color3db542 svgShape"></polygon><polygon fill="#81d672" points="11.8 32.7 10.7 32.1 16.9 28.5 18 29.2" class="color81d672 svgShape"></polygon><polygon fill="#6dcb60" points="18 29.2 18 36.2 17 36.8 11.9 39.7 11.8 32.7" class="color6dcb60 svgShape"></polygon></g><g><polygon fill="#dd4a4a" points="11.7 57.9 10.6 57.2 10.6 50.2 11.7 50.8" class="colordd4a4a svgShape"></polygon><polygon fill="#f25a5a" points="11.7 50.8 10.6 50.2 16.7 46.6 17.8 47.3" class="colorf25a5a svgShape"></polygon><polygon fill="#dd4a4a" points="17.8 47.3 17.8 54.3 11.7 57.9 11.7 50.8" class="colordd4a4a svgShape"></polygon></g><g><polygon fill="#006cb5" points="59.7 40.2 57.6 39 60 38.1 62.1 39.3" class="color006cb5 svgShape"></polygon><polygon fill="#006cb5" points="47.8 64 45.7 62.8 45.2 60 47.3 61.2" class="color006cb5 svgShape"></polygon><path fill="#00649b" d="M45.3,56.3l-2.1-1.2c1.1,0.7,2.7,0.6,4.5-0.4l2.1,1.2C48,56.9,46.4,57,45.3,56.3z" class="color00649b svgShape"></path><path fill="#00649b" d="M52,39.9l2.1,1.2c1.1,0.7,1.8,2,1.8,4c0,4-2.8,8.8-6.2,10.8l-2.1-1.2c3.5-2,6.2-6.8,6.2-10.8
						C53.9,41.9,53.2,40.5,52,39.9z" class="color00649b svgShape"></path><polygon fill="#3f9ae0" points="57.1 32.8 55 31.6 57.7 33.2 59.8 34.4" class="color3f9ae0 svgShape"></polygon><polygon fill="#006cb5" points="39.6 63 37.5 61.8 39.2 58.1 41.3 59.3" class="color006cb5 svgShape"></polygon><polygon fill="#006cb5" points="55 35.7 52.8 34.5 55 31.6 57.1 32.8" class="color006cb5 svgShape"></polygon><path fill="#3f9ae0" d="M50.8,42l2.1,1.2c-0.8-0.5-2-0.4-3.2,0.3l-2.1-1.2C48.9,41.5,50,41.5,50.8,42z" class="color3f9ae0 svgShape"></path><path fill="#00649b" d="M41.3,59.3l-2.1-1.2c-0.4-0.6-0.8-1.4-1-2.2l2.1,1.2C40.5,57.9,40.8,58.7,41.3,59.3z" class="color00649b svgShape"></path><path fill="#006cb5" d="M46.5,54.2L44.4,53c-0.8-0.5-1.3-1.5-1.3-2.9c0-2.9,2-6.4,4.5-7.8l2.1,1.2c-2.5,1.4-4.5,5-4.5,7.8
						C45.2,52.8,45.7,53.8,46.5,54.2z" class="color006cb5 svgShape"></path><path fill="#00649b" d="M52.1,36.1L50,34.8c1-0.3,2-0.4,2.8-0.4l2.1,1.2C54.1,35.6,53.1,35.7,52.1,36.1z" class="color00649b svgShape"></path><path fill="#0074d1" d="M62.1,43.8l-2.4,1.9c-0.3,1.4-0.7,2.7-1.2,4.1l1.4,1.5l-2.7,4.7L55,55.7c-0.9,1.1-1.8,2.1-2.8,2.9
						l-0.5,3.3L47.8,64l-0.5-2.8c-0.9,0.2-1.8,0.3-2.6,0.2l-2.3,3.2L39.6,63l1.6-3.7c-0.4-0.6-0.8-1.4-1-2.2l-2.9,1l0-4.5l2.9-2.3
						c0.2-1.1,0.6-2.3,1-3.4l-1.7-1.8l2.7-4.7l2.4,0.5c0.8-1,1.7-2,2.6-2.8l0.5-3.4l3.9-2.2l0.5,2.7c1-0.3,2-0.4,2.8-0.4l2.1-2.9
						l2.8,1.6l-1.4,3.2c0.6,0.7,1,1.6,1.3,2.7l2.4-0.9L62.1,43.8z M49.7,55.9c3.5-2,6.2-6.8,6.2-10.8c0-4-2.8-5.6-6.3-3.6
						c-3.5,2-6.2,6.8-6.2,10.8C43.5,56.3,46.3,57.9,49.7,55.9" class="color0074d1 svgShape"></path><path fill="#0074d1" d="M49.7,43.5c2.5-1.4,4.5-0.3,4.6,2.6c0,2.9-2,6.4-4.5,7.8c-2.5,1.4-4.5,0.3-4.6-2.6
						C45.2,48.5,47.2,44.9,49.7,43.5z" class="color0074d1 svgShape"></path><path fill="#00649b" d="M40.3 51.3l-2.1-1.2c.2-1.1.6-2.3 1-3.4l2.1 1.2C40.8 49 40.5 50.2 40.3 51.3zM44.7 41.8l-2.1-1.2c.8-1 1.7-2 2.6-2.8l2.1 1.2C46.3 39.9 45.5 40.8 44.7 41.8z" class="color00649b svgShape"></path><polygon fill="#006cb5" points="37.3 53.6 35.2 52.4 38.1 50.1 40.3 51.3" class="color006cb5 svgShape"></polygon><polygon fill="#3f9ae0" points="37.4 58.1 35.2 56.9 35.2 52.4 37.3 53.6" class="color3f9ae0 svgShape"></polygon><polygon fill="#006cb5" points="47.2 39 45.1 37.8 45.6 34.4 47.7 35.6" class="color006cb5 svgShape"></polygon><polygon fill="#3f9ae0" points="47.7 35.6 45.6 34.4 49.5 32.1 51.6 33.4" class="color3f9ae0 svgShape"></polygon><polygon fill="#006cb5" points="41.2 47.9 39.1 46.7 37.5 44.9 39.6 46.1" class="color006cb5 svgShape"></polygon><polygon fill="#3f9ae0" points="39.6 46.1 37.5 44.9 40.2 40.1 42.3 41.3" class="color3f9ae0 svgShape"></polygon><polygon fill="#3f9ae0" points="42.3 41.3 40.2 40.1 42.6 40.6 44.7 41.8" class="color3f9ae0 svgShape"></polygon></g><g><polygon fill="#7e8a8c" points="41.1 27.1 39.7 26.2 39.7 19.3 41.1 20.1" class="color7e8a8c svgShape"></polygon><polygon fill="#a0a8aa" points="41.1 20.1 39.7 19.3 62.2 6.3 63.6 7.1" class="colora0a8aa svgShape"></polygon><polygon fill="#7e8a8c" points="41.1 20.1 39.7 19.3 55.2 10.3 56.6 11.1" class="color7e8a8c svgShape"></polygon><polygon fill="#a0a8aa" points="41.1 20.1 39.7 19.3 48.3 14.3 49.7 15.1" class="colora0a8aa svgShape"></polygon><polygon fill="#8d9799" points="63.6 7.1 63.6 14 41.1 27.1 41.1 20.1" class="color8d9799 svgShape"></polygon></g><g><path fill="#b2b0af" d="M47.5,20.6l-0.3-0.2c0.1-0.2,0.1-0.3,0.1-0.5c0-0.2,0-0.3-0.1-0.4l0.3,0.2c0.1,0.1,0.1,0.2,0.1,0.4
						C47.6,20.3,47.6,20.5,47.5,20.6z" class="colorb2b0af svgShape"></path><path fill="#b2b0af" d="M46.5 21.4l-.3-.2c0 0 .1 0 .1 0 .1 0 .2 0 .3-.1.1-.1.2-.2.4-.3.1-.1.2-.3.2-.4l.3.2c-.1.2-.1.3-.2.4-.1.1-.2.2-.4.3-.1.1-.2.1-.3.1C46.5 21.5 46.5 21.4 46.5 21.4zM47.2 19.5l.3.2c0 0 .1.1.1.1l-.3-.2C47.2 19.6 47.2 19.6 47.2 19.5z" class="colorb2b0af svgShape"></path><path fill="#b2b0af" d="M46.1,22l-0.3-0.2c-0.1,0-0.1-0.1-0.2-0.1c-0.1-0.1-0.2-0.3-0.2-0.6c0-0.2,0-0.5,0.2-0.8
						c0.1-0.3,0.2-0.5,0.4-0.7c0.2-0.2,0.4-0.4,0.6-0.5c0.2-0.1,0.4-0.2,0.6-0.2c0.1,0,0.2,0,0.3,0.1l0.3,0.2
						c-0.1,0-0.2-0.1-0.3-0.1c-0.2,0-0.4,0.1-0.6,0.2c-0.2,0.1-0.4,0.3-0.6,0.5c-0.2,0.2-0.3,0.5-0.4,0.7c-0.1,0.3-0.2,0.5-0.2,0.8
						c0,0.2,0.1,0.4,0.2,0.6C45.9,21.9,46,21.9,46.1,22z" class="colorb2b0af svgShape"></path><path fill="#ffffff" d="M48,19.3c0.1,0.1,0.2,0.3,0.2,0.6c0,0.2-0.1,0.5-0.2,0.8c-0.1,0.3-0.2,0.5-0.4,0.7
						c-0.2,0.2-0.4,0.4-0.6,0.5C46.7,22,46.5,22,46.3,22c-0.2,0-0.3-0.1-0.4-0.2c-0.1-0.1-0.2-0.3-0.2-0.6c0-0.2,0-0.5,0.2-0.8
						c0.1-0.3,0.2-0.5,0.4-0.7c0.2-0.2,0.4-0.4,0.6-0.5c0.2-0.1,0.4-0.2,0.6-0.2C47.7,19.1,47.9,19.2,48,19.3z M47.5,20.6
						c0.1-0.2,0.1-0.3,0.1-0.5c0-0.2,0-0.3-0.1-0.4c-0.1-0.1-0.1-0.1-0.2-0.1c-0.1,0-0.2,0-0.4,0.1c-0.1,0.1-0.2,0.2-0.3,0.3
						c-0.1,0.1-0.2,0.3-0.2,0.4c-0.1,0.2-0.1,0.3-0.1,0.5c0,0.2,0,0.3,0.1,0.4c0.1,0.1,0.1,0.1,0.2,0.1c0.1,0,0.2,0,0.3-0.1
						c0.1-0.1,0.2-0.2,0.4-0.3C47.4,20.9,47.5,20.8,47.5,20.6" class="colorfff svgShape"></path><polygon fill="#b2b0af" points="44.6 22.4 44.4 22.2 44.9 20.2 45.1 20.3" class="colorb2b0af svgShape"></polygon><polygon fill="#b2b0af" points="45.1 20.3 44.9 20.2 45.4 19.9 45.6 20.1" class="colorb2b0af svgShape"></polygon><polygon fill="#b2b0af" points="44.4 23.3 44.1 23.1 43.6 21.7 43.9 21.9" class="colorb2b0af svgShape"></polygon><polygon fill="#b2b0af" points="43.2 23.2 42.9 23.1 43.4 21 43.7 21.2" class="colorb2b0af svgShape"></polygon><polygon fill="#b2b0af" points="43.7 21.2 43.4 21 43.9 20.8 44.1 20.9" class="colorb2b0af svgShape"></polygon><polygon fill="#b2b0af" points="42.1 22.1 41.9 21.9 42.4 21.6 42.7 21.8" class="colorb2b0af svgShape"></polygon><polygon fill="#b2b0af" points="42.9 24.2 42.6 24 41.9 21.9 42.1 22.1" class="colorb2b0af svgShape"></polygon><polygon fill="#ffffff" points="45.6 20.1 44.9 23 44.4 23.3 43.9 21.9 43.4 23.9 42.9 24.2 42.1 22.1 42.7 21.8 43.2 23.2 43.7 21.2 44.1 20.9 44.6 22.4 45.1 20.3" class="colorfff svgShape"></polygon><g fill="none"><polygon fill="#b2b0af" points="49.9 20.1 49.6 19.9 49.2 19.5 49.5 19.6" class="colorb2b0af svgShape"></polygon><path fill="#b2b0af" d="M49.4 19.2l-.3-.2c.2-.1.3-.2.3-.3l.3.2C49.7 19 49.6 19.1 49.4 19.2zM49.5 18.1l.3.2c.1 0 .1.1.1.2 0 .1 0 .3-.1.4l-.3-.2c.1-.1.1-.3.1-.4C49.6 18.2 49.6 18.1 49.5 18.1z" class="colorb2b0af svgShape"></path><polygon fill="#b2b0af" points="49 19.4 48.7 19.3 49.2 19.1 49.4 19.2" class="colorb2b0af svgShape"></polygon><path fill="#b2b0af" d="M49.9,17.6l0.3,0.2c-0.1,0-0.1-0.1-0.2,0c-0.1,0-0.3,0.1-0.5,0.2l-0.3-0.2c0.2-0.1,0.4-0.2,0.5-0.2
						C49.8,17.5,49.9,17.5,49.9,17.6z" class="colorb2b0af svgShape"></path><polygon fill="#b2b0af" points="48.5 18.4 48.2 18.2 49.2 17.7 49.5 17.8" class="colorb2b0af svgShape"></polygon><polygon fill="#b2b0af" points="48.5 20.9 48.2 20.7 48.2 18.2 48.5 18.4" class="colorb2b0af svgShape"></polygon><path fill="#ffffff" d="M50,19.3l0.5,0.5l-0.5,0.3l-0.4-0.5l0,0L49,19.9l0,0.7l-0.5,0.3l0-2.5l0.9-0.5c0.2-0.1,0.4-0.2,0.5-0.2
						c0.1,0,0.3,0,0.3,0.1c0.1,0.1,0.1,0.2,0.1,0.4c0,0.2,0,0.4-0.1,0.5C50.2,18.9,50.1,19.1,50,19.3z M49.8,18.9
						c0.1-0.1,0.1-0.3,0.1-0.4c0-0.1,0-0.2-0.1-0.3c-0.1,0-0.2,0-0.3,0.1L49,18.6l0,0.9l0.4-0.2C49.6,19.1,49.7,19,49.8,18.9" class="colorfff svgShape"></path></g><g fill="none"><polygon fill="#b2b0af" points="53.6 16.6 53.3 16.4 54.4 15.8 54.6 16" class="colorb2b0af svgShape"></polygon><polygon fill="#b2b0af" points="53.1 18.2 52.8 18.1 52.8 15.6 53.1 15.7" class="colorb2b0af svgShape"></polygon><polygon fill="#b2b0af" points="53.1 15.7 52.8 15.6 54.5 14.6 54.8 14.8" class="colorb2b0af svgShape"></polygon><polygon fill="#ffffff" points="54.8 14.8 54.8 15.3 53.6 15.9 53.6 16.6 54.6 16 54.6 16.5 53.6 17 53.6 18 53.1 18.2 53.1 15.7" class="colorfff svgShape"></polygon></g><g fill="none"><polygon fill="#b2b0af" points="52.3 18.7 52 18.6 51.3 18 51.6 18.1" class="colorb2b0af svgShape"></polygon><polygon fill="#b2b0af" points="51.3 18 51 17.8 52 16.1 52.3 16.2" class="colorb2b0af svgShape"></polygon><polygon fill="#b2b0af" points="52.3 16.2 52 16.1 52.6 15.7 52.8 15.9" class="colorb2b0af svgShape"></polygon><polygon fill="#b2b0af" points="50.8 17.1 50.5 16.9 51 16.6 51.3 16.8" class="colorb2b0af svgShape"></polygon><polygon fill="#b2b0af" points="50.8 19.6 50.5 19.4 50.5 16.9 50.8 17.1" class="colorb2b0af svgShape"></polygon><polygon fill="#ffffff" points="52.8 15.9 51.9 17.5 52.9 18.4 52.3 18.7 51.6 18.1 51.3 18.7 51.3 19.3 50.8 19.6 50.8 17.1 51.3 16.8 51.3 18 52.3 16.2" class="colorfff svgShape"></polygon></g><g fill="none"><polygon fill="#b2b0af" points="61.8 12.5 61.5 12.3 62 10.3 62.3 10.4" class="colorb2b0af svgShape"></polygon><polygon fill="#b2b0af" points="62.3 10.4 62 10.3 62.5 10 62.8 10.1" class="colorb2b0af svgShape"></polygon><polygon fill="#b2b0af" points="61.6 13.4 61.3 13.2 60.8 11.8 61.1 12" class="colorb2b0af svgShape"></polygon><polygon fill="#b2b0af" points="60.3 13.3 60.1 13.2 60.6 11.1 60.8 11.3" class="colorb2b0af svgShape"></polygon><polygon fill="#b2b0af" points="60.8 11.3 60.6 11.1 61 10.8 61.3 11" class="colorb2b0af svgShape"></polygon><polygon fill="#b2b0af" points="59.3 12.2 59 12 59.6 11.7 59.8 11.9" class="colorb2b0af svgShape"></polygon><polygon fill="#b2b0af" points="60 14.2 59.8 14.1 59 12 59.3 12.2" class="colorb2b0af svgShape"></polygon><polygon fill="#ffffff" points="62.8 10.1 62.1 13.1 61.6 13.4 61.1 12 60.6 13.9 60 14.2 59.3 12.2 59.8 11.9 60.3 13.3 60.8 11.3 61.3 11 61.8 12.5 62.3 10.4" class="colorfff svgShape"></polygon></g><g fill="none"><path fill="#b2b0af" d="M58.6 14.2l-.3-.2c.1-.2.1-.3.1-.5 0-.2 0-.3-.1-.4l.3.2c.1.1.1.2.1.4C58.7 13.9 58.7 14.1 58.6 14.2zM57.5 15l-.3-.2c0 0 .1 0 .1 0 .1 0 .2 0 .3-.1.1-.1.2-.2.4-.3.1-.1.2-.3.2-.4l.3.2c-.1.2-.1.3-.2.4-.1.1-.2.2-.4.3-.1.1-.2.1-.3.1C57.6 15.1 57.6 15 57.5 15z" class="colorb2b0af svgShape"></path><path fill="#b2b0af" d="M58.2,13.1l0.3,0.2c0,0,0.1,0.1,0.1,0.1l-0.3-0.2C58.3,13.2,58.3,13.2,58.2,13.1z" class="colorb2b0af svgShape"></path><path fill="#b2b0af" d="M57.1,15.6l-0.3-0.2c-0.1,0-0.1-0.1-0.2-0.1c-0.1-0.1-0.2-0.3-0.2-0.6c0-0.2,0-0.5,0.2-0.8
						c0.1-0.3,0.2-0.5,0.4-0.7c0.2-0.2,0.4-0.4,0.6-0.5c0.2-0.1,0.4-0.2,0.6-0.2c0.1,0,0.2,0,0.3,0.1l0.3,0.2
						c-0.1,0-0.2-0.1-0.3-0.1c-0.2,0-0.4,0.1-0.6,0.2c-0.2,0.1-0.4,0.3-0.6,0.5c-0.2,0.2-0.3,0.5-0.4,0.7c-0.1,0.3-0.2,0.5-0.2,0.8
						c0,0.2,0.1,0.4,0.2,0.6C57,15.5,57.1,15.5,57.1,15.6z" class="colorb2b0af svgShape"></path><path fill="#ffffff" d="M59,12.9c0.1,0.1,0.2,0.3,0.2,0.6c0,0.2-0.1,0.5-0.2,0.8c-0.1,0.3-0.2,0.5-0.4,0.7
						c-0.2,0.2-0.4,0.4-0.6,0.5c-0.2,0.1-0.4,0.2-0.6,0.2c-0.2,0-0.3-0.1-0.4-0.2c-0.1-0.1-0.2-0.3-0.2-0.6c0-0.2,0-0.5,0.2-0.8
						c0.1-0.3,0.2-0.5,0.4-0.7c0.2-0.2,0.4-0.4,0.6-0.5c0.2-0.1,0.4-0.2,0.6-0.2C58.8,12.7,58.9,12.8,59,12.9z M58.6,14.2
						c0.1-0.2,0.1-0.3,0.1-0.5c0-0.2,0-0.3-0.1-0.4c-0.1-0.1-0.1-0.1-0.2-0.1c-0.1,0-0.2,0-0.4,0.1c-0.1,0.1-0.2,0.2-0.3,0.3
						c-0.1,0.1-0.2,0.3-0.2,0.4c-0.1,0.2-0.1,0.3-0.1,0.5c0,0.2,0,0.3,0.1,0.4c0.1,0.1,0.1,0.1,0.2,0.1c0.1,0,0.2,0,0.3-0.1
						c0.1-0.1,0.2-0.2,0.4-0.3C58.5,14.5,58.5,14.4,58.6,14.2" class="colorfff svgShape"></path></g><g fill="none"><polygon fill="#b2b0af" points="55.6 16.3 55.3 16.2 56.4 15.5 56.7 15.7" class="colorb2b0af svgShape"></polygon><polygon fill="#b2b0af" points="55.1 17.1 54.8 16.9 54.8 14.4 55.1 14.6" class="colorb2b0af svgShape"></polygon><polygon fill="#b2b0af" points="55.1 14.6 54.8 14.4 55.3 14.1 55.6 14.3" class="colorb2b0af svgShape"></polygon><polygon fill="#ffffff" points="55.6 14.3 55.6 16.3 56.7 15.7 56.7 16.2 55.1 17.1 55.1 14.6" class="colorfff svgShape"></polygon></g></g></svg>