<svg xmlns="http://www.w3.org/2000/svg" enable-background="new 0 0 64 64" viewBox="0 0 64 64" width="256" height="256"><path fill="#254b90" d="M32.38,48.38c0,4.82-1.14,9.16-3.35,10.25c-2.22,1.09-4.67-2.16-4.67-7.8c0-5.64,1.8-10.42,4.01-10.69
				C30.58,39.88,32.38,43.57,32.38,48.38z" class="color254b90 svgShape"></path><path fill="#d0d2d3" d="M30.82,48.86c0,3.05-0.44,6.07-1.8,6.64c-1.36,0.57-3.12-1.78-3.12-5.13c0-3.36,1.1-6.29,2.46-6.55
				C29.72,43.55,30.82,45.81,30.82,48.86z" class="colord0d2d3 svgShape"></path><path fill="#252159" d="M21.04,53.22c0,0,0.19,2.09,0.97,3.36c0.44,0.72,1.13,1.12,1.64,1.39c0.51,0.27,4.08,0.82,4.08,0.82
			s-2.88-0.83-3.3-6.72L21.04,53.22z" class="color252159 svgShape"></path><path fill="#252159" d="M17.39,53.23l37.39,4.37c1.36,0.16,2.57-0.72,2.57-1.87V2.24c0-1.13-1.19-2.01-2.54-1.87L17.43,4.3
			c-1.13,0.12-1.97,0.92-1.97,1.87v45.19C15.45,52.3,16.28,53.1,17.39,53.23z" class="color252159 svgShape"></path><path fill="#6d6e70" d="M55.1,57.97c-0.12,0-0.23-0.01-0.35-0.02l-37.39-4.37c-1.29-0.15-2.26-1.1-2.26-2.22V6.17
			c0-1.13,0.99-2.08,2.29-2.22l37.39-3.93c0.83-0.09,1.64,0.16,2.21,0.68c0.46,0.42,0.72,0.97,0.72,1.54v53.49
			c0,0.58-0.26,1.13-0.73,1.55C56.49,57.72,55.8,57.97,55.1,57.97z M55.1,0.71c-0.08,0-0.16,0-0.24,0.01L17.46,4.65
			c-0.94,0.1-1.66,0.75-1.66,1.52v45.19c0,0.75,0.7,1.41,1.63,1.51l37.39,4.37c0.63,0.07,1.26-0.11,1.68-0.49
			c0.32-0.28,0.49-0.65,0.49-1.02V2.24c0-0.38-0.17-0.74-0.48-1.02C56.16,0.89,55.64,0.71,55.1,0.71z" class="color6d6e70 svgShape"></path><path fill="#f5eed4" d="M29.38,31.81c0.96-0.1,6.04-0.53,7-0.5c0.93,0.03,2.05,0.15,2.97,0.23c4.62,0.38,8.76,0.7,13.24,1.18
			c-1.83,0.35-7.91,0.91-9.8,1.1c-0.52,0.05-1.04,0.11-1.57,0.11c-0.58,0-1.14-0.06-1.71-0.12c-2.85-0.28-5.73-0.43-8.58-0.71
			c-0.73-0.07-1.45-0.15-2.17-0.25c-0.42-0.06-2.73-0.2-2.98-0.4C25.05,31.89,28.96,31.85,29.38,31.81z" class="colorf5eed4 svgShape"></path><path fill="#e6c78f" d="M52.6,32.72c-0.02,0-0.16,13.03-0.15,13.03c-0.78,0.14-5.86,1.14-6.65,1.28c-1.69,0.3-3.38,0.6-5.12,0.77
			c0.28-0.03,0.21-12.46,0.24-13.01c0.05-1.08,0.2-1.08,2.03-1.23C44.73,33.42,50.82,32.87,52.6,32.72z" class="colore6c78f svgShape"></path><path fill="#cca85b" d="M41.33,33.74c0,2.64-0.16,11.59-0.35,14.06c-4.92-0.83-10.39-1.72-15.31-2.55
			c0.02-1.73,0.02-9.49-0.01-10.96c-0.01-0.4,0.1-1.65,0.07-2.04c-0.03-0.31,1.44,0.04,2.08,0.13
			C28.93,32.53,41.29,33.87,41.33,33.74z" class="colorcca85b svgShape"></path><polygon fill="#f8a6a5" points="30.84 31.66 45.78 33.31 47.56 33.17 32.23 31.56" class="colorf8a6a5 svgShape"></polygon><polyline fill="#f67f80" points="45.93 33.31 45.93 36.28 47.49 36.06 47.49 33.18" class="colorf67f80 svgShape"></polyline><path fill="#f5eed4" d="M28.18,22.04c0.78-0.07,4.93-0.37,5.72-0.35c0.76,0.02,1.67,0.11,2.43,0.16c3.77,0.27,7.16,0.49,10.81,0.84
			c-1.49,0.24-6.46,0.64-8,0.78c-0.42,0.04-0.85,0.08-1.28,0.08c-0.47,0-0.94-0.04-1.4-0.08c-2.33-0.2-4.68-0.3-7.01-0.5
			c-0.59-0.05-1.18-0.11-1.77-0.18c-0.34-0.04-2.23-0.14-2.44-0.28C24.64,22.1,27.83,22.07,28.18,22.04z" class="colorf5eed4 svgShape"></path><path fill="#e6c78f" d="M47.14,22.68c-0.01,0-0.13,9.22-0.12,9.22c-0.64,0.1-4.79,0.81-5.43,0.91c-1.38,0.21-2.76,0.43-4.18,0.54
			c0.22-0.02,0.17-8.81,0.19-9.2c0.04-0.77,0.16-0.77,1.65-0.87C40.71,23.18,45.68,22.79,47.14,22.68z" class="colore6c78f svgShape"></path><path fill="#cca85b" d="M37.93,23.41c0,1.87-0.13,8.2-0.28,9.94c-4.02-0.58-8.48-1.22-12.5-1.8c0.02-1.23,0.02-6.71-0.01-7.75
			c-0.01-0.28,0.09-1.17,0.05-1.44c-0.02-0.22,1.17,0.03,1.7,0.09C27.8,22.55,37.9,23.5,37.93,23.41z" class="colorcca85b svgShape"></path><polygon fill="#f8a6a5" points="29.36 21.94 41.57 23.1 43.02 23 30.5 21.86" class="colorf8a6a5 svgShape"></polygon><polyline fill="#f67f80" points="41.69 23.1 41.69 25.2 42.97 25.05 42.97 23.01" class="colorf67f80 svgShape"></polyline><path fill="#f5eed4" d="M20.7,34.42c0.95-0.16,1.73-0.31,2.7-0.26c0.93,0.05,2.04,0.25,2.97,0.37c4.61,0.61,8.74,1.11,13.2,1.89
			c-1.82,0.55-3.6,0.92-5.48,1.23c-0.52,0.09-1.04,0.17-1.57,0.17c-0.57,0-1.14-0.1-1.71-0.19c-2.84-0.45-5.71-0.68-8.55-1.14
			c-0.72-0.12-1.45-0.25-2.16-0.4c-0.42-0.09-2.72-0.33-2.98-0.64C16.38,34.56,20.28,34.49,20.7,34.42z" class="colorf5eed4 svgShape"></path><path fill="#e6c78f" d="M39.57,36.42c-0.1,3.66-0.15,7.32-0.15,10.98c-0.78,0.22-1.56,0.45-2.34,0.67
			c-1.68,0.48-3.37,0.96-5.1,1.22c0.27-0.04,0.21-9.22,0.24-10.09c0.05-1.73,0.2-1.73,2.02-1.97C36.01,37,37.79,36.65,39.57,36.42z" class="colore6c78f svgShape"></path><path fill="#cca85b" d="M32.61,37.52c0,4.21-0.16,7.83-0.35,11.77c-4.91-1.32-10.36-2.75-15.26-4.07c0.02-2.77,0.02-4.47-0.01-6.83
			c-0.01-0.63,0.1-2.64,0.07-3.25c-0.03-0.49,1.43,0.06,2.08,0.2C20.25,35.58,32.58,37.71,32.61,37.52z" class="colorcca85b svgShape"></path><polygon fill="#f8a6a5" points="20.28 34.45 35.18 37.08 36.6 36.9 21.35 34.32" class="colorf8a6a5 svgShape"></polygon><polyline fill="#f67f80" points="35.39 37.08 35.39 41.82 36.6 41.5 36.6 36.9" class="colorf67f80 svgShape"></polyline><g><path fill="#f5eed4" d="M39.78,43.42c0.53-0.09,0.96-0.18,1.49-0.15c0.51,0.03,1.13,0.14,1.64,0.21c2.54,0.36,4.82,0.65,7.28,1.1
			c-1,0.32-1.99,0.53-3.02,0.71c-0.29,0.05-0.57,0.1-0.86,0.1c-0.32,0-0.63-0.06-0.94-0.11c-1.57-0.26-3.15-0.4-4.72-0.66
			c-0.4-0.07-0.8-0.14-1.19-0.23c-0.23-0.05-1.5-0.19-1.64-0.37C37.4,43.5,39.55,43.46,39.78,43.42z" class="colorf5eed4 svgShape"></path><path fill="#e6c78f" d="M50.18,44.58c-0.06,2.13-0.08,4.25-0.08,6.38c-0.43,0.13-0.86,0.26-1.29,0.39
			c-0.93,0.28-1.86,0.56-2.81,0.71c0.15-0.02,0.12-5.36,0.13-5.86c0.03-1,0.11-1,1.11-1.14C48.22,44.91,49.2,44.71,50.18,44.58z" class="colore6c78f svgShape"></path><path fill="#cca85b" d="M46.35,45.22c0,2.45-0.09,4.55-0.19,6.84c-2.71-0.77-5.71-1.6-8.42-2.36c0.01-1.61,0.01-2.6-0.01-3.97
			c-0.01-0.37,0.06-1.53,0.04-1.89c-0.02-0.28,0.79,0.04,1.15,0.12C39.53,44.09,46.33,45.33,46.35,45.22z" class="colorcca85b svgShape"></path><polygon fill="#f8a6a5" points="39.55 43.43 47.77 44.96 48.55 44.85 40.14 43.36" class="colorf8a6a5 svgShape"></polygon><polyline fill="#f67f80" points="47.88 44.96 47.88 47.71 48.55 47.53 48.55 44.85" class="colorf67f80 svgShape"></polyline></g><g><path fill="#f5eed4" d="M31.84,15.42c0.65-0.09,1.18-0.19,1.83-0.16c0.63,0.03,1.39-0.2,2.02-0.13c3.14,0.33,5.94,0.04,8.98,0.47
			c-1.24,0.32-2.45,0.54-3.72,0.72c-0.35,0.05-0.71,0.1-1.06,0.11c-0.39,0-0.78-0.05-1.16-0.1c-1.93-0.25-3.88,0.52-5.81,0.27
			c-0.49-0.06-0.98-0.14-1.47-0.22c-0.29-0.05-1.85-0.18-2.03-0.35C28.9,15.51,31.55,15.46,31.84,15.42z" class="colorf5eed4 svgShape"></path><path fill="#e6c78f" d="M44.66,15.6c-0.05,2.1-0.07,4.2-0.05,6.29c-0.53,0.13-1.06,0.26-1.59,0.39c-1.14,0.28-2.29,0.56-3.46,0.72
			c0.19-0.02,0.1-5.28,0.11-5.78c0.02-0.99,0.13-0.99,1.36-1.13C42.25,15.95,43.46,15.74,44.66,15.6z" class="colore6c78f svgShape"></path><path fill="#cca85b" d="M39.94,16.26c0.02,2.41-0.08,4.49-0.18,6.75c-3.54-0.23-6.83-0.58-10.39-1.15c0-1.59-0.01-2.8-0.04-4.15
			c-0.01-0.36,0.06-1.51,0.03-1.86c-0.02-0.28,0.96-0.02,1.41-0.02C31.76,15.81,39.92,16.37,39.94,16.26z" class="colorcca85b svgShape"></path><polygon fill="#f8a6a5" points="31.55 15.43 41.69 16 42.65 15.89 32.27 15.36" class="colorf8a6a5 svgShape"></polygon><polyline fill="#f67f80" points="41.82 15.99 41.85 18.71 42.67 18.52 42.65 15.89" class="colorf67f80 svgShape"></polyline></g><g><path fill="#f7b6bb" d="M26.2,20.82c0.41,0.12,0.46,0.27,0.59,0.47c0.2,0.32,0.25,0.67-0.05,1.13c-0.16,0.24-0.48,0.44-0.71,0.67
				c-0.5,0.49-1.04,0.97-1.62,1.44c-0.7,0.57-1.66,1.19-2.57,1.21c-0.78,0.02-1.18-0.45-1.08-0.97c0.09-0.52,0.57-1.07,1.08-1.59
				c0.6-0.61,1.26-1.2,1.97-1.77c0.21-0.17,0.43-0.33,0.69-0.46c0.28-0.13,0.59-0.2,0.87-0.22c0.76-0.06,1.36,0.21,1.45,0.66" class="colorf7b6bb svgShape"></path><path fill="#f7c0bb" d="M12.97,29.45c1.33-1.68,3.4-3.11,5.57-4.42c0.59-0.35,1.05-0.65,1.95-0.99c0.38-0.11,0.77-0.18,1.16-0.15
				c0.66,0.05,1.16,0.41,1.17,0.85c0,0.33-0.24,0.76-0.65,1c-0.43,0.3-0.85,0.45-1.19,0.57c-1.37,0.5-2.78,0.8-3.92,1.53
				c-1.03,0.66-0.73,1.42-1.01,2.24c-0.07,0.21-0.27,0.48-0.59,0.46c-0.39-0.18-0.16-1.04-0.41-1.27c-0.72,0.77-1.33,0.95-1.8,1.78
				c-0.04,0.06-0.11,0.13-0.21,0.16c-0.13,0.03-0.24-0.02-0.32-0.08C12.19,30.71,12.52,30.01,12.97,29.45z" class="colorf7c0bb svgShape"></path><linearGradient id="a" x1="252.082" x2="247.327" y1="19.767" y2="24.401" gradientTransform="matrix(-1 0 0 1 274.54 0)" gradientUnits="userSpaceOnUse" fill="none"><stop offset=".15" stop-color="#ffdd5c" class="stopColorffdd5c svgShape"></stop><stop offset=".508" stop-color="#f9b313" class="stopColorf9b313 svgShape"></stop><stop offset="1" stop-color="#de692a" class="stopColorde692a svgShape"></stop></linearGradient><path fill="url(#a)" d="M25.35,20.01c-0.26,0.07-0.46,0.25-0.65,0.42c-0.62,0.58-1.25,1.15-1.87,1.73
				c-0.04,0.04-0.08,0.08-0.09,0.13c-0.01,0.05,0.01,0.11,0.04,0.16c0.37,0.74,0.94,1.41,1.64,1.93c0.08,0.06,0.17,0.12,0.27,0.12
				c0.13,0,0.22-0.1,0.3-0.18c0.36-0.38,0.79-0.72,1.26-0.99c0.24-0.14,0.51-0.28,0.64-0.51c0.07-0.13,0.09-0.28,0.09-0.43
				c0-0.62-0.26-1.23-0.72-1.7"></path><linearGradient id="b" x1="260.248" x2="244.01" y1="30.863" y2="39.674" gradientTransform="matrix(-1 0 0 1 274.54 0)" gradientUnits="userSpaceOnUse" fill="none"><stop offset="0" stop-color="#f9b313" class="stopColorf9b313 svgShape"></stop><stop offset="1" stop-color="#de692a" class="stopColorde692a svgShape"></stop></linearGradient><path fill="url(#b)" d="M28.18,33.7c-2.11,0.43-4.22,0.86-6.33,1.28c-0.84,0.17-1.7,0.35-2.46,0.71c-0.76,0.36-1.42,0.95-1.64,1.68
				c-0.21,0.74,0.12,1.62,0.9,1.95c0.51,0.22,1.1,0.18,1.66,0.14c3.08-0.23,6.14-0.54,9.19-0.95c0.93-0.12,1.93-0.3,2.53-0.93
				c0.43-0.45,0.56-1.07,0.59-1.66c0.02-0.4,0-0.82-0.23-1.18c-0.22-0.35-0.7-0.61-1.14-0.5"></path><path fill="#ffd1bd" d="M39.62,61.35c0.05-0.01,0.1-0.03,0.13-0.07c0.04-0.06,0.02-0.13-0.01-0.19c-0.27-0.68-0.24-1.5-0.52-2.15
				c-0.19-0.43-0.81-0.58-1.23-0.22c-0.34,0.29-0.33,0.88-0.38,1.26c-0.09,0.65-0.25,1.23-0.49,1.84
				C37.94,61.83,38.85,61.59,39.62,61.35z" class="colorffd1bd svgShape"></path><linearGradient id="c" x1="252.396" x2="236.293" y1="49.069" y2="46.428" gradientTransform="matrix(-1 0 0 1 274.54 0)" gradientUnits="userSpaceOnUse" fill="none"><stop offset=".15" stop-color="#ffdd5c" class="stopColorffdd5c svgShape"></stop><stop offset=".508" stop-color="#f9b313" class="stopColorf9b313 svgShape"></stop><stop offset="1" stop-color="#de692a" class="stopColorde692a svgShape"></stop></linearGradient><path fill="url(#c)" d="M30.64,37.93c1.2,3.69,1.07,7.64,2.46,11.27c0.79,2.08,2.06,4,2.89,6.06c0.54,1.34,0.89,2.72,1.27,4.1
				c0.06,0.24,0.15,0.5,0.4,0.62c0.15,0.07,0.32,0.08,0.49,0.08c0.34,0.01,0.68,0.02,1.02,0.03c0.11,0,0.22,0,0.31-0.05
				c0.12-0.08,0.14-0.23,0.15-0.36c0.17-4.37-0.95-8.78-3.25-12.69c0.63-3.61,0.96-7.25,0.99-10.9c0.01-0.78-0.14-2.03-0.61-2.69
				c-2.12,0.27-4.15,0.77-6.29,0.66c-0.16-0.01-0.34-0.07-0.49-0.11C29.5,35.22,30.24,36.72,30.64,37.93z"></path><path fill="#232020" d="M25.24,13.45c-0.15-0.71,0.14-1.57,0.5-1.91c1.12-1.05,2.82-0.99,3.86-0.81c1.66,0.29,2.26,1.29,2.43,2.6
					c0.14,1.02-0.15,1.65-0.46,2.07c-0.36,0.48-1.08,1.02-1.69,1.28c-0.31-0.92-0.03-1.91-0.1-2.86c-0.44-0.03-0.88,0.08-1.31,0.2
					c-0.64,0.17-1.84,0.74-2.5,0.67C25.27,14.6,25.3,13.96,25.24,13.45z" class="color232020 svgShape"></path><path fill="#232020" d="M24.79,12.1c0.22,0.25,0.5,0.46,0.85,0.52c0.35,0.06,0.71,0.03,1.07-0.02c0.7-0.1,1.39-0.25,2.05-0.45
					c0.33-0.1,0.67-0.23,0.86-0.49c0.26-0.36,0.1-0.87-0.28-1.14c-0.38-0.27-0.91-0.31-1.38-0.21c-0.47,0.1-0.89,0.32-1.29,0.56
					c-0.19,0.12-0.42,0.22-0.63,0.32c-0.34,0.16-0.59,0.15-0.86,0.11c-0.44-0.08-0.15-0.56-0.49,0
					C24.58,11.48,24.6,11.88,24.79,12.1z" class="color232020 svgShape"></path><path fill="#264b8f" d="M39.02,61.54c-0.26,0.05-0.51-0.1-0.69-0.26c-0.18-0.16-0.34-0.36-0.58-0.46
				c-0.34-0.15-0.75-0.07-1.08,0.09c-0.33,0.16-0.62,0.38-0.95,0.54c-0.53,0.25-1.16,0.32-1.7,0.57c-0.54,0.24-1.01,0.78-0.8,1.28
				c0.11,0.26,0.38,0.45,0.67,0.56c0.79,0.3,1.7,0.1,2.55-0.04c0.81-0.13,1.64-0.19,2.46-0.19c0.29,0,0.6,0,0.83-0.14
				c0.23-0.14,0.32-0.4,0.39-0.63c0.11-0.36,0.39-0.99,0.07-1.33C39.8,61.09,39.49,61.46,39.02,61.54z" class="color264b8f svgShape"></path><path fill="#f7c0bb" d="M23.69,49.19c-0.25-1.88-2.38-1.82-2.18-0.09C21.71,50.8,23.95,51.14,23.69,49.19z" class="colorf7c0bb svgShape"></path><path fill="#264b8f" d="M22.87,49.81c-0.25,0.06-0.51-0.06-0.7-0.21c-0.19-0.15-0.37-0.33-0.61-0.42
				c-0.34-0.12-0.74-0.01-1.06,0.16c-0.31,0.18-0.57,0.42-0.88,0.6c-0.5,0.29-1.11,0.4-1.62,0.67c-0.51,0.28-0.92,0.83-0.67,1.31
				c0.13,0.25,0.41,0.42,0.71,0.5c0.81,0.24,1.68-0.02,2.51-0.21c0.79-0.18,1.59-0.3,2.4-0.36c0.28-0.02,0.59-0.04,0.8-0.2
				c0.21-0.16,0.28-0.41,0.33-0.65c0.08-0.37,0.3-1-0.05-1.31C23.6,49.31,23.32,49.7,22.87,49.81z" class="color264b8f svgShape"></path><linearGradient id="d" x1="263.493" x2="248.274" y1="37.59" y2="45.848" gradientTransform="matrix(-1 0 0 1 274.54 0)" gradientUnits="userSpaceOnUse" fill="none"><stop offset="0" stop-color="#f9b313" class="stopColorf9b313 svgShape"></stop><stop offset="1" stop-color="#de692a" class="stopColorde692a svgShape"></stop></linearGradient><path fill="url(#d)" d="M21.61,38.23c-0.3-0.41-0.61-0.84-1.06-1.1c-0.86-0.5-2.26-0.5-2.8,0.25c-0.22,0.31-0.1,0.95-0.04,1.36
				c1.06,3.18,2.04,6.36,3.1,9.55c0.04,0.12,0.09,0.26,0.2,0.34c0.09,0.07,0.22,0.09,0.33,0.1c0.87,0.07,1.75-0.09,2.51-0.45
				c-0.44-1.13-0.7-2.32-0.78-3.51c-0.04-0.69-0.02-1.39-0.12-2.08c-0.11-0.82-0.39-1.62-0.65-2.42c-0.2-0.61-0.39-1.23-0.57-1.84
				C21.7,38.35,21.66,38.29,21.61,38.23z"></path><path fill="#f4aaad" d="M26.63,17.34c0.32,0.24,0.52,0.64,0.51,1.04c0,0.38,0.09,0.73,0.03,1.11c-0.06,0.37-0.1,0.64,0.1,0.98
				c0.17,0.29,0.79,1.39,1.05,1.14c0.27-0.25,1.26-1.39,1.49-1.67c0.28-0.34-0.22-1.18,0.2-1.34c0.08-0.03,0.17-0.06,0.23-0.13
				c0.09-0.11,0.06-0.28-0.02-0.4c-0.08-0.12-0.19-0.22-0.26-0.34c-0.15-0.27-0.07-0.46-0.03-0.92c0.02-0.28,0.05-0.37,0.01-0.56
				c-0.05-0.27-0.16-0.45-0.43-0.53c-0.39-0.11-0.83-0.03-1.21,0.14c-0.38,0.17-0.7,0.43-1.03,0.68" class="colorf4aaad svgShape"></path><path fill="#f7c0bb" d="M30.83,15.24c-0.47,0.8-1.15,1.48-1.83,2.16c-0.38,0.38-0.81,0.78-1.38,0.83
				c-0.52,0.04-1.02-0.25-1.31-0.63c-0.29-0.38-0.41-0.84-0.49-1.29c0-0.01-0.01-0.03-0.01-0.04c-0.04-0.22-0.08-0.44-0.11-0.67
				c-0.04-0.29-0.07-0.58-0.08-0.87c-0.03-0.53-0.11-1.48,0.53-1.78c0.75-0.35,1.44,0.51,2.17,0.35c0.14-0.03,0.27-0.1,0.4-0.13
				c0.39-0.08,0.8,0.18,0.97,0.5c0.17,0.32,0.17,0.69,0.16,1.05c0.07-0.33,0.3-0.7,0.67-0.69c0.28,0.01,0.5,0.26,0.52,0.51
				C31.08,14.78,30.96,15.02,30.83,15.24z" class="colorf7c0bb svgShape"></path><linearGradient id="e" x1="35.033" x2="24.925" y1="17.656" y2="40.205" gradientUnits="userSpaceOnUse" fill="none"><stop offset=".328" stop-color="#ffef5c" class="stopColorffef5c svgShape"></stop><stop offset=".711" stop-color="#f9b313" class="stopColorf9b313 svgShape"></stop><stop offset="1" stop-color="#de692a" class="stopColorde692a svgShape"></stop></linearGradient><path fill="url(#e)" d="M25.54,19.71c-0.64,0.21-0.89,0.85-1.03,1.39c-0.05,0.2-0.09,1.5-0.05,1.69c0.93,4.12,1.49,6.15,2.17,10.3
				c0.12,0.73,0.73,0.94,0.93,1.13c0.28,0.26,0.82,0.4,1.25,0.41c1.86,0.04,3.41,0.48,5.23,0.13c1.26-0.24,2.4-0.5,2.99-1.46
				c0.41-0.66,0.18-2.73-0.35-3.89c-1.11-2.43-1.66-4.53-2.77-6.95c-0.28-0.61-0.56-1.22-0.63-1.87c-0.07-0.65,0.08-1.35,0.59-1.87
				c-1.24-0.07-2.69-0.33-3.79-0.78c-0.57,2.02-1.05,1.72-1.97,3.66c-0.62-0.65-0.7-0.83-0.78-1.03c-0.34-0.83,0.17-1.58-0.32-1.53
				C26.81,19.07,25.84,19.61,25.54,19.71z"></path><path fill="#231e20" d="M25.8 14.55c-.01.01-.02.02-.04.02-.03 0-.05-.02-.05-.05 0-.02.01-.05.03-.07.09-.12.24-.19.39-.23.11-.03.4-.1.51-.04.11.06.1.17-.01.2-.11.03-.31-.03-.44 0C26.05 14.41 25.91 14.47 25.8 14.55zM28.79 14.31c.2.08.41.18.5.35.02.04.03.09-.01.11-.03.01-.07-.01-.1-.03-.18-.14-.38-.27-.61-.31-.1-.02-.62-.01-.38-.2C28.33 14.12 28.66 14.26 28.79 14.31zM28.25 15.12c-.01.13.07.24.17.24.1.01.19-.09.2-.22.01-.13-.07-.24-.17-.24C28.35 14.89 28.26 14.99 28.25 15.12zM26.17 15.05c-.01.13.07.24.17.24.1.01.19-.09.2-.22.01-.13-.07-.24-.17-.24C26.27 14.82 26.18 14.92 26.17 15.05z" class="color231e20 svgShape"></path><path fill="#f291a1" d="M27.37,15.89c0,0.04-0.01,0.09-0.03,0.12c-0.04,0.05-0.13,0.06-0.19,0.04c-0.13-0.03-0.24-0.1-0.34-0.17
				c-0.04-0.03-0.08-0.06-0.09-0.1c-0.01-0.05,0.02-0.09,0.05-0.13c0.08-0.1,0.49-0.75,0.63-0.67
				C27.51,15.05,27.37,15.75,27.37,15.89z" class="colorf291a1 svgShape"></path><path fill="#ffffff" d="M27.76,16.51c0,0,0.17,0.01,0.07,0.14c-0.1,0.12-0.38,0.54-0.82,0.53c-0.43-0.01-0.77-0.4-0.77-0.67
				c0,0,0.01-0.15,0.14-0.09C26.39,16.42,26.81,16.58,27.76,16.51z" class="colorfff svgShape"></path><path fill="#f2a8ab" d="M26.26 15.87c-.02.19-.22.33-.44.32-.01 0-.01 0-.02 0-.04-.22-.08-.44-.11-.67.06-.03.13-.04.2-.03C26.12 15.51 26.28 15.68 26.26 15.87zM28.39 16.27c.15.16.43.19.62.05.19-.14.21-.38.06-.54-.15-.16-.43-.19-.62-.05C28.27 15.86 28.24 16.11 28.39 16.27z" class="colorf2a8ab svgShape"></path><path fill="#f7b6bb" d="M33.61,23.72c0.3,0.2,0.35,0.35,0.45,0.58c0.17,0.35,0.23,0.7,0.06,1.1c-0.09,0.21-0.29,0.34-0.44,0.53
				c-0.31,0.39-0.64,0.76-1,1.11c-0.44,0.43-1.05,0.85-1.69,0.7c-0.54-0.13-0.86-0.66-0.84-1.16c0.02-0.49,0.31-0.95,0.62-1.36
				c0.36-0.48,0.77-0.94,1.22-1.36c0.13-0.12,0.27-0.25,0.44-0.32c0.18-0.07,0.39-0.08,0.59-0.05c0.52,0.08,0.97,0.47,1.06,0.93" class="colorf7b6bb svgShape"></path><linearGradient id="f" x1="244.111" x2="236.018" y1="20.162" y2="25.596" gradientTransform="matrix(-1 0 0 1 274.54 0)" gradientUnits="userSpaceOnUse" fill="none"><stop offset=".15" stop-color="#ffdd5c" class="stopColorffdd5c svgShape"></stop><stop offset=".508" stop-color="#f9b313" class="stopColorf9b313 svgShape"></stop><stop offset="1" stop-color="#de692a" class="stopColorde692a svgShape"></stop></linearGradient><path fill="url(#f)" d="M35.15,24.26c-0.16,0.35-0.34,0.7-0.6,0.99c-0.28,0.3-0.65,0.52-1.01,0.74c-0.6-0.37-1.2-0.74-1.8-1.1
				c-0.14-0.08-0.28-0.18-0.34-0.32c-0.08-0.2,0.02-0.41,0.11-0.61c0.64-1.47,0.21-3.52,1.34-4.77c1.39-1.53,2.77,1.15,2.85,2.28
				C35.76,22.42,35.53,23.39,35.15,24.26z"></path><path fill="#f5eed4" d="M21.29,26.19c-0.76-0.11-1.38-0.22-2.14-0.19c-0.74,0.03-1.62-0.23-2.36-0.15
					c-3.67,0.39-6.95,0.05-10.5,0.55c1.44,0.38,2.86,0.63,4.35,0.84c0.41,0.06,0.83,0.12,1.25,0.12c0.46,0,0.91-0.06,1.36-0.12
					c2.26-0.29,4.54,0.61,6.8,0.32c0.58-0.08,1.15-0.16,1.72-0.26c0.33-0.06,2.16-0.21,2.37-0.41
					C24.72,26.3,21.62,26.24,21.29,26.19z" class="colorf5eed4 svgShape"></path><path fill="#cca85b" d="M6.29,26.4c0.06,2.45,0.08,4.91,0.06,7.36c0.62,0.15,1.24,0.31,1.86,0.46c1.33,0.33,2.67,0.66,4.05,0.84
					c-0.22-0.03-0.12-6.18-0.13-6.76c-0.03-1.16-0.15-1.16-1.6-1.33C9.11,26.81,7.7,26.57,6.29,26.4z" class="colorcca85b svgShape"></path><path fill="#e6c78f" d="M11.81,27.17c-0.02,2.82,0.09,5.24,0.21,7.89c4.14-0.27,7.99-0.68,12.15-1.35
					c-0.01-1.86,0.01-3.27,0.05-4.85c0.01-0.42-0.07-1.77-0.04-2.18c0.03-0.33-1.13-0.03-1.65-0.03
					C21.38,26.65,11.84,27.3,11.81,27.17z" class="colore6c78f svgShape"></path><polygon fill="#f8a6a5" points="21.63 26.21 9.77 26.87 8.65 26.74 20.78 26.12" class="colorf8a6a5 svgShape"></polygon><polyline fill="#f67f80" points="9.61 26.86 9.58 30.04 8.62 29.82 8.65 26.74" class="colorf67f80 svgShape"></polyline><path fill="#f7c0bb" d="M25.5,30.68c-1.15,0.64-2.43,1.12-3.76,1.39c-0.08,0.02-0.17,0.04-0.21,0.1c-0.05,0.08,0,0.18,0.06,0.25
				c0.45,0.5,1.31,0.5,2.03,0.37c2.13-0.4,3.85-1.47,5.5-2.71c1.13-0.85,2.09-1.45,3.38-2.81c0.83-0.88-1.17-1.61-2.11-1.16
				c-0.8,0.38-1.47,1.47-2.03,2.07c-0.73,0.79-1.1,1.2-2.41,2.26c-0.78,0.63-1.76,0.06-2.77,0c-0.25-0.02-0.6,0.04-0.61,0.26
				c0.6,0.28,1.2,0.56,1.8,0.84c0.08,0.04,0.16,0.07,0.24,0.08c0.08,0.01,0.16-0.02,0.24-0.04c0.26-0.08,0.5-0.2,0.72-0.35
				c0.07-0.05,0.14-0.1,0.16-0.17c0.03-0.07-0.01-0.17-0.1-0.18" class="colorf7c0bb svgShape"></path><linearGradient id="g" x1="244.497" x2="239.332" y1="67.146" y2="70.611" gradientTransform="matrix(-.9074 -.1266 -.1588 .9861 260.664 -24.225)" gradientUnits="userSpaceOnUse" fill="none"><stop offset=".15" stop-color="#ffdd5c" class="stopColorffdd5c svgShape"></stop><stop offset=".508" stop-color="#f9b313" class="stopColorf9b313 svgShape"></stop><stop offset="1" stop-color="#de692a" class="stopColorde692a svgShape"></stop></linearGradient><path fill="url(#g)" d="M25.9,12.26c-0.05-0.03-0.1-0.06-0.12-0.12c-0.03-0.06-0.02-0.14-0.02-0.21
				c0.1-0.91,0.83-1.72,1.6-2.06c0.76-0.34,1.28-0.12,2.04-0.08c0.32,0.02,0.86,0.18,1.14,0.31c0.26,0.12,0.58,0.42,0.78,0.64
				c0.4,0.44,0.69,0.47,0.88,1.1c0.12,0.4,0.25,1.49-0.15,1.9c-0.4,0.41-1.39,0.14-1.81,0.09c-0.73-0.09-1.44-0.26-2.12-0.49
				C27.34,13.07,26.6,12.71,25.9,12.26z"></path><path fill="#f19c22" d="M26.32,12.46c-0.12-0.08-0.24-0.16-0.32-0.28c-0.08-0.12-0.27-0.4-0.18-0.53
				c-0.73-0.17-0.79-0.13-1.52-0.3c-0.27-0.06-0.91-0.1-1.13,0.1c-0.25,0.22-0.25,0.36-0.06,0.59c0.19,0.23,0.69,0.48,0.98,0.55
				c0.52,0.13,0.69,0.25,1.24,0.32c0.48,0.06,1.41,0.14,1.89,0.01C26.78,12.72,26.52,12.59,26.32,12.46z" class="colorf19c22 svgShape"></path></g><g><path fill="#f5eed4" d="M21.89,26.37c-0.72-0.1-1.31-0.2-2.04-0.18c-0.7,0.03-1.54-0.22-2.24-0.14c-3.48,0.37-6.6,0.05-9.98,0.52
			c1.37,0.35,2.72,0.59,4.14,0.79c0.39,0.06,0.79,0.11,1.18,0.12c0.43,0,0.86-0.06,1.29-0.11c2.15-0.27,4.31,0.57,6.46,0.3
			c0.55-0.07,1.09-0.15,1.64-0.24c0.32-0.06,2.06-0.2,2.25-0.39C25.15,26.48,22.21,26.42,21.89,26.37z" class="colorf5eed4 svgShape"></path><path fill="#cca85b" d="M7.63,26.57c0.06,2.31,0.08,4.61,0.06,6.92c0.59,0.14,1.18,0.29,1.77,0.43c1.27,0.31,2.54,0.62,3.85,0.79
			c-0.21-0.03-0.11-5.81-0.13-6.36c-0.03-1.09-0.14-1.09-1.52-1.25C10.32,26.95,8.97,26.72,7.63,26.57z" class="colorcca85b svgShape"></path><path fill="#e6c78f" d="M12.88,27.29c-0.02,2.66,0.08,4.93,0.2,7.42c3.94-0.25,7.6-0.64,11.55-1.27c0-1.75,0.01-3.07,0.05-4.56
			c0.01-0.4-0.07-1.66-0.03-2.05c0.02-0.31-1.07-0.03-1.57-0.03C21.97,26.81,12.9,27.41,12.88,27.29z" class="colore6c78f svgShape"></path><polygon fill="#f8a6a5" points="22.21 26.39 10.94 27.01 9.87 26.88 21.4 26.3" class="colorf8a6a5 svgShape"></polygon><polyline fill="#f67f80" points="10.78 27 10.76 29.99 9.85 29.79 9.87 26.88" class="colorf67f80 svgShape"></polyline></g><path fill="#f7b6bb" d="M24.55,31.3c-1.31,0.72-2.75,1.25-4.25,1.55c-0.09,0.02-0.19,0.04-0.23,0.11c-0.06,0.09,0,0.2,0.07,0.28
		c0.51,0.56,1.49,0.56,2.29,0.41c2.41-0.44,4.35-1.64,6.22-3.04c1.27-0.95,2.36-1.62,3.82-3.14c0.94-0.98-1.32-1.8-2.38-1.3
		c-0.91,0.42-1.66,1.64-2.29,2.32c-0.83,0.89-1.24,1.34-2.72,2.53c-0.88,0.71-1.99,0.07-3.13,0c-0.29-0.02-0.67,0.05-0.69,0.29
		c0.68,0.31,1.36,0.63,2.04,0.94c0.09,0.04,0.18,0.08,0.28,0.09c0.09,0.01,0.18-0.02,0.27-0.05c0.29-0.09,0.57-0.23,0.81-0.39
		c0.08-0.05,0.16-0.11,0.19-0.19c0.03-0.08-0.02-0.19-0.11-0.21" class="colorf7b6bb svgShape"></path></svg>