<svg xmlns="http://www.w3.org/2000/svg" enable-background="new 0 0 64 64" viewBox="0 0 64 64" width="256" height="256"><path fill="#ff6800" d="M55.94,42.31c-0.42,0.68-0.88,1.23-1.34,1.58c-2.85,2.2-19.29,7.47-26.64,6.44
		c-7.35-1.02-16.81-5.43-16.81-5.43s-6.71-0.83-5.51-16.26c0.47-6.1,1.38-10.44,2.92-13.37c-0.83,2.6-1.38,5.89-1.72,9.96
		C5.55,40.68,12.82,41.5,12.82,41.5s10.26,4.41,18.22,5.43C37.24,47.73,49.39,44.73,55.94,42.31z" class="colorff6800 svgShape"></path><path fill="#ff9f00" d="M55.94,42.31c-6.55,2.41-18.71,5.42-24.9,4.62c-7.97-1.02-18.22-5.43-18.22-5.43s-7.27-0.83-5.97-16.26
		c0.34-4.07,0.89-7.36,1.72-9.96c2.36-4.48,6.22-5.66,12.33-4.82c10.11,1.38,12.68,11.12,20.03,13.14
		c7.35,2.02,14.24-0.89,16.63,3.96C59.55,31.62,58.13,38.79,55.94,42.31z" class="colorff9f00 svgShape"></path><path fill="#ff6800" d="M52.37,32.09c-2.36-0.81-21.34-2.26-30.45-13.1c-1.59-2.4-4.31-2.82-5.03,1.24
		c-0.74,4.18,3.34,7.98,3.34,7.98l3.32,3.35l2.49-1.05c1.27,0.27,2.71,0.48,4.28,0.59c7.11,0.53,9.02,7.08,9.41,8.9
		c0.02,0.16,0.05,0.32,0.09,0.47c0,0,12.05-0.28,13.04-4.1C53.85,32.55,52.37,32.09,52.37,32.09z M22.06,19.2
		c0.09,0.12,0.19,0.26,0.3,0.42C22.24,19.47,22.14,19.33,22.06,19.2z" class="colorff6800 svgShape"></path><path fill="#ff9f00" d="M8.8,15.22c0,0.23,0.07,0.44,0.19,0.62c0.21,0.33,0.58,0.56,1.01,0.56c0.42,0,0.8-0.22,1.01-0.56
			c0.12-0.18,0.18-0.39,0.19-0.62c-0.37-0.01-0.77-0.02-1.2-0.02C9.57,15.2,9.18,15.2,8.8,15.22z" class="colorff9f00 svgShape"></path><linearGradient id="a" x1="-10.524" x2="-11.688" y1="-29.875" y2="-25.778" gradientTransform="rotate(-5.583 378.104 -575.846)" gradientUnits="userSpaceOnUse"><stop offset=".387" stop-color="#ffbd9f" class="stopColorffbd9f svgShape"></stop><stop offset="1" stop-color="#ef72a6" class="stopColoref72a6 svgShape"></stop></linearGradient><path fill="url(#a)" d="M42.45,9.68c0,0,0.42-0.97,0.46-1.23c0.04-0.26-0.28-1.45-0.3-1.63c-0.02-0.19,0.23-0.49,0.37-0.04
		c0.14,0.45,0.31,0.81,0.31,0.81s-0.2-1.76-0.2-2.02c0-0.26,0.3-1.22,0.38-1.16c0.08,0.06,0.23,0.21,0.25,0.42
		c0.02,0.21-0.12,0.74-0.09,0.97c0.02,0.23,0.14,0.99,0.14,0.99s-0.09-0.93,0.01-1.33c0.1-0.41,0.39-1,0.39-1s0.24,0.33,0.23,0.66
		c-0.01,0.33-0.13,0.57-0.1,0.9c0.03,0.32,0.1,0.79,0.1,0.79s0-0.98,0.15-1.3c0.16-0.32,0.36-0.67,0.42-0.53
		c0.06,0.13,0.09,0.16,0.05,0.49c-0.04,0.33-0.26,0.49-0.23,0.96c0.02,0.47-0.33,1.44,0.22,1.24c0.54-0.19,0.6-0.34,0.58-0.01
		c-0.01,0.33-0.35,0.69-0.6,0.99c-0.25,0.31-0.01,1.12-1.37,1.79C42.26,11.11,42.45,9.68,42.45,9.68z"></path><path fill="#152e51" d="M34.5,8.14c-1.15-0.01-2.41,0.76-3.41-0.18c-0.45-0.43-0.67-0.97-0.76-1.55c0.23-0.21,0.45-0.34,0.45-0.34
				s0,0,0,0c0.04-0.11,0.99-4.54-1.42-5.46c-2.41-0.93-3.47-0.6-3.99-0.31c-2.68-0.01-5.04,4.76-3.97,6.99
				c0.17,0.36,0.35,0.66,0.52,0.92c-0.3,0.4-0.67,0.74-0.96,1.16c-0.34,0.5-0.48,1.08-0.28,1.68c0.09,0.29,0.24,0.54,0.42,0.76
				c-2.54,2.12,0.11,2.92,1.99,4.72c1.93,1.85,7.63,2.61,10.97,0.19c1.86-1.34,1.7-4.49,1.03-4.77c0.59-0.59,1.11-1.29,1.09-2.17
				C36.19,8.77,35.45,8.15,34.5,8.14z M21.35,11.62c-0.02,0.02-0.04,0.03-0.06,0.05c-0.29-0.35-0.49-0.76-0.47-1.25
				c0.03-0.71,0.57-1.23,1-1.72c0.08-0.1,0.17-0.2,0.24-0.3C23.11,9.89,23.8,9.74,21.35,11.62z M30.26,8.24
				c-0.7-0.63-0.47-1.23-0.11-1.64c0.06,0.31,0.16,0.6,0.32,0.89C30.8,8.1,31.3,8.48,31.9,8.61C31.25,8.63,30.64,8.59,30.26,8.24z
				 M34.89,11.85c-0.46-0.24-0.87-0.66-0.48-1.75c0.47-1.34-0.15-1.58-1.07-1.57c0.92-0.19,2-0.42,2.48,0.55
				C36.35,10.13,35.61,11.12,34.89,11.85z" class="color152e51 svgShape"></path><linearGradient id="b" x1="-2.139" x2="3.038" y1="5.758" y2="5.758" gradientTransform="rotate(-10.655 44.443 -142.123)" gradientUnits="userSpaceOnUse"><stop offset=".387" stop-color="#ffbd9f" class="stopColorffbd9f svgShape"></stop><stop offset="1" stop-color="#ef72a6" class="stopColoref72a6 svgShape"></stop></linearGradient><path fill="url(#b)" d="M30.96,11.3c0,0,1.44,3.33,0.03,4.06c-1.41,0.73-4.86-2.87-4.86-2.87s0.48-0.23,0.87-1.59
				c0.1-0.35,0.09-0.76,0.02-1.17c-0.15-0.91-0.58-1.85-0.78-2.26c-0.06-0.12-0.1-0.19-0.1-0.2l0.19,0.06l3.14,0.99
				c0,0-0.14,0.49-0.05,1.43c0.03,0.35,0.25,0.65,0.52,0.89C30.39,11.07,30.96,11.3,30.96,11.3z"></path><path fill="#f078a5" d="M27.03,9.73c-0.15-0.91-0.58-1.85-0.78-2.26c0.03-0.05,0.05-0.09,0.08-0.14l3.14,0.99
				c0,0-0.14,0.49-0.05,1.43c0.03,0.35,0.25,0.65,0.52,0.89C29.02,10.42,27.92,10.05,27.03,9.73z" class="colorf078a5 svgShape"></path><linearGradient id="c" x1="1.004" x2="2.595" y1="1.077" y2="5.963" gradientTransform="rotate(-10.655 44.443 -142.123)" gradientUnits="userSpaceOnUse"><stop offset=".387" stop-color="#ffbd9f" class="stopColorffbd9f svgShape"></stop><stop offset="1" stop-color="#ef72a6" class="stopColoref72a6 svgShape"></stop></linearGradient><path fill="url(#c)" d="M30.81,6.3C30.81,6.3,30.81,6.3,30.81,6.3c-0.01,0.08-0.09,1.36-0.33,1.89c-0.23,0.51,0.03,1.06-0.68,1.16
				c0,0,0,0-0.01,0c-1.03,0.1-2.95,0.07-3.15-0.2c-0.26-0.35-0.93-1.47-0.93-1.47s-0.97-0.19-1.06-0.63c-0.09-0.43-0.42-1-0.02-1.21
				c0.08-0.04,0.15-0.05,0.24-0.03c0.21,0.04,0.43,0.23,0.63,0.36c0,0,0,0,0,0c0.09,0.05,0.17,0.1,0.24,0.12c0,0,0,0,0,0
				c0,0,0.01,0,0.01,0c0.03,0.01,0.05,0.01,0.08,0.01c0,0,0,0,0,0c1.49,0.08,2.57-2.67,2.57-2.67c0.03-0.06,0.05-0.12,0.07-0.19
				c0,0,1.37,0.46,1.73-0.15c0.12,0.3,0.23,0.67,0.15,0.95c-0.15,0.54,0.22,0.84,0.4,1.66C30.78,5.99,30.79,6.13,30.81,6.3z"></path><path fill="#152e51" d="M29.83 5.29c.04.19.15.33.24.31.1-.02.15-.19.12-.38-.04-.19-.15-.33-.24-.31C29.85 4.93 29.79 5.1 29.83 5.29zM30.22 4.54c.02.01-.19-.21-.31-.21-.12 0-.23 0-.25.08-.02.08-.03.18.03.17C29.76 4.57 30.04 4.47 30.22 4.54z" class="color152e51 svgShape"></path><path fill="#ffffff" d="M29.75,5.07c0.01,0.06,0.06,0.11,0.12,0.1c0.05-0.01,0.08-0.07,0.07-0.13c-0.01-0.06-0.06-0.11-0.12-0.1
					C29.77,4.94,29.74,5,29.75,5.07z" class="colorfff svgShape"></path><path fill="#152e51" d="M27.78 5.62c.02.18.13.32.24.31.12-.01.19-.17.17-.35-.02-.18-.13-.32-.24-.31C27.84 5.28 27.76 5.44 27.78 5.62zM28.04 4.72c0 0 .06.14.03.18-.02.04-.18.02-.33.14-.15.12-.28.22-.28.22s.04-.23.12-.38C27.68 4.74 28 4.59 28.04 4.72z" class="color152e51 svgShape"></path><path fill="#ffffff" d="M27.72,5.44c0.01,0.06,0.07,0.1,0.13,0.09c0.06-0.01,0.1-0.07,0.09-0.13c-0.01-0.06-0.07-0.1-0.13-0.09
					C27.74,5.32,27.7,5.38,27.72,5.44z" class="colorfff svgShape"></path><path fill="#c14276" d="M29.1,8.09c0.08,0.03,0.18,0.06,0.28,0.07c0.27,0.03,0.48-0.07,0.61-0.25c0.1-0.14,0.15-0.32,0.13-0.53
					c-0.01-0.07-0.07-0.13-0.13-0.11c-0.01,0-0.01,0-0.02,0.01c-0.09,0.07-0.25,0.16-0.48,0.21c-0.3,0.07-0.72-0.01-0.89,0.01
					c-0.06,0.01-0.09,0.02-0.07,0.06C28.57,7.68,28.75,7.96,29.1,8.09z" class="colorc14276 svgShape"></path><path fill="#ffffff" d="M28.6,7.5l0.06,0.13c0.01,0.03,0.34,0.11,0.72,0.04c0.38-0.07,0.57-0.21,0.61-0.24
					c0.02-0.01,0.01-0.08,0-0.15c-0.01,0-0.01,0-0.02,0.01c-0.09,0.07-0.25,0.16-0.48,0.21C29.19,7.56,28.77,7.49,28.6,7.5z" class="colorfff svgShape"></path><linearGradient id="d" x1="-923.376" x2="-922.22" y1="106.054" y2="106.054" gradientTransform="matrix(-.725 .2653 .3561 .8718 -677.256 160.345)" gradientUnits="userSpaceOnUse"><stop offset=".387" stop-color="#ffbd9f" class="stopColorffbd9f svgShape"></stop><stop offset="1" stop-color="#ef72a6" class="stopColoref72a6 svgShape"></stop></linearGradient><path fill="url(#d)" d="M29.1,8.09c0.08,0.03,0.18,0.06,0.28,0.07c0.27,0.03,0.48-0.07,0.61-0.25
					c-0.16-0.14-0.41-0.17-0.63-0.06C29.25,7.91,29.16,7.99,29.1,8.09z" opacity=".38"></path><linearGradient id="e" x1="-1.872" x2="-1.706" y1="-.158" y2=".352" gradientTransform="rotate(-10.655 44.443 -142.123)" gradientUnits="userSpaceOnUse"><stop offset=".387" stop-color="#ffbd9f" class="stopColorffbd9f svgShape"></stop><stop offset="1" stop-color="#ef72a6" class="stopColoref72a6 svgShape"></stop></linearGradient><path fill="url(#e)" d="M24.87,5.8c0.21,0.04,0.43,0.23,0.63,0.36C25.34,6.08,25.12,5.96,24.87,5.8z"></path><linearGradient id="f" x1="-1.365" x2="-1.364" y1=".263" y2=".266" gradientTransform="rotate(-10.655 44.443 -142.123)" gradientUnits="userSpaceOnUse"><stop offset=".387" stop-color="#ffbd9f" class="stopColorffbd9f svgShape"></stop><stop offset="1" stop-color="#ef72a6" class="stopColoref72a6 svgShape"></stop></linearGradient><polygon fill="url(#f)" points="25.76 6.28 25.75 6.28 25.75 6.28"></polygon><path fill="#c14276" d="M29.22,5.63c-0.09,0.14-0.16,0.3-0.06,0.46c0.1,0.17,0.55,0.34,0.25,0.56c-0.09,0.06,0.02,0.19,0.11,0.13
				c0.14-0.1,0.2-0.29,0.11-0.46c-0.13-0.24-0.49-0.26-0.28-0.6C29.42,5.64,29.28,5.54,29.22,5.63L29.22,5.63z" opacity=".62" class="colorc14276 svgShape"></path><path fill="#ffffff" d="M30.05,3.9c-0.48,0.09-0.79,0.58-0.78,1.15c-0.15-0.03-0.28-0.01-0.37,0.05
						c-0.02,0.01-0.03,0.03-0.05,0.04c-0.19-0.54-0.69-0.88-1.2-0.79c-0.51,0.1-0.85,0.61-0.83,1.18l-1.54,0.42l0.04,0.15l1.52-0.41
						c0,0.01,0,0.03,0.01,0.04c0.12,0.65,0.69,1.1,1.25,0.99c0.56-0.11,0.92-0.72,0.81-1.37c0-0.02,0.02-0.09,0.08-0.13
						c0.06-0.05,0.17-0.05,0.3-0.02c0,0.02,0.01,0.04,0.01,0.06c0.12,0.65,0.66,1.1,1.2,1c0.54-0.1,0.88-0.71,0.75-1.37
						C31.12,4.24,30.58,3.8,30.05,3.9z M28.07,6.57C27.59,6.66,27.1,6.27,27,5.7c-0.11-0.57,0.2-1.11,0.69-1.2
						c0.49-0.09,0.97,0.3,1.08,0.87C28.87,5.94,28.56,6.47,28.07,6.57z M30.46,6.12c-0.46,0.09-0.92-0.31-1.02-0.88
						c-0.11-0.57,0.18-1.11,0.63-1.19c0.46-0.09,0.92,0.31,1.02,0.88C31.21,5.5,30.92,6.03,30.46,6.12z" class="colorfff svgShape"></path><path fill="#f078a5" d="M25.29,6.5c0,0-0.64-0.53-0.65-0.23c-0.01,0.3,0.36,1.08,0.6,0.99c0.23-0.08-0.14-0.26,0.04-0.37
				c0.18-0.1,0.3,0.05,0.26-0.14C25.49,6.56,25.29,6.5,25.29,6.5z" class="colorf078a5 svgShape"></path><linearGradient id="g" x1="-23.286" x2="-10.419" y1="-22.98" y2="-22.98" gradientTransform="rotate(-5.583 378.104 -575.846)" gradientUnits="userSpaceOnUse"><stop offset=".239" stop-color="#27316f" class="stopColor27316f svgShape"></stop><stop offset="1" stop-color="#4c5f9b" class="stopColor4c5f9b svgShape"></stop></linearGradient><path fill="url(#g)" d="M44.99,9.88c0.05,0.47-3.61,6.02-3.97,6.37c-0.36,0.35-8.31,0.23-8.31,0.23l-0.17-3.91
			l-0.06-1.31c0,0,6.47,2.23,6.85,2.03c0.06-0.03,0.16-0.17,0.28-0.37c0.65-1.07,2.02-4.03,2.51-4.11c0.47-0.08,2.01,0.36,2.62,0.77
			C44.89,9.68,44.98,9.78,44.99,9.88z"></path><path fill="#2f245b" d="M44.99,9.88c0.05,0.47-3.61,6.02-3.97,6.37c-0.36,0.35-8.31,0.23-8.31,0.23l-0.17-3.91l0.6-0.54
			c0,0,2.52,3.07,3.64,3.51c1.12,0.44,3.77,0.29,3.63-0.24c-0.15-0.53-1.07-2-1.07-2l0.28-0.37c0,0,1.15,1.33,2.18,0.4
			c0.54-0.48,1.83-2.21,2.94-3.74C44.89,9.68,44.98,9.78,44.99,9.88z" opacity=".58" class="color2f245b svgShape"></path><linearGradient id="h" x1="-19.006" x2="-14.26" y1="-10.88" y2="-10.88" gradientTransform="rotate(-5.583 378.104 -575.846)" gradientUnits="userSpaceOnUse"><stop offset=".387" stop-color="#ffbd9f" class="stopColorffbd9f svgShape"></stop><stop offset="1" stop-color="#ef72a6" class="stopColoref72a6 svgShape"></stop></linearGradient><path fill="url(#h)" d="M38.69,23.65c0,0,2.78,0.66,2.93,0.74c0.15,0.08,1.1,1.64,1.1,1.64l-0.56,0.05
			c0,0-0.84-0.91-1.02-0.89c-0.19,0.02-1.56,1.56-2.65,0.31C37.39,24.25,37.59,23.39,38.69,23.65z"></path><linearGradient id="i" x1="2344.583" x2="2353.186" y1="1183.094" y2="1183.094" gradientTransform="scale(-1 1) rotate(-32.806 -755.737 4687.077)" gradientUnits="userSpaceOnUse"><stop offset=".532" stop-color="#ffbf9f" class="stopColorffbf9f svgShape"></stop><stop offset="1" stop-color="#ef879f" class="stopColoref879f svgShape"></stop></linearGradient><path fill="url(#i)" d="M41.02,58.76c-0.55,0.65-0.97,1.68-0.86,2.18c0.03,0.14,0.54,0.28,1.29,0.41c0,0,0,0,0,0
			c1.05,0.18,2.56,0.35,3.88,0.47c0,0,0.01,0,0.01,0c0.58,0.05,1.13,0.09,1.58,0.13c0.01,0,0.01,0,0.02,0
			c0.59,0.04,1.01,0.06,1.15,0.05c0.15-0.01,0.27-0.04,0.37-0.09c0.31-0.16,0.4-0.52,0.47-1.01c-0.62-0.24-1.34-0.48-1.65-0.63
			c-0.34-0.16-0.78-0.41-1.18-0.64c-0.33-0.14-0.64-0.33-0.88-0.53C45.1,59,45,58.9,44.91,58.8c-0.44-0.49-0.4-3.16-0.4-3.16
			l-2.16,0.01c0,0-0.59,1.99-1.13,2.84c-0.05,0.08-0.1,0.15-0.16,0.21C41.05,58.72,41.04,58.74,41.02,58.76z"></path><path fill="#2f245b" d="M43.95,59.97c0.55,0.6,2.95,0.71,3.33,0.3c0.09,0.04,0.21,0.09,0.36,0.15c0.73,0.16,2.59,0.59,2.58,0.89
			c-0.01,0.37-0.32,0.48-1.48,0.56l0,0c-0.1,0.01-0.19,0.02-0.28,0.03c-0.45,0.05-0.92,0.06-1.51,0.04c-0.01,0-0.01,0-0.02,0
			c-0.44-0.02-0.94-0.06-1.58-0.13c0,0-0.01,0-0.01,0c-2.24-0.23-3.19-0.45-3.88-0.47c0,0,0,0,0,0c-0.69-0.02-1.39,0.02-1.38-0.79
			c0.01-0.54,0.29-1.24,0.63-1.67C41.45,58.29,43.4,59.37,43.95,59.97z" class="color2f245b svgShape"></path><path fill="#3f377c" d="M50.62,34.21c-0.5,1.21-3.77,14.34-5.06,19.29c0,0-0.07,0.76-0.16,1.5c-0.09,0.69-0.2,1.35-0.3,1.36
			c-0.21,0.01-3.27-0.25-3.23-0.9c0.01-0.17,0.04-0.45,0.06-0.79c-0.09-0.05-0.15-0.09-0.17-0.12c-0.21-0.25,0.54-2.65,1.11-8.7
			c0.57-6.06,1.96-8.12,1.99-8.85c0.02-0.73-7.11,1.71-13.02,1.63c-5.9-0.08-3.87-10.36-3.87-10.36l12.1,0.35
			c0,0,0.5,0.01,1.26,0.02c2.25,0.05,6.79,0.22,7.62,0.69C50.08,29.97,51.22,32.74,50.62,34.21z" class="color3f377c svgShape"></path><path fill="#2f245b" d="M49.33,32.47c0.08,1.34-0.54,7.58-1.26,9.23c-0.72,1.65-1.71,3.03-1.87,4.32c-0.16,1.29-0.44,2.56-0.88,3.9
			C45,50.88,44.7,53.43,45.4,55c-0.09,0.69-0.2,1.35-0.3,1.36c-0.21,0.01-3.27-0.25-3.23-0.9c0.01-0.17,0.04-0.45,0.06-0.79
			c-0.09-0.05-0.15-0.09-0.17-0.12c-0.21-0.25,0.54-2.65,1.11-8.7c0.57-6.06,1.96-8.12,1.99-8.85c0.02-0.73-7.11,1.71-13.02,1.63
			c-5.9-0.08-3.87-10.36-3.87-10.36l12.1,0.35c0,0,0.5,0.01,1.26,0.02c0.61,0.29,1.4,0.53,2.4,0.62
			C46.81,29.53,49.25,31.12,49.33,32.47z" opacity=".68" class="color2f245b svgShape"></path><linearGradient id="j" x1="2397.912" x2="2407.213" y1="-83.216" y2="-83.216" gradientTransform="scale(-1 1) rotate(-16.708 1668.094 8281.82)" gradientUnits="userSpaceOnUse"><stop offset=".532" stop-color="#ffbf9f" class="stopColorffbf9f svgShape"></stop><stop offset="1" stop-color="#ef879f" class="stopColoref879f svgShape"></stop></linearGradient><path fill="url(#j)" d="M29.41,60.02C29.41,60.02,29.41,60.02,29.41,60.02c0.61,0.32,1.37,0.92,3.27,2.1c0,0,0.01,0.01,0.01,0.01
				c0.54,0.33,0.98,0.59,1.36,0.79c0.01,0,0.01,0.01,0.02,0.01c0.53,0.28,0.95,0.47,1.38,0.62c0.09,0.03,0.18,0.06,0.27,0.09
				c0.37,0.15,0.65,0.24,0.86,0.3c0.05-0.08,0.09-0.17,0.14-0.26c0.18-0.34,0-0.68-0.33-0.98c0,0-0.01,0-0.01-0.01
				c-0.04-0.03-0.07-0.06-0.11-0.09c0,0,0,0,0,0c-0.3-0.25-0.7-0.48-1.06-0.67c-0.09-0.04-0.17-0.1-0.25-0.15
				c-0.1-0.07-0.2-0.14-0.3-0.22c-0.59-0.5-1.06-1.2-1.26-1.73c-0.26-0.69,1.15-4.47,1.15-4.47l-2.3-1.1c0,0-1.37,2.5-2.11,3.25
				c-0.18,0.19-0.36,0.33-0.52,0.41c-0.02,0.01-0.04,0.02-0.06,0.03c-0.35,0.18-0.7,0.44-0.99,0.73c-0.01,0.02-0.02,0.04-0.03,0.06
				C28.16,59.44,28.8,59.71,29.41,60.02z"></path><path fill="#2f245b" d="M29.41,60.02C29.41,60.02,29.41,60.02,29.41,60.02c0.61,0.32,1.37,0.92,3.27,2.1c0,0,0.01,0.01,0.01,0.01
				c0.54,0.33,0.98,0.59,1.36,0.79c0.01,0,0.01,0.01,0.02,0.01c0.53,0.28,0.95,0.47,1.38,0.62c0.09,0.03,0.18,0.06,0.27,0.09
				c0.37,0.15,0.65,0.24,0.86,0.3c0.42,0.11,0.6,0.05,0.72-0.16c0.08-0.15-0.39-0.62-0.91-1.08c0,0-0.01,0-0.01-0.01
				c-0.04-0.03-0.07-0.06-0.11-0.09c0,0,0,0,0,0c-0.33-0.29-0.67-0.55-0.88-0.72c-0.1-0.11-0.19-0.21-0.25-0.29
				c-0.11,0.04-0.27,0.02-0.48-0.03c-0.81-0.21-2.2-1.06-2.37-1.68c-0.2-0.7-1.26-2.26-2.15-2.38c-0.09-0.01-0.18-0.01-0.27,0.01
				c-0.48,0.23-1.03,0.7-1.3,1.15c-0.01,0.02-0.02,0.04-0.03,0.06C28.16,59.44,28.8,59.71,29.41,60.02z" class="color2f245b svgShape"></path><path fill="#3f377c" d="M46.61,35.68c0.55,0.98,0.94,1.12-0.62,4.16c0,0,0,0,0,0.01c0,0-0.01,0.01-0.01,0.01
				c-0.03,0.05-0.06,0.1-0.1,0.15c-0.09,0.15-0.2,0.31-0.32,0.49c-0.02,0.03-0.04,0.06-0.06,0.1c-0.05,0.07-0.1,0.15-0.15,0.23
				c-0.04,0.06-0.08,0.13-0.12,0.19c-0.05,0.08-0.1,0.16-0.16,0.24c-0.05,0.07-0.09,0.14-0.14,0.22c-0.04,0.06-0.07,0.11-0.11,0.17
				c-0.09,0.13-0.18,0.27-0.27,0.42c-0.13,0.21-0.27,0.42-0.42,0.64c-0.06,0.08-0.11,0.17-0.17,0.26c0,0,0,0-0.01,0.01
				c-0.06,0.1-0.13,0.19-0.19,0.29c-0.01,0.01-0.01,0.02-0.02,0.03c-0.06,0.09-0.12,0.18-0.18,0.28c-0.07,0.1-0.14,0.21-0.2,0.31
				c-0.1,0.16-0.21,0.32-0.31,0.48c-0.11,0.16-0.21,0.33-0.32,0.49c-0.04,0.05-0.07,0.11-0.11,0.17c-0.18,0.28-0.37,0.56-0.56,0.84
				c-0.19,0.28-0.38,0.57-0.58,0.86c-0.07,0.1-0.14,0.2-0.21,0.31c-0.01,0.01-0.02,0.03-0.03,0.04c-0.16,0.23-0.31,0.47-0.47,0.7
				c-0.04,0.07-0.09,0.13-0.13,0.2c-0.07,0.11-0.15,0.22-0.22,0.33c-0.1,0.14-0.19,0.28-0.29,0.43c-0.04,0.06-0.08,0.13-0.13,0.19
				c-0.17,0.25-0.34,0.5-0.51,0.75c-0.01,0.01-0.02,0.02-0.02,0.04c-0.12,0.17-0.24,0.35-0.35,0.52c0,0,0,0,0,0
				c-0.08,0.12-0.17,0.24-0.25,0.37c-0.13,0.18-0.25,0.36-0.37,0.54c-0.06,0.09-0.12,0.18-0.19,0.27c-0.14,0.21-0.29,0.41-0.43,0.61
				c-0.05,0.07-0.09,0.13-0.14,0.2c-0.07,0.1-0.15,0.21-0.22,0.31c-0.07,0.1-0.15,0.2-0.22,0.3c-0.08,0.11-0.16,0.23-0.24,0.34
				c-0.1,0.13-0.19,0.26-0.28,0.39c-0.03,0.05-0.07,0.09-0.1,0.14c-0.06,0.08-0.11,0.15-0.17,0.22c-0.07,0.1-0.14,0.19-0.21,0.28
				c-0.07,0.1-0.14,0.19-0.21,0.28c-0.09,0.12-0.19,0.24-0.28,0.36c-0.1,0.13-0.2,0.26-0.3,0.38c-0.03,0.04-0.06,0.08-0.09,0.11
				c-0.04,0.05-0.08,0.1-0.12,0.15c-0.1,0.12-0.19,0.23-0.28,0.34c-0.01,0.01-0.01,0.02-0.02,0.03c-0.02,0.03-0.04,0.05-0.07,0.08
				c-0.03,0.03-0.05,0.06-0.08,0.09c-0.05,0.06-0.1,0.11-0.14,0.16c-0.02,0.03-0.05,0.05-0.07,0.07c-0.09,0.09-0.17,0.18-0.25,0.25
				c-0.12,0.12-0.23,0.2-0.32,0.25c-0.06,0.04-0.12,0.05-0.16,0.04c-0.03,0-0.05-0.01-0.08-0.01c-0.03,0-0.06-0.01-0.08-0.02
				c-0.01,0-0.03-0.01-0.04-0.01c-0.04-0.01-0.09-0.02-0.14-0.03h0c-0.05-0.01-0.1-0.02-0.16-0.04c-0.03-0.01-0.06-0.01-0.08-0.02
				c-0.03-0.01-0.06-0.01-0.08-0.02c-0.03-0.01-0.06-0.02-0.09-0.02c-0.03-0.01-0.06-0.02-0.09-0.02c-0.03-0.01-0.06-0.02-0.09-0.03
				c-0.54-0.16-1.14-0.38-1.64-0.63c0,0,0.03-0.09,0.09-0.26l0,0c0.35-0.99,1.71-4.67,4.39-9.64l0,0c3.15-5.84,4.2-6.34,4.2-6.34
				s-0.47-0.11-1.15-0.28c0,0,0,0,0,0c-0.14-0.03-0.28-0.07-0.43-0.1c-0.02-0.01-0.04-0.01-0.06-0.02
				c-0.93-0.23-2.99-0.91-2.99-0.91s-0.21,0.07-0.56,0.23c-1.24-0.44-2.48-0.82-2.91-0.94c-1.72-0.42-3.52-0.91-5.17-1.53
				c-0.38-0.14-0.72-0.31-1.01-0.51c-0.07-0.05-0.14-0.1-0.21-0.15c-0.37-0.29-0.66-0.62-0.88-0.98c-0.08-0.13-0.15-0.27-0.21-0.41
				c-0.02-0.05-0.04-0.1-0.06-0.15c-0.02-0.06-0.04-0.11-0.06-0.17c-0.02-0.07-0.05-0.15-0.07-0.22c-0.01-0.04-0.02-0.07-0.03-0.11
				c-0.02-0.08-0.04-0.15-0.05-0.23c-0.01-0.04-0.01-0.08-0.02-0.12c-0.01-0.04-0.01-0.09-0.02-0.14l0,0c0-0.03-0.01-0.06-0.01-0.09
				c-0.01-0.09-0.02-0.18-0.03-0.27c-0.01-0.11-0.01-0.22-0.02-0.33c0-0.07,0-0.14,0-0.22c0-0.1,0.01-0.19,0.01-0.29
				c0-0.07,0.01-0.15,0.02-0.22c0.01-0.17,0.04-0.34,0.06-0.51c0.01-0.06,0.02-0.13,0.03-0.19c0-0.02,0-0.03,0-0.03
				c0.1-0.59,0.26-1.18,0.44-1.74c0.01-0.03,0.02-0.06,0.03-0.09c0.05-0.16,0.11-0.33,0.17-0.48c0.02-0.04,0.03-0.08,0.05-0.12
				c0.08-0.21,0.16-0.42,0.25-0.62c0.03-0.06,0.05-0.12,0.08-0.18c0.09-0.2,0.17-0.39,0.26-0.56c0.02-0.05,0.05-0.1,0.07-0.15
				c0.09-0.19,0.18-0.37,0.27-0.53c0.03-0.05,0.05-0.1,0.08-0.15c0.01-0.02,0.02-0.04,0.03-0.06c0.01-0.02,0.02-0.04,0.03-0.06
				c0.02-0.04,0.04-0.08,0.06-0.12c0.06-0.11,0.11-0.21,0.16-0.29c0-0.01,0.01-0.01,0.01-0.02c0.02-0.03,0.03-0.05,0.04-0.07
				c0.01-0.01,0.01-0.02,0.02-0.03c0.02-0.03,0.04-0.06,0.05-0.09c0.01-0.01,0.01-0.02,0.02-0.03c0.02-0.03,0.03-0.06,0.05-0.08
				c0-0.01,0.01-0.01,0.01-0.01v0c0.02-0.03,0.03-0.04,0.03-0.04l1.42,0.55c0.45,0.59,1.16,1.34,2.17,2.28
				c0.07,0.06,1.12,0.44,2.67,0.98c0.57,0.2,1.21,0.43,1.89,0.67c4.21,1.51,10.01,3.67,11.44,4.9
				C46.47,34.83,46.63,35.21,46.61,35.68z" class="color3f377c svgShape"></path><path fill="#2f245b" d="M41.09,39.87c-0.01,0.54-0.31,1.14-0.74,1.77c-1.19,1.74-3.37,3.64-2.99,4.86
				c0.48,1.55-4.6,5.81-5.01,7.81c-0.03,0.15-0.04,0.28-0.01,0.4c0.13,0.61,0.47,1.02,0.88,1.3l0,0c0.31,0.21,0.66,0.34,0.95,0.42
				c0.08,0.02,0.15,0.04,0.22,0.05c-0.12,0.12-0.23,0.2-0.32,0.25c-0.06,0.04-0.12,0.05-0.16,0.04c-0.03,0-0.05-0.01-0.08-0.01
				c-0.03,0-0.06-0.01-0.08-0.02c-0.01,0-0.03-0.01-0.04-0.01c-0.04-0.01-0.09-0.02-0.14-0.03h0c-0.05-0.01-0.1-0.02-0.16-0.04
				c-0.03-0.01-0.06-0.01-0.08-0.02c-0.03-0.01-0.06-0.01-0.08-0.02c-0.03-0.01-0.06-0.02-0.09-0.02c-0.03-0.01-0.06-0.02-0.09-0.02
				c-0.03-0.01-0.06-0.02-0.09-0.03c-0.54-0.16-1.14-0.38-1.64-0.63c0,0,0.03-0.09,0.09-0.26l0,0c0.35-0.99,1.71-4.67,4.39-9.64l0,0
				c3.15-5.84,4.2-6.34,4.2-6.34s-0.47-0.11-1.15-0.28h0c-0.14-0.03-0.28-0.07-0.43-0.1c-0.02-0.01-0.04-0.01-0.06-0.02
				c-0.93-0.23-2.99-0.91-2.99-0.91s-0.21,0.07-0.56,0.23c-1.24-0.44-2.48-0.82-2.91-0.94c-1.72-0.42-3.52-0.91-5.17-1.53
				c-0.38-0.14-0.72-0.31-1.01-0.51c-0.07-0.05-0.14-0.1-0.21-0.15c-0.37-0.29-0.66-0.62-0.88-0.98c-0.08-0.13-0.15-0.27-0.21-0.41
				c-0.02-0.05-0.04-0.1-0.06-0.15c-0.02-0.06-0.04-0.11-0.06-0.17c-0.02-0.07-0.05-0.15-0.07-0.22c-0.01-0.04-0.02-0.07-0.03-0.11
				c-0.02-0.08-0.04-0.15-0.05-0.23c-0.01-0.04-0.01-0.08-0.02-0.12c-0.01-0.04-0.01-0.09-0.02-0.14c0,0,0,0,0,0
				c0-0.03-0.01-0.06-0.01-0.09c-0.01-0.09-0.02-0.18-0.03-0.27c-0.01-0.11-0.01-0.22-0.02-0.33c0-0.07,0-0.14,0-0.22
				c0-0.1,0.01-0.19,0.01-0.29c0-0.07,0.01-0.15,0.02-0.22c0.01-0.17,0.04-0.34,0.06-0.51c0.01-0.07,0.02-0.13,0.03-0.2
				c0,0,0,0,0-0.01c0,0,0-0.01,0-0.01c0,0,0,0,0,0c0.1-0.59,0.26-1.18,0.44-1.74c0.01-0.03,0.02-0.06,0.03-0.09
				c0.05-0.16,0.11-0.33,0.17-0.48c0.02-0.04,0.03-0.08,0.05-0.12c0.08-0.21,0.16-0.42,0.25-0.62c0.03-0.06,0.05-0.12,0.08-0.18
				c0.09-0.2,0.17-0.39,0.26-0.56c0.02-0.05,0.05-0.1,0.07-0.15c0.09-0.19,0.18-0.37,0.27-0.53c0.03-0.05,0.05-0.1,0.08-0.15
				c0.01-0.02,0.02-0.04,0.03-0.06c0.01-0.02,0.02-0.04,0.03-0.06c0.02-0.04,0.04-0.08,0.06-0.12c0.06-0.11,0.11-0.21,0.16-0.29
				c0-0.01,0.01-0.01,0.01-0.02c0.02-0.03,0.03-0.05,0.04-0.07c0.01-0.01,0.01-0.02,0.02-0.03c0.02-0.03,0.04-0.06,0.05-0.09
				c0.01-0.01,0.01-0.02,0.02-0.03c0.02-0.03,0.03-0.06,0.05-0.08c0-0.01,0.01-0.01,0.01-0.01v0c0.02-0.03,0.03-0.04,0.03-0.04
				l1.42,0.55c0.45,0.59,1.16,1.34,2.17,2.28c0.07,0.06,1.12,0.44,2.67,0.98c-1.28-0.12-2.67-0.22-3.71-0.2
				c-0.83,0.01-1.45,0.1-1.64,0.31c-0.4,0.44-0.4,1.96,0.53,3.62c0.1,0.17,0.2,0.35,0.32,0.52c0.91,1.36,2.47,2.74,4.95,3.66
				c1.9,0.71,3.41,1.04,4.59,1.24l0,0c1.16,0.2,1.98,0.26,2.53,0.43C40.85,38.84,41.11,39.14,41.09,39.87z" opacity=".68" class="color2f245b svgShape"></path><path fill="#ffffff" d="M30.9 30.72c-.17-.16-.35-.35-.35-.56.01-.39.55-.51.97-.51 1.01-.02 2.02.02 3.02.1 4.21 1.51 10.01 3.67 11.44 4.9-.13-.05-.29-.09-.47-.12-.42-.06-.84.03-1.24.1C39.63 35.43 34.41 33.9 30.9 30.72zM45.99 39.84C45.98 39.84 45.98 39.85 45.99 39.84c-.01.01-.01.01-.01.01-.03.05-.06.1-.1.15-.09.15-.2.31-.32.49-.02.03-.04.06-.06.1-.05.07-.1.15-.15.23-.04.06-.08.13-.12.19-.05.08-.1.16-.16.24-.05.07-.09.15-.14.22-.04.06-.07.11-.11.17-.09.13-.18.27-.27.42-.13.21-.27.42-.42.64-.06.08-.11.17-.17.26 0 0 0 0-.01.01-.06.1-.13.19-.19.29-.01.01-.01.02-.02.03-.06.09-.12.18-.18.28-.07.1-.14.21-.2.31-.1.16-.21.32-.31.48-.11.16-.21.33-.32.49-.04.05-.07.11-.11.17-.18.28-.37.56-.56.84-.19.28-.38.57-.58.86-.07.1-.14.2-.21.31-.01.01-.02.03-.03.04-.16.23-.31.47-.47.7-.04.07-.09.13-.13.2-.07.11-.15.22-.22.33-.1.14-.19.28-.29.43-.04.06-.08.13-.13.19-.17.25-.34.5-.51.75-.01.01-.02.02-.02.04-.12.17-.24.35-.35.52 0 0 0 0 0 0-.08.12-.17.24-.25.37-.13.18-.25.36-.37.54-.06.09-.12.18-.19.27-.14.21-.29.41-.43.61-.05.07-.09.13-.14.2-.07.1-.15.21-.22.31-.07.1-.15.2-.22.3-.08.11-.16.23-.24.34-.1.13-.19.26-.28.39-.03.05-.07.09-.1.14-.06.08-.11.15-.17.22-.07.1-.14.19-.21.28-.07.1-.14.19-.21.28-.09.12-.19.24-.28.36-.1.13-.2.26-.3.38-.03.04-.06.08-.09.11-.04.05-.08.1-.12.15-.1.12-.19.23-.28.34-.03.04-.06.07-.09.1-.03.03-.05.06-.08.09-.05.06-.1.11-.14.16-.02.03-.05.05-.07.07-.09.09-.17.18-.25.25-.12.12-.23.2-.32.25-.06.04-.12.05-.16.04-.05-.01-.11-.02-.17-.03-.01 0-.03-.01-.04-.01-.04-.01-.09-.02-.14-.03h0c-.27-.15-.47-.25-.54-.27-.04-.01.03-.16.2-.42.15-.23.38-.56.68-.96 2.86-3.89 11.65-14.67 11.49-15.09-.32-.83 1.17-2.93 1.22-4.27C47.16 36.66 47.54 36.81 45.99 39.84z" opacity=".12" class="colorfff svgShape"></path><path fill="#3f377c" d="M24.19,30.8c0,0-0.95,6.57,3.42,7.7c4.37,1.12,12.19,0.88,12.19,0.88L24.19,30.8z" class="color3f377c svgShape"></path><path fill="#2f245b" d="M39.81,39.38L24.19,30.8c0,0-0.95,6.57,3.42,7.7L39.81,39.38z" opacity=".68" class="color2f245b svgShape"></path><linearGradient id="k" x1="-34.141" x2="-22.947" y1="-15.031" y2="-15.031" gradientTransform="rotate(-5.583 378.104 -575.846)" gradientUnits="userSpaceOnUse"><stop offset=".019" stop-color="#ffffff" class="stopColorfff svgShape"></stop><stop offset="1" stop-color="#ceede0" class="stopColorceede0 svgShape"></stop></linearGradient><path fill="url(#k)" d="M34.14,27.68c0.09,0.59-2.52,0.8-5.25,1.99c-0.06,0.03-0.12,0.05-0.18,0.08c-2.18,1.02-4.14,3.1-4.93,3.41
				c-0.2,0.08-0.33,0.04-0.36-0.16c-0.17-1.01,0.83-4.27,0.73-6.75c-0.01-0.33-0.04-0.7-0.08-1.1c-0.02-0.16-0.03-0.33-0.05-0.5
				c0.04-0.35,0.06-0.62,0.05-0.76c-0.02-0.33-0.09-1.52-0.17-3.02c-0.12-2.2-0.28-5.06-0.35-6.9l0.16-1.77c0,0,0,0,0,0
				c0,0,0.01-0.01,0.01-0.01c0,0,0.01-0.01,0.01-0.01c0.01,0,0.01,0,0.01-0.01c0.12-0.06,0.52-0.23,1.26-0.48
				c0.77-0.26,1.49-0.51,1.71-0.59c0.04-0.01,0.07-0.02,0.07-0.02s1.55,2.34,3.43,2.01c0.81-0.14,0.97-0.62,0.91-1.11
				c0.33,0.92,0.77,2.2,1.16,3.36c0.36,1.08,0.66,2.05,0.76,2.51c0.02,0.08,0.03,0.14,0.03,0.19c0.08,0.87,0.23,7.21,0.46,8.2
				c0.23,0.99,0.41,1.45,0.41,1.45L34.14,27.68z"></path><path fill="#ffffff" d="M14.5,13.03l-0.05,0.01C14.46,13.05,14.48,13.03,14.5,13.03z" class="colorfff svgShape"></path><linearGradient id="l" x1="-30.794" x2="-30.794" y1="-25.896" y2="-3.136" gradientTransform="rotate(-5.583 378.104 -575.846)" gradientUnits="userSpaceOnUse"><stop offset="0" stop-color="#4c5f9b" class="stopColor4c5f9b svgShape"></stop><stop offset=".761" stop-color="#27316f" class="stopColor27316f svgShape"></stop></linearGradient><path fill="url(#l)" d="M29.28,18.02c0,0.05,0,0.16,0,0.32c-0.01,0.34-0.04,0.91-0.09,1.6c-0.03,0.53-0.07,1.15-0.12,1.8
			c-0.11,1.65-0.24,3.54-0.32,5.04c-0.06,1.13-0.09,2.04-0.07,2.44c0.01,0.2,0.02,0.37,0.02,0.53c0.04,1.08-0.08,1.31-0.73,1.91
			c-0.74,0.68-4.61,3.29-5.03,2.45c-0.26-0.53,0.28-4.04,0.7-6.83c0.16-1.05,0.3-1.99,0.37-2.64c0.04-0.35,0.06-0.62,0.05-0.76
			c-0.02-0.33-0.09-1.52-0.17-3.02c-0.12-2.2-0.28-5.06-0.35-6.9c-0.04-1.03-0.67-1.35-0.5-1.6c0.17-0.25,3.59-1.46,3.68-1.26
			c0,0,0,0,0,0c0.02,0.05,0.51,1.29,1.06,2.71C28.47,15.61,29.25,17.69,29.28,18.02z"></path><linearGradient id="m" x1="-24.759" x2="-21.463" y1="-17.258" y2="-17.258" gradientTransform="rotate(-5.583 378.104 -575.846)" gradientUnits="userSpaceOnUse"><stop offset=".239" stop-color="#27316f" class="stopColor27316f svgShape"></stop><stop offset="1" stop-color="#4c5f9b" class="stopColor4c5f9b svgShape"></stop></linearGradient><path fill="url(#m)" d="M35.62,27.54l-1.67,0.16c0,0-0.18-0.46-0.41-1.45c-0.23-0.99-0.38-7.33-0.46-8.2c0-0.05-0.02-0.11-0.03-0.19
			c-0.1-0.46-0.41-1.43-0.76-2.51c-0.38-1.16-0.83-2.44-1.16-3.36c-0.15-0.42-0.27-0.77-0.35-0.99c-0.06-0.17-0.1-0.27-0.1-0.28
			c0,0,0,0,0,0s0.09,0.02,0.25,0.07c0.01,0,0.02,0.01,0.04,0.01c0.02,0.01,0.05,0.01,0.08,0.02c0.01,0,0.02,0.01,0.04,0.01
			c0.4,0.11,1.01,0.29,1.51,0.45c0.03,0.05,0.05,0.1,0.08,0.16c0,0,0,0,0.01,0.01c0.1,0.06,0.9,0.62,1.36,3.54
			c0.33,2.08,0.41,3.31,0.42,3.9c0.01,0.29,0,0.42,0,0.42s0.06,0.11,0.17,0.3c-0.02-0.02-0.04-0.04-0.06-0.06
			c-0.08-0.08-0.12-0.12-0.12-0.12s-0.29,1.18-0.27,2.12c0.01,0.47,0.38,1.96,0.74,3.34C35.26,26.26,35.62,27.54,35.62,27.54z"></path><path fill="#2f245b" d="M29.19,19.95c-0.12,1.88-0.32,4.75-0.43,6.84l-5.12,0.5c0.24-1.62,0.45-2.99,0.42-3.4
			c-0.02-0.33-0.09-1.52-0.17-3.02c0.71-2.96,1.59-5.54,2.33-4.2c0,0,0.02,3.47,1.1,3.43C27.81,20.09,28.54,20.02,29.19,19.95z" opacity=".68" class="color2f245b svgShape"></path><path fill="#716eb7" d="M26.72 11.11c0 0 2.51 6.31 2.57 6.91 0 .05 0 .16 0 .32-.3-.38-2.29-2.9-2.45-3.26-.17-.39.37-1.05.37-1.05s-.55-.76-1.06-1.18C25.63 12.43 26.72 11.11 26.72 11.11zM33.04 17.87L33.04 17.87c-.3-1.35-2.34-7.05-2.37-7.14.04.04 1.41 1.29 1.51 1.61.1.33-.14.69-.14.69s.31.38.54.69C32.81 14.03 33.04 17.87 33.04 17.87z" class="color716eb7 svgShape"></path><path fill="#2f245b" d="M46.61,35.68c-0.1-0.18-0.21-0.4-0.31-0.67c-0.04-0.11-0.15-0.24-0.31-0.37
			C46.47,34.83,46.63,35.21,46.61,35.68z" class="color2f245b svgShape"></path><path fill="#323a7b" d="M35.35,28.64l-1.07,0.38c0,0-1.21-2.74-1.69-4.53c-0.49-1.78-0.58-2.82-0.87-2.97
				c-0.19-0.1-1.66,0.09-2.64,0.22c0.04-0.65,0.08-1.27,0.12-1.8c0.04-0.7,0.08-1.27,0.09-1.6c0.01-0.16,0.01-0.27,0-0.32
				c-0.03-0.33-0.81-2.41-1.51-4.2c0.78,1.43,2.33,4.26,2.61,4.54c0.36,0.37,2.19,0.1,2.19,0.1l-0.3-3.1
				c0.36,1.08,0.66,2.05,0.77,2.51c0.02,0.08,0.03,0.14,0.03,0.19c0.09,0.87,0.23,7.21,0.46,8.2c0.23,0.99,0.41,1.45,0.41,1.45
				l1.27-0.12C35.29,28.23,35.35,28.64,35.35,28.64z" opacity=".34" class="color323a7b svgShape"></path><linearGradient id="n" x1="-25.737" x2="-24.659" y1="-25.837" y2="-25.837" gradientTransform="rotate(-5.583 378.104 -575.846)" gradientUnits="userSpaceOnUse"><stop offset=".239" stop-color="#27316f" class="stopColor27316f svgShape"></stop><stop offset="1" stop-color="#4c5f9b" class="stopColor4c5f9b svgShape"></stop></linearGradient><path fill="url(#n)" d="M29.64,10.34l1.02,0.39l0.15,0.53C30.82,11.25,29.81,10.65,29.64,10.34z"></path><path fill="#2f245b" d="M25.68,14.02c0,0,2.89,4.26,2.48,3.79c-0.42-0.47-0.95-2.18-0.95-2.18l2.08,2.71l-0.09,1.6l-3.2,0.31
			L25.68,14.02z" opacity=".38" class="color2f245b svgShape"></path><linearGradient id="o" x1="-25.601" x2="-30.908" y1="-17.138" y2="-10.807" gradientTransform="rotate(-5.583 378.104 -575.846)" gradientUnits="userSpaceOnUse"><stop offset="0" stop-color="#4c5f9b" class="stopColor4c5f9b svgShape"></stop><stop offset=".761" stop-color="#27316f" class="stopColor27316f svgShape"></stop></linearGradient><path fill="url(#o)" d="M39.19,25.23c-0.09,0.52-0.25,0.96-0.49,0.98c-0.52,0.05-10.75-0.2-12.27-1.17
			c-1.52-0.97-4.22-8.41-4.32-10.86c-0.02-0.61,0.15-1.07,0.43-1.4c0.11-0.14,0.24-0.25,0.38-0.34c0.93-0.61,2.29-0.17,2.65,0.98
			c0.59,1.87,1.7,4.94,2.8,6.71l0.01,0.02c0.46,0.75,0.92,1.26,1.34,1.34c1.85,0.38,9.46,1.62,9.55,2.1
			C39.33,23.84,39.31,24.6,39.19,25.23z"></path><path fill="#2f245b" d="M39.19,25.23c-0.09,0.52-0.25,0.96-0.49,0.98c-0.52,0.05-10.75-0.2-12.27-1.17
			c-1.52-0.97-4.22-8.41-4.32-10.86c-0.02-0.61,0.15-1.07,0.43-1.4c0.11-0.14,0.24-0.25,0.38-0.34c-0.04,0.78,0.06,1.96,0.48,3.73
			c1.12,4.8,2.33,7.35,2.86,6.88c0.53-0.47,2.11-2.92,2.11-2.92l0.01,0.02l0.71,1.22c0,0-3.01,1.85,0.04,3.22
			C31.22,25.52,36.21,25.4,39.19,25.23z" opacity=".58" class="color2f245b svgShape"></path><g><path fill="#222956" d="M33.58,29.04l7.68-0.68c0.22-0.02,0.41,0.14,0.43,0.36l0.01,0.08c0.02,0.22-0.14,0.41-0.36,0.43
						l-7.68,0.68c-0.22,0.02-0.41-0.14-0.43-0.36l-0.01-0.08C33.21,29.25,33.37,29.06,33.58,29.04z" class="color222956 svgShape"></path><path fill="#222956" d="M51.69,27.54l1.04-8.32c0.08-0.63-0.43-1.17-1.05-1.12l-12.14,1.07c-0.47,0.04-0.84,0.42-0.88,0.89
						l-0.75,8.3c-0.06,0.62,0.45,1.14,1.05,1.08l11.85-1.04C51.27,28.36,51.63,28,51.69,27.54z" class="color222956 svgShape"></path><linearGradient id="p" x1="902.834" x2="910.787" y1="-13.604" y2=".171" gradientTransform="scale(-1 1) rotate(5.025 84.38 -10846.253)" gradientUnits="userSpaceOnUse" fill="none"><stop offset="0" stop-color="#4c5f9b" class="stopColor4c5f9b svgShape"></stop><stop offset=".725" stop-color="#27316f" class="stopColor27316f svgShape"></stop></linearGradient><path fill="url(#p)" d="M52.34,27.48l1.04-8.32c0.08-0.63-0.43-1.17-1.05-1.12l-12.14,1.07
				c-0.47,0.04-0.84,0.42-0.88,0.89l-0.75,8.3c-0.06,0.62,0.45,1.14,1.05,1.08l11.85-1.04C51.92,28.3,52.28,27.94,52.34,27.48z"></path><path fill="#ffffff" d="M45.96,23.61c0.03,0.32,0.31,0.56,0.62,0.54c0.32-0.03,0.55-0.31,0.52-0.64
						c-0.03-0.32-0.31-0.56-0.62-0.54C46.17,23.01,45.93,23.29,45.96,23.61z" class="colorfff svgShape"></path><g opacity=".49" fill="none"><linearGradient id="q" x1="899.535" x2="906.342" y1="-7.093" y2="-7.093" gradientTransform="scale(-1 1) rotate(5.025 84.38 -10846.253)" gradientUnits="userSpaceOnUse" fill="none"><stop offset="0" stop-color="#955bed" class="stopColor955bed svgShape"></stop><stop offset="1" stop-color="#204ce0" class="stopColor204ce0 svgShape"></stop></linearGradient><path fill="url(#q)" d="M52.77,19.39l-1.01,6.85c-0.05,0.37-0.51,0.49-0.73,0.2l-4.95-6.32c-0.21-0.26-0.04-0.66,0.29-0.69
						l5.95-0.52C52.59,18.88,52.81,19.12,52.77,19.39z"></path></g></g><path fill="#ff9f00" d="M16.22,18.39c0,0.21,0.7,7.35,4.69,9.04c3.99,1.69,15.92,0.1,19.31,6.06c3.39,5.96,1.66,9.91,1.66,9.91
		s-18.43,1.04-18.91,0.69c-0.49-0.35-9.91-7.55-9.91-7.83C13.07,35.99,16.22,18.39,16.22,18.39z" class="colorff9f00 svgShape"></path></svg>